<svg xmlns="http://www.w3.org/2000/svg" width="652" height="720" viewBox="0 0 652 720" font-family="Segoe UI, Noto Sans, sans-serif">
<rect width="652" height="720" fill="#ffffff"/>
<text x="46" y="24" font-size="15" font-weight="bold" fill="#212529">MAPPA PF-1: STANZA DELLA CORONA (Boss Fight Belkram)</text>
<text x="46" y="40" font-size="11" fill="#6c757d">20×14 quadretti · scala 1,5 m/quadretto · fonte: Portale-Forgia-L1-REVISED-UltraClear.md (SVG generato — non modificare a mano)</text>
<rect x="46" y="60" width="28" height="28" fill="#6c757d"/>
<rect x="74" y="60" width="28" height="28" fill="#6c757d"/>
<rect x="102" y="60" width="28" height="28" fill="#6c757d"/>
<rect x="130" y="60" width="28" height="28" fill="#6c757d"/>
<rect x="158" y="60" width="28" height="28" fill="#6c757d"/>
<rect x="186" y="60" width="28" height="28" fill="#6c757d"/>
<rect x="214" y="60" width="28" height="28" fill="#6c757d"/>
<rect x="242" y="60" width="28" height="28" fill="#6c757d"/>
<rect x="270" y="60" width="28" height="28" fill="#6c757d"/>
<rect x="298" y="60" width="28" height="28" fill="#e6ccb2"/>
<text x="312.0" y="80.0" font-size="17" text-anchor="middle">🚪</text>
<rect x="326" y="60" width="28" height="28" fill="#e6ccb2"/>
<text x="340.0" y="80.0" font-size="17" text-anchor="middle">🚪</text>
<rect x="354" y="60" width="28" height="28" fill="#6c757d"/>
<rect x="382" y="60" width="28" height="28" fill="#6c757d"/>
<rect x="410" y="60" width="28" height="28" fill="#6c757d"/>
<rect x="438" y="60" width="28" height="28" fill="#6c757d"/>
<rect x="466" y="60" width="28" height="28" fill="#6c757d"/>
<rect x="494" y="60" width="28" height="28" fill="#6c757d"/>
<rect x="522" y="60" width="28" height="28" fill="#6c757d"/>
<rect x="550" y="60" width="28" height="28" fill="#6c757d"/>
<rect x="578" y="60" width="28" height="28" fill="#6c757d"/>
<rect x="46" y="88" width="28" height="28" fill="#6c757d"/>
<rect x="74" y="88" width="28" height="28" fill="#6c757d"/>
<rect x="102" y="88" width="28" height="28" fill="#6c757d"/>
<rect x="130" y="88" width="28" height="28" fill="#6c757d"/>
<rect x="158" y="88" width="28" height="28" fill="#6c757d"/>
<rect x="186" y="88" width="28" height="28" fill="#6c757d"/>
<rect x="214" y="88" width="28" height="28" fill="#6c757d"/>
<rect x="242" y="88" width="28" height="28" fill="#6c757d"/>
<rect x="270" y="88" width="28" height="28" fill="#6c757d"/>
<rect x="298" y="88" width="28" height="28" fill="#e6ccb2"/>
<text x="312.0" y="108.0" font-size="17" text-anchor="middle">🚪</text>
<rect x="326" y="88" width="28" height="28" fill="#e6ccb2"/>
<text x="340.0" y="108.0" font-size="17" text-anchor="middle">🚪</text>
<rect x="354" y="88" width="28" height="28" fill="#6c757d"/>
<rect x="382" y="88" width="28" height="28" fill="#6c757d"/>
<rect x="410" y="88" width="28" height="28" fill="#6c757d"/>
<rect x="438" y="88" width="28" height="28" fill="#6c757d"/>
<rect x="466" y="88" width="28" height="28" fill="#6c757d"/>
<rect x="494" y="88" width="28" height="28" fill="#6c757d"/>
<rect x="522" y="88" width="28" height="28" fill="#6c757d"/>
<rect x="550" y="88" width="28" height="28" fill="#6c757d"/>
<rect x="578" y="88" width="28" height="28" fill="#6c757d"/>
<rect x="46" y="116" width="28" height="28" fill="#6c757d"/>
<rect x="74" y="116" width="28" height="28" fill="#6c757d"/>
<rect x="102" y="116" width="28" height="28" fill="#6c757d"/>
<rect x="130" y="116" width="28" height="28" fill="#9d4edd"/>
<rect x="158" y="116" width="28" height="28" fill="#9d4edd"/>
<rect x="186" y="116" width="28" height="28" fill="#ffd166"/>
<text x="200.0" y="136.0" font-size="17" text-anchor="middle">🏮</text>
<rect x="214" y="116" width="28" height="28" fill="#b7e4c7"/>
<rect x="242" y="116" width="28" height="28" fill="#b7e4c7"/>
<rect x="270" y="116" width="28" height="28" fill="#b7e4c7"/>
<rect x="298" y="116" width="28" height="28" fill="#b7e4c7"/>
<rect x="326" y="116" width="28" height="28" fill="#b7e4c7"/>
<rect x="354" y="116" width="28" height="28" fill="#b7e4c7"/>
<rect x="382" y="116" width="28" height="28" fill="#b7e4c7"/>
<rect x="410" y="116" width="28" height="28" fill="#b7e4c7"/>
<rect x="438" y="116" width="28" height="28" fill="#ffd166"/>
<text x="452.0" y="136.0" font-size="17" text-anchor="middle">🏮</text>
<rect x="466" y="116" width="28" height="28" fill="#9d4edd"/>
<rect x="494" y="116" width="28" height="28" fill="#9d4edd"/>
<rect x="522" y="116" width="28" height="28" fill="#ffd166"/>
<text x="536.0" y="136.0" font-size="17" text-anchor="middle">🏮</text>
<rect x="550" y="116" width="28" height="28" fill="#6c757d"/>
<rect x="578" y="116" width="28" height="28" fill="#6c757d"/>
<rect x="46" y="144" width="28" height="28" fill="#6c757d"/>
<rect x="74" y="144" width="28" height="28" fill="#6c757d"/>
<rect x="102" y="144" width="28" height="28" fill="#6c757d"/>
<rect x="130" y="144" width="28" height="28" fill="#9d4edd"/>
<rect x="158" y="144" width="28" height="28" fill="#9d4edd"/>
<rect x="186" y="144" width="28" height="28" fill="#ffd166"/>
<text x="200.0" y="164.0" font-size="17" text-anchor="middle">🏮</text>
<rect x="214" y="144" width="28" height="28" fill="#b7e4c7"/>
<rect x="242" y="144" width="28" height="28" fill="#b7e4c7"/>
<rect x="270" y="144" width="28" height="28" fill="#b7e4c7"/>
<rect x="298" y="144" width="28" height="28" fill="#b7e4c7"/>
<rect x="326" y="144" width="28" height="28" fill="#b7e4c7"/>
<rect x="354" y="144" width="28" height="28" fill="#b7e4c7"/>
<rect x="382" y="144" width="28" height="28" fill="#b7e4c7"/>
<rect x="410" y="144" width="28" height="28" fill="#b7e4c7"/>
<rect x="438" y="144" width="28" height="28" fill="#ffd166"/>
<text x="452.0" y="164.0" font-size="17" text-anchor="middle">🏮</text>
<rect x="466" y="144" width="28" height="28" fill="#9d4edd"/>
<rect x="494" y="144" width="28" height="28" fill="#9d4edd"/>
<rect x="522" y="144" width="28" height="28" fill="#ffd166"/>
<text x="536.0" y="164.0" font-size="17" text-anchor="middle">🏮</text>
<rect x="550" y="144" width="28" height="28" fill="#6c757d"/>
<rect x="578" y="144" width="28" height="28" fill="#6c757d"/>
<rect x="46" y="172" width="28" height="28" fill="#6c757d"/>
<rect x="74" y="172" width="28" height="28" fill="#6c757d"/>
<rect x="102" y="172" width="28" height="28" fill="#6c757d"/>
<rect x="130" y="172" width="28" height="28" fill="#ffd166"/>
<text x="144.0" y="192.0" font-size="17" text-anchor="middle">🏮</text>
<rect x="158" y="172" width="28" height="28" fill="#b7e4c7"/>
<rect x="186" y="172" width="28" height="28" fill="#b7e4c7"/>
<rect x="214" y="172" width="28" height="28" fill="#b7e4c7"/>
<rect x="242" y="172" width="28" height="28" fill="#b7e4c7"/>
<rect x="270" y="172" width="28" height="28" fill="#b7e4c7"/>
<rect x="298" y="172" width="28" height="28" fill="#b7e4c7"/>
<rect x="326" y="172" width="28" height="28" fill="#b7e4c7"/>
<rect x="354" y="172" width="28" height="28" fill="#b7e4c7"/>
<rect x="382" y="172" width="28" height="28" fill="#b7e4c7"/>
<rect x="410" y="172" width="28" height="28" fill="#b7e4c7"/>
<rect x="438" y="172" width="28" height="28" fill="#b7e4c7"/>
<rect x="466" y="172" width="28" height="28" fill="#b7e4c7"/>
<rect x="494" y="172" width="28" height="28" fill="#ffd166"/>
<text x="508.0" y="192.0" font-size="17" text-anchor="middle">🏮</text>
<rect x="522" y="172" width="28" height="28" fill="#ffd166"/>
<text x="536.0" y="192.0" font-size="17" text-anchor="middle">🏮</text>
<rect x="550" y="172" width="28" height="28" fill="#6c757d"/>
<rect x="578" y="172" width="28" height="28" fill="#6c757d"/>
<rect x="46" y="200" width="28" height="28" fill="#6c757d"/>
<rect x="74" y="200" width="28" height="28" fill="#6c757d"/>
<rect x="102" y="200" width="28" height="28" fill="#6c757d"/>
<rect x="130" y="200" width="28" height="28" fill="#ffd166"/>
<text x="144.0" y="220.0" font-size="17" text-anchor="middle">🏮</text>
<rect x="158" y="200" width="28" height="28" fill="#b7e4c7"/>
<rect x="186" y="200" width="28" height="28" fill="#b7e4c7"/>
<rect x="214" y="200" width="28" height="28" fill="#f1f3f5"/>
<circle cx="228.0" cy="214.0" r="10.08" fill="#d62828" stroke="#ffffff" stroke-width="2"/>
<rect x="242" y="200" width="28" height="28" fill="#b7e4c7"/>
<rect x="270" y="200" width="28" height="28" fill="#b7e4c7"/>
<rect x="298" y="200" width="28" height="28" fill="#b7e4c7"/>
<rect x="326" y="200" width="28" height="28" fill="#b7e4c7"/>
<rect x="354" y="200" width="28" height="28" fill="#b7e4c7"/>
<rect x="382" y="200" width="28" height="28" fill="#b7e4c7"/>
<rect x="410" y="200" width="28" height="28" fill="#b7e4c7"/>
<rect x="438" y="200" width="28" height="28" fill="#f1f3f5"/>
<circle cx="452.0" cy="214.0" r="10.08" fill="#d62828" stroke="#ffffff" stroke-width="2"/>
<rect x="466" y="200" width="28" height="28" fill="#b7e4c7"/>
<rect x="494" y="200" width="28" height="28" fill="#ffd166"/>
<text x="508.0" y="220.0" font-size="17" text-anchor="middle">🏮</text>
<rect x="522" y="200" width="28" height="28" fill="#ffd166"/>
<text x="536.0" y="220.0" font-size="17" text-anchor="middle">🏮</text>
<rect x="550" y="200" width="28" height="28" fill="#6c757d"/>
<rect x="578" y="200" width="28" height="28" fill="#6c757d"/>
<rect x="46" y="228" width="28" height="28" fill="#6c757d"/>
<rect x="74" y="228" width="28" height="28" fill="#6c757d"/>
<rect x="102" y="228" width="28" height="28" fill="#6c757d"/>
<rect x="130" y="228" width="28" height="28" fill="#ffd166"/>
<text x="144.0" y="248.0" font-size="17" text-anchor="middle">🏮</text>
<rect x="158" y="228" width="28" height="28" fill="#b7e4c7"/>
<rect x="186" y="228" width="28" height="28" fill="#b7e4c7"/>
<rect x="214" y="228" width="28" height="28" fill="#b7e4c7"/>
<rect x="242" y="228" width="28" height="28" fill="#b7e4c7"/>
<rect x="270" y="228" width="28" height="28" fill="#b7e4c7"/>
<rect x="298" y="228" width="28" height="28" fill="#b7e4c7"/>
<rect x="326" y="228" width="28" height="28" fill="#b7e4c7"/>
<rect x="354" y="228" width="28" height="28" fill="#b7e4c7"/>
<rect x="382" y="228" width="28" height="28" fill="#b7e4c7"/>
<rect x="410" y="228" width="28" height="28" fill="#b7e4c7"/>
<rect x="438" y="228" width="28" height="28" fill="#b7e4c7"/>
<rect x="466" y="228" width="28" height="28" fill="#b7e4c7"/>
<rect x="494" y="228" width="28" height="28" fill="#ffd166"/>
<text x="508.0" y="248.0" font-size="17" text-anchor="middle">🏮</text>
<rect x="522" y="228" width="28" height="28" fill="#ffd166"/>
<text x="536.0" y="248.0" font-size="17" text-anchor="middle">🏮</text>
<rect x="550" y="228" width="28" height="28" fill="#6c757d"/>
<rect x="578" y="228" width="28" height="28" fill="#6c757d"/>
<rect x="46" y="256" width="28" height="28" fill="#6c757d"/>
<rect x="74" y="256" width="28" height="28" fill="#6c757d"/>
<rect x="102" y="256" width="28" height="28" fill="#6c757d"/>
<rect x="130" y="256" width="28" height="28" fill="#ffd166"/>
<text x="144.0" y="276.0" font-size="17" text-anchor="middle">🏮</text>
<rect x="158" y="256" width="28" height="28" fill="#b7e4c7"/>
<rect x="186" y="256" width="28" height="28" fill="#b7e4c7"/>
<rect x="214" y="256" width="28" height="28" fill="#b7e4c7"/>
<rect x="242" y="256" width="28" height="28" fill="#b7e4c7"/>
<rect x="270" y="256" width="28" height="28" fill="#b7e4c7"/>
<rect x="298" y="256" width="28" height="28" fill="#b7e4c7"/>
<rect x="326" y="256" width="28" height="28" fill="#b7e4c7"/>
<rect x="354" y="256" width="28" height="28" fill="#b7e4c7"/>
<rect x="382" y="256" width="28" height="28" fill="#b7e4c7"/>
<rect x="410" y="256" width="28" height="28" fill="#b7e4c7"/>
<rect x="438" y="256" width="28" height="28" fill="#b7e4c7"/>
<rect x="466" y="256" width="28" height="28" fill="#b7e4c7"/>
<rect x="494" y="256" width="28" height="28" fill="#ffd166"/>
<text x="508.0" y="276.0" font-size="17" text-anchor="middle">🏮</text>
<rect x="522" y="256" width="28" height="28" fill="#ffd166"/>
<text x="536.0" y="276.0" font-size="17" text-anchor="middle">🏮</text>
<rect x="550" y="256" width="28" height="28" fill="#6c757d"/>
<rect x="578" y="256" width="28" height="28" fill="#6c757d"/>
<rect x="46" y="284" width="28" height="28" fill="#6c757d"/>
<rect x="74" y="284" width="28" height="28" fill="#6c757d"/>
<rect x="102" y="284" width="28" height="28" fill="#6c757d"/>
<rect x="130" y="284" width="28" height="28" fill="#ffd166"/>
<text x="144.0" y="304.0" font-size="17" text-anchor="middle">🏮</text>
<rect x="158" y="284" width="28" height="28" fill="#b7e4c7"/>
<rect x="186" y="284" width="28" height="28" fill="#b7e4c7"/>
<rect x="214" y="284" width="28" height="28" fill="#b7e4c7"/>
<rect x="242" y="284" width="28" height="28" fill="#b7e4c7"/>
<rect x="270" y="284" width="28" height="28" fill="#343a40"/>
<rect x="298" y="284" width="28" height="28" fill="#343a40"/>
<rect x="326" y="284" width="28" height="28" fill="#343a40"/>
<rect x="354" y="284" width="28" height="28" fill="#343a40"/>
<rect x="382" y="284" width="28" height="28" fill="#b7e4c7"/>
<rect x="410" y="284" width="28" height="28" fill="#b7e4c7"/>
<rect x="438" y="284" width="28" height="28" fill="#b7e4c7"/>
<rect x="466" y="284" width="28" height="28" fill="#b7e4c7"/>
<rect x="494" y="284" width="28" height="28" fill="#ffd166"/>
<text x="508.0" y="304.0" font-size="17" text-anchor="middle">🏮</text>
<rect x="522" y="284" width="28" height="28" fill="#ffd166"/>
<text x="536.0" y="304.0" font-size="17" text-anchor="middle">🏮</text>
<rect x="550" y="284" width="28" height="28" fill="#6c757d"/>
<rect x="578" y="284" width="28" height="28" fill="#6c757d"/>
<rect x="46" y="312" width="28" height="28" fill="#6c757d"/>
<rect x="74" y="312" width="28" height="28" fill="#6c757d"/>
<rect x="102" y="312" width="28" height="28" fill="#6c757d"/>
<rect x="130" y="312" width="28" height="28" fill="#ffd166"/>
<text x="144.0" y="332.0" font-size="17" text-anchor="middle">🏮</text>
<rect x="158" y="312" width="28" height="28" fill="#b7e4c7"/>
<rect x="186" y="312" width="28" height="28" fill="#b7e4c7"/>
<rect x="214" y="312" width="28" height="28" fill="#b7e4c7"/>
<rect x="242" y="312" width="28" height="28" fill="#b7e4c7"/>
<rect x="270" y="312" width="28" height="28" fill="#343a40"/>
<rect x="298" y="312" width="28" height="28" fill="#fff3b0"/>
<text x="312.0" y="332.0" font-size="17" text-anchor="middle">👑</text>
<rect x="326" y="312" width="28" height="28" fill="#fff3b0"/>
<text x="340.0" y="332.0" font-size="17" text-anchor="middle">👑</text>
<rect x="354" y="312" width="28" height="28" fill="#343a40"/>
<rect x="382" y="312" width="28" height="28" fill="#b7e4c7"/>
<rect x="410" y="312" width="28" height="28" fill="#b7e4c7"/>
<rect x="438" y="312" width="28" height="28" fill="#b7e4c7"/>
<rect x="466" y="312" width="28" height="28" fill="#b7e4c7"/>
<rect x="494" y="312" width="28" height="28" fill="#ffd166"/>
<text x="508.0" y="332.0" font-size="17" text-anchor="middle">🏮</text>
<rect x="522" y="312" width="28" height="28" fill="#ffd166"/>
<text x="536.0" y="332.0" font-size="17" text-anchor="middle">🏮</text>
<rect x="550" y="312" width="28" height="28" fill="#6c757d"/>
<rect x="578" y="312" width="28" height="28" fill="#6c757d"/>
<rect x="46" y="340" width="28" height="28" fill="#6c757d"/>
<rect x="74" y="340" width="28" height="28" fill="#6c757d"/>
<rect x="102" y="340" width="28" height="28" fill="#6c757d"/>
<rect x="130" y="340" width="28" height="28" fill="#9d4edd"/>
<rect x="158" y="340" width="28" height="28" fill="#9d4edd"/>
<rect x="186" y="340" width="28" height="28" fill="#ffd166"/>
<text x="200.0" y="360.0" font-size="17" text-anchor="middle">🏮</text>
<rect x="214" y="340" width="28" height="28" fill="#b7e4c7"/>
<rect x="242" y="340" width="28" height="28" fill="#b7e4c7"/>
<rect x="270" y="340" width="28" height="28" fill="#b7e4c7"/>
<rect x="298" y="340" width="28" height="28" fill="#b7e4c7"/>
<rect x="326" y="340" width="28" height="28" fill="#b7e4c7"/>
<rect x="354" y="340" width="28" height="28" fill="#b7e4c7"/>
<rect x="382" y="340" width="28" height="28" fill="#b7e4c7"/>
<rect x="410" y="340" width="28" height="28" fill="#b7e4c7"/>
<rect x="438" y="340" width="28" height="28" fill="#ffd166"/>
<text x="452.0" y="360.0" font-size="17" text-anchor="middle">🏮</text>
<rect x="466" y="340" width="28" height="28" fill="#9d4edd"/>
<rect x="494" y="340" width="28" height="28" fill="#9d4edd"/>
<rect x="522" y="340" width="28" height="28" fill="#ffd166"/>
<text x="536.0" y="360.0" font-size="17" text-anchor="middle">🏮</text>
<rect x="550" y="340" width="28" height="28" fill="#6c757d"/>
<rect x="578" y="340" width="28" height="28" fill="#6c757d"/>
<rect x="46" y="368" width="28" height="28" fill="#6c757d"/>
<rect x="74" y="368" width="28" height="28" fill="#6c757d"/>
<rect x="102" y="368" width="28" height="28" fill="#6c757d"/>
<rect x="130" y="368" width="28" height="28" fill="#9d4edd"/>
<rect x="158" y="368" width="28" height="28" fill="#9d4edd"/>
<rect x="186" y="368" width="28" height="28" fill="#ffd166"/>
<text x="200.0" y="388.0" font-size="17" text-anchor="middle">🏮</text>
<rect x="214" y="368" width="28" height="28" fill="#b7e4c7"/>
<rect x="242" y="368" width="28" height="28" fill="#b7e4c7"/>
<rect x="270" y="368" width="28" height="28" fill="#b7e4c7"/>
<rect x="298" y="368" width="28" height="28" fill="#b7e4c7"/>
<rect x="326" y="368" width="28" height="28" fill="#b7e4c7"/>
<rect x="354" y="368" width="28" height="28" fill="#b7e4c7"/>
<rect x="382" y="368" width="28" height="28" fill="#b7e4c7"/>
<rect x="410" y="368" width="28" height="28" fill="#b7e4c7"/>
<rect x="438" y="368" width="28" height="28" fill="#ffd166"/>
<text x="452.0" y="388.0" font-size="17" text-anchor="middle">🏮</text>
<rect x="466" y="368" width="28" height="28" fill="#9d4edd"/>
<rect x="494" y="368" width="28" height="28" fill="#9d4edd"/>
<rect x="522" y="368" width="28" height="28" fill="#ffd166"/>
<text x="536.0" y="388.0" font-size="17" text-anchor="middle">🏮</text>
<rect x="550" y="368" width="28" height="28" fill="#6c757d"/>
<rect x="578" y="368" width="28" height="28" fill="#6c757d"/>
<rect x="46" y="396" width="28" height="28" fill="#6c757d"/>
<rect x="74" y="396" width="28" height="28" fill="#6c757d"/>
<rect x="102" y="396" width="28" height="28" fill="#6c757d"/>
<rect x="130" y="396" width="28" height="28" fill="#ffd166"/>
<text x="144.0" y="416.0" font-size="17" text-anchor="middle">🏮</text>
<rect x="158" y="396" width="28" height="28" fill="#ffd166"/>
<text x="172.0" y="416.0" font-size="17" text-anchor="middle">🏮</text>
<rect x="186" y="396" width="28" height="28" fill="#ffd166"/>
<text x="200.0" y="416.0" font-size="17" text-anchor="middle">🏮</text>
<rect x="214" y="396" width="28" height="28" fill="#b7e4c7"/>
<rect x="242" y="396" width="28" height="28" fill="#b7e4c7"/>
<rect x="270" y="396" width="28" height="28" fill="#b7e4c7"/>
<rect x="298" y="396" width="28" height="28" fill="#b7e4c7"/>
<rect x="326" y="396" width="28" height="28" fill="#f1f3f5"/>
<circle cx="340.0" cy="410.0" r="10.08" fill="#d62828" stroke="#ffffff" stroke-width="2"/>
<rect x="354" y="396" width="28" height="28" fill="#b7e4c7"/>
<rect x="382" y="396" width="28" height="28" fill="#b7e4c7"/>
<rect x="410" y="396" width="28" height="28" fill="#b7e4c7"/>
<rect x="438" y="396" width="28" height="28" fill="#ffd166"/>
<text x="452.0" y="416.0" font-size="17" text-anchor="middle">🏮</text>
<rect x="466" y="396" width="28" height="28" fill="#ffd166"/>
<text x="480.0" y="416.0" font-size="17" text-anchor="middle">🏮</text>
<rect x="494" y="396" width="28" height="28" fill="#ffd166"/>
<text x="508.0" y="416.0" font-size="17" text-anchor="middle">🏮</text>
<rect x="522" y="396" width="28" height="28" fill="#ffd166"/>
<text x="536.0" y="416.0" font-size="17" text-anchor="middle">🏮</text>
<rect x="550" y="396" width="28" height="28" fill="#6c757d"/>
<rect x="578" y="396" width="28" height="28" fill="#6c757d"/>
<rect x="46" y="424" width="28" height="28" fill="#6c757d"/>
<rect x="74" y="424" width="28" height="28" fill="#6c757d"/>
<rect x="102" y="424" width="28" height="28" fill="#6c757d"/>
<rect x="130" y="424" width="28" height="28" fill="#6c757d"/>
<rect x="158" y="424" width="28" height="28" fill="#6c757d"/>
<rect x="186" y="424" width="28" height="28" fill="#6c757d"/>
<rect x="214" y="424" width="28" height="28" fill="#6c757d"/>
<rect x="242" y="424" width="28" height="28" fill="#6c757d"/>
<rect x="270" y="424" width="28" height="28" fill="#6c757d"/>
<rect x="298" y="424" width="28" height="28" fill="#e6ccb2"/>
<text x="312.0" y="444.0" font-size="17" text-anchor="middle">🚪</text>
<rect x="326" y="424" width="28" height="28" fill="#e6ccb2"/>
<text x="340.0" y="444.0" font-size="17" text-anchor="middle">🚪</text>
<rect x="354" y="424" width="28" height="28" fill="#6c757d"/>
<rect x="382" y="424" width="28" height="28" fill="#6c757d"/>
<rect x="410" y="424" width="28" height="28" fill="#6c757d"/>
<rect x="438" y="424" width="28" height="28" fill="#6c757d"/>
<rect x="466" y="424" width="28" height="28" fill="#6c757d"/>
<rect x="494" y="424" width="28" height="28" fill="#6c757d"/>
<rect x="522" y="424" width="28" height="28" fill="#6c757d"/>
<rect x="550" y="424" width="28" height="28" fill="#6c757d"/>
<rect x="578" y="424" width="28" height="28" fill="#6c757d"/>
<line x1="46" y1="60" x2="46" y2="452" stroke="#495057" stroke-width="1.4" opacity="0.55"/>
<line x1="74" y1="60" x2="74" y2="452" stroke="#495057" stroke-width="0.5" opacity="0.55"/>
<line x1="102" y1="60" x2="102" y2="452" stroke="#495057" stroke-width="0.5" opacity="0.55"/>
<line x1="130" y1="60" x2="130" y2="452" stroke="#495057" stroke-width="0.5" opacity="0.55"/>
<line x1="158" y1="60" x2="158" y2="452" stroke="#495057" stroke-width="0.5" opacity="0.55"/>
<line x1="186" y1="60" x2="186" y2="452" stroke="#495057" stroke-width="1.4" opacity="0.55"/>
<line x1="214" y1="60" x2="214" y2="452" stroke="#495057" stroke-width="0.5" opacity="0.55"/>
<line x1="242" y1="60" x2="242" y2="452" stroke="#495057" stroke-width="0.5" opacity="0.55"/>
<line x1="270" y1="60" x2="270" y2="452" stroke="#495057" stroke-width="0.5" opacity="0.55"/>
<line x1="298" y1="60" x2="298" y2="452" stroke="#495057" stroke-width="0.5" opacity="0.55"/>
<line x1="326" y1="60" x2="326" y2="452" stroke="#495057" stroke-width="1.4" opacity="0.55"/>
<line x1="354" y1="60" x2="354" y2="452" stroke="#495057" stroke-width="0.5" opacity="0.55"/>
<line x1="382" y1="60" x2="382" y2="452" stroke="#495057" stroke-width="0.5" opacity="0.55"/>
<line x1="410" y1="60" x2="410" y2="452" stroke="#495057" stroke-width="0.5" opacity="0.55"/>
<line x1="438" y1="60" x2="438" y2="452" stroke="#495057" stroke-width="0.5" opacity="0.55"/>
<line x1="466" y1="60" x2="466" y2="452" stroke="#495057" stroke-width="1.4" opacity="0.55"/>
<line x1="494" y1="60" x2="494" y2="452" stroke="#495057" stroke-width="0.5" opacity="0.55"/>
<line x1="522" y1="60" x2="522" y2="452" stroke="#495057" stroke-width="0.5" opacity="0.55"/>
<line x1="550" y1="60" x2="550" y2="452" stroke="#495057" stroke-width="0.5" opacity="0.55"/>
<line x1="578" y1="60" x2="578" y2="452" stroke="#495057" stroke-width="0.5" opacity="0.55"/>
<line x1="606" y1="60" x2="606" y2="452" stroke="#495057" stroke-width="1.4" opacity="0.55"/>
<line x1="46" y1="60" x2="606" y2="60" stroke="#495057" stroke-width="1.4" opacity="0.55"/>
<line x1="46" y1="88" x2="606" y2="88" stroke="#495057" stroke-width="0.5" opacity="0.55"/>
<line x1="46" y1="116" x2="606" y2="116" stroke="#495057" stroke-width="0.5" opacity="0.55"/>
<line x1="46" y1="144" x2="606" y2="144" stroke="#495057" stroke-width="0.5" opacity="0.55"/>
<line x1="46" y1="172" x2="606" y2="172" stroke="#495057" stroke-width="0.5" opacity="0.55"/>
<line x1="46" y1="200" x2="606" y2="200" stroke="#495057" stroke-width="1.4" opacity="0.55"/>
<line x1="46" y1="228" x2="606" y2="228" stroke="#495057" stroke-width="0.5" opacity="0.55"/>
<line x1="46" y1="256" x2="606" y2="256" stroke="#495057" stroke-width="0.5" opacity="0.55"/>
<line x1="46" y1="284" x2="606" y2="284" stroke="#495057" stroke-width="0.5" opacity="0.55"/>
<line x1="46" y1="312" x2="606" y2="312" stroke="#495057" stroke-width="0.5" opacity="0.55"/>
<line x1="46" y1="340" x2="606" y2="340" stroke="#495057" stroke-width="1.4" opacity="0.55"/>
<line x1="46" y1="368" x2="606" y2="368" stroke="#495057" stroke-width="0.5" opacity="0.55"/>
<line x1="46" y1="396" x2="606" y2="396" stroke="#495057" stroke-width="0.5" opacity="0.55"/>
<line x1="46" y1="424" x2="606" y2="424" stroke="#495057" stroke-width="0.5" opacity="0.55"/>
<line x1="46" y1="452" x2="606" y2="452" stroke="#495057" stroke-width="0.5" opacity="0.55"/>
<text x="60.0" y="54" font-size="10" text-anchor="middle" fill="#495057">A</text>
<text x="88.0" y="54" font-size="10" text-anchor="middle" fill="#495057">B</text>
<text x="116.0" y="54" font-size="10" text-anchor="middle" fill="#495057">C</text>
<text x="144.0" y="54" font-size="10" text-anchor="middle" fill="#495057">D</text>
<text x="172.0" y="54" font-size="10" text-anchor="middle" fill="#495057">E</text>
<text x="200.0" y="54" font-size="10" text-anchor="middle" fill="#495057">F</text>
<text x="228.0" y="54" font-size="10" text-anchor="middle" fill="#495057">G</text>
<text x="256.0" y="54" font-size="10" text-anchor="middle" fill="#495057">H</text>
<text x="284.0" y="54" font-size="10" text-anchor="middle" fill="#495057">I</text>
<text x="312.0" y="54" font-size="10" text-anchor="middle" fill="#495057">J</text>
<text x="340.0" y="54" font-size="10" text-anchor="middle" fill="#495057">K</text>
<text x="368.0" y="54" font-size="10" text-anchor="middle" fill="#495057">L</text>
<text x="396.0" y="54" font-size="10" text-anchor="middle" fill="#495057">M</text>
<text x="424.0" y="54" font-size="10" text-anchor="middle" fill="#495057">N</text>
<text x="452.0" y="54" font-size="10" text-anchor="middle" fill="#495057">O</text>
<text x="480.0" y="54" font-size="10" text-anchor="middle" fill="#495057">P</text>
<text x="508.0" y="54" font-size="10" text-anchor="middle" fill="#495057">Q</text>
<text x="536.0" y="54" font-size="10" text-anchor="middle" fill="#495057">R</text>
<text x="564.0" y="54" font-size="10" text-anchor="middle" fill="#495057">S</text>
<text x="592.0" y="54" font-size="10" text-anchor="middle" fill="#495057">T</text>
<text x="38" y="77.0" font-size="10" text-anchor="end" fill="#495057">01</text>
<text x="38" y="105.0" font-size="10" text-anchor="end" fill="#495057">02</text>
<text x="38" y="133.0" font-size="10" text-anchor="end" fill="#495057">03</text>
<text x="38" y="161.0" font-size="10" text-anchor="end" fill="#495057">04</text>
<text x="38" y="189.0" font-size="10" text-anchor="end" fill="#495057">05</text>
<text x="38" y="217.0" font-size="10" text-anchor="end" fill="#495057">06</text>
<text x="38" y="245.0" font-size="10" text-anchor="end" fill="#495057">07</text>
<text x="38" y="273.0" font-size="10" text-anchor="end" fill="#495057">08</text>
<text x="38" y="301.0" font-size="10" text-anchor="end" fill="#495057">09</text>
<text x="38" y="329.0" font-size="10" text-anchor="end" fill="#495057">10</text>
<text x="38" y="357.0" font-size="10" text-anchor="end" fill="#495057">11</text>
<text x="38" y="385.0" font-size="10" text-anchor="end" fill="#495057">12</text>
<text x="38" y="413.0" font-size="10" text-anchor="end" fill="#495057">13</text>
<text x="38" y="441.0" font-size="10" text-anchor="end" fill="#495057">14</text>
<line x1="46" y1="470" x2="186" y2="470" stroke="#212529" stroke-width="2"/>
<line x1="46" y1="466" x2="46" y2="474" stroke="#212529" stroke-width="2"/>
<line x1="186" y1="466" x2="186" y2="474" stroke="#212529" stroke-width="2"/>
<text x="194" y="474" font-size="11" fill="#212529">7,5 m (5 quadretti)</text>
<text x="46" y="496" font-size="12" font-weight="bold" fill="#212529">LEGENDA</text>
<rect x="46" y="500" width="18" height="16" fill="#343a40" stroke="#adb5bd" stroke-width="0.5"/>
<text x="72" y="512" font-size="11" fill="#212529">⬛ — Struttura (tenda, edificio, dais)</text>
<text x="46" y="534" font-size="14">🏮</text>
<text x="72" y="534" font-size="11" fill="#212529">🏮 — Braciere / fonte di luce</text>
<rect x="46" y="544" width="18" height="16" fill="#6c757d" stroke="#adb5bd" stroke-width="0.5"/>
<text x="72" y="556" font-size="11" fill="#212529">🏰 — Muro / roccia solida</text>
<text x="46" y="578" font-size="14">👑</text>
<text x="72" y="578" font-size="11" fill="#212529">👑 — Trono / Corona</text>
<circle cx="55" cy="596" r="8" fill="#d62828" stroke="#ffffff" stroke-width="1.5"/>
<text x="72" y="600" font-size="11" fill="#212529">🔴 — Nemico standard</text>
<text x="46" y="622" font-size="14">🚪</text>
<text x="72" y="622" font-size="11" fill="#212529">🚪 — Porta / ingresso</text>
<rect x="46" y="632" width="18" height="16" fill="#b7e4c7" stroke="#adb5bd" stroke-width="0.5"/>
<text x="72" y="644" font-size="11" fill="#212529">🟩 — Pianura / area aperta</text>
<rect x="46" y="654" width="18" height="16" fill="#9d4edd" stroke="#adb5bd" stroke-width="0.5"/>
<text x="72" y="666" font-size="11" fill="#212529">🟪 — Pilastro / mithral</text>
</svg>