<svg xmlns="http://www.w3.org/2000/svg" width="652" height="748" viewBox="0 0 652 748" font-family="Georgia, 'Palatino Linotype', 'Times New Roman', serif">
<defs>
<filter id="grain" x="0" y="0" width="100%" height="100%"><feTurbulence type="fractalNoise" baseFrequency="0.8" numOctaves="2" seed="11" stitchTiles="stitch"/><feColorMatrix type="matrix" values="0 0 0 0 0.36 0 0 0 0 0.28 0 0 0 0 0.16 0 0 0 0.18 0"/><feComposite operator="over" in2="SourceGraphic"/></filter>
<filter id="rough" x="-5%" y="-5%" width="110%" height="110%"><feTurbulence type="fractalNoise" baseFrequency="0.045" numOctaves="2" seed="7" result="n"/><feDisplacementMap in="SourceGraphic" in2="n" scale="2.6"/></filter>
<filter id="softblur" x="-20%" y="-20%" width="140%" height="140%"><feGaussianBlur stdDeviation="1.6"/></filter>
<radialGradient id="vign" cx="0.5" cy="0.45" r="0.75"><stop offset="0.62" stop-color="#3b2e1e" stop-opacity="0"/><stop offset="1" stop-color="#3b2e1e" stop-opacity="0.16"/></radialGradient>
<pattern id="t_grass" width="28" height="28" patternUnits="userSpaceOnUse"><rect width="28" height="28" fill="#b3c489"/><path d="M5 21q1.5-4 3-5M8 21q0-3 2-5M20 8q1.5-2.5 3-3.5" stroke="#94a76a" stroke-width="0.9" stroke-opacity="0.6" fill="none" stroke-linecap="round"/><circle cx="14" cy="16" r="0.9" fill="#c5d29b"/><circle cx="24" cy="24" r="0.8" fill="#c5d29b"/><circle cx="4" cy="7" r="0.8" fill="#a3b573"/><circle cx="25" cy="13" r="0.7" fill="#a3b573"/></pattern>
<pattern id="t_pillar" width="28" height="28" patternUnits="userSpaceOnUse"><rect width="28" height="28" fill="#8a67b5"/><path d="M9 0v28" stroke="#b697dd" stroke-width="3" stroke-opacity="0.7"/><path d="M20 0v28" stroke="#6d4c96" stroke-width="3" stroke-opacity="0.5"/></pattern>
<pattern id="t_struct" width="28" height="28" patternUnits="userSpaceOnUse"><rect width="28" height="28" fill="#6b5b47"/><path d="M-2 6l8-8M-2 14l16-16M-2 22l24-24M6 30l24-24M14 30l16-16M22 30l8-8" stroke="#5a4b39" stroke-width="0.9"/><path d="M0 14.5h28" stroke="#7d6c56" stroke-width="0.8"/></pattern>
<pattern id="t_wall" width="28" height="28" patternUnits="userSpaceOnUse"><rect width="28" height="28" fill="#3f3931"/><path d="M-2 6l8-8M-2 14l16-16M-2 22l24-24M-2 30l32-32M6 30l24-24M14 30l16-16M22 30l8-8" stroke="#2b2620" stroke-width="1"/><circle cx="8" cy="18" r="1" fill="#554d42"/><circle cx="21" cy="7" r="0.9" fill="#554d42"/></pattern>
<radialGradient id="g_d62828" cx="0.35" cy="0.3" r="0.8"><stop offset="0" stop-color="#e88989"/><stop offset="0.55" stop-color="#d62828"/><stop offset="1" stop-color="#8b1a1a"/></radialGradient>
</defs>
<rect width="652" height="748" fill="#efe4c9" filter="url(#grain)"/>
<rect width="652" height="748" fill="url(#vign)"/>
<rect x="5" y="5" width="642" height="738" fill="none" stroke="#3b2e1e" stroke-width="0.8" opacity="0.8"/>
<rect x="9" y="9" width="634" height="730" fill="none" stroke="#3b2e1e" stroke-width="2" opacity="0.85"/>
<text x="46" y="34" font-size="19" font-weight="bold" fill="#3b2e1e" letter-spacing="0.5">MAPPA PF-1: STANZA DELLA CORONA (Boss Fight Belkram)</text>
<text x="46" y="51" font-size="11" font-style="italic" fill="#7a6a50">20×14 quadretti · scala 1,5 m/quadretto</text>
<rect x="41" y="75" width="570" height="402" fill="#e6d9b8" stroke="#3b2e1e" stroke-width="1.6"/>
<path d="M214 136h252v28h-252zM214 164h252v28h-252zM158 192h392v28h-392zM158 220h392v28h-392zM158 248h392v28h-392zM158 276h392v28h-392zM158 304h112v28h-112zM382 304h168v28h-168zM158 332h112v28h-112zM382 332h168v28h-168zM214 360h252v28h-252zM214 388h252v28h-252zM214 416h336v28h-336z" fill="url(#t_grass)"/>
<path d="M46 80h560v28h-560zM46 108h560v28h-560zM46 136h168v28h-168zM466 136h140v28h-140zM46 164h168v28h-168zM466 164h140v28h-140zM46 192h112v28h-112zM550 192h56v28h-56zM46 220h112v28h-112zM550 220h56v28h-56zM46 248h112v28h-112zM550 248h56v28h-56zM46 276h112v28h-112zM550 276h56v28h-56zM46 304h112v28h-112zM270 304h112v28h-112zM550 304h56v28h-56zM46 332h112v28h-112zM270 332h112v28h-112zM550 332h56v28h-56zM46 360h168v28h-168zM466 360h140v28h-140zM46 388h168v28h-168zM466 388h140v28h-140zM46 416h168v28h-168zM550 416h56v28h-56zM46 444h560v28h-560z" fill="#241c10" opacity="0.28" filter="url(#softblur)" transform="translate(2.6,3.4)"/>
<path d="M130 136h84v28h-84zM466 136h84v28h-84zM130 164h84v28h-84zM466 164h84v28h-84zM130 360h84v28h-84zM466 360h84v28h-84zM130 388h84v28h-84zM466 388h84v28h-84z" fill="url(#t_pillar)"/>
<path d="M270 304h112v28h-112zM270 332h112v28h-112z" fill="url(#t_struct)"/>
<path d="M46 80h560v28h-560zM46 108h560v28h-560zM46 136h84v28h-84zM550 136h56v28h-56zM46 164h84v28h-84zM550 164h56v28h-56zM46 192h112v28h-112zM550 192h56v28h-56zM46 220h112v28h-112zM550 220h56v28h-56zM46 248h112v28h-112zM550 248h56v28h-56zM46 276h112v28h-112zM550 276h56v28h-56zM46 304h112v28h-112zM550 304h56v28h-56zM46 332h112v28h-112zM550 332h56v28h-56zM46 360h84v28h-84zM550 360h56v28h-56zM46 388h84v28h-84zM550 388h56v28h-56zM46 416h168v28h-168zM550 416h56v28h-56zM46 444h560v28h-560z" fill="url(#t_wall)"/>
<path d="M46 80v392M130 136v56M130 360v56M158 192v168M214 136v56M214 360v84M270 304v56M382 304v56M466 136v56M466 360v56M550 136v308M606 80v392M46 80h560M130 136h420M130 192h84M466 192h84M270 304h112M130 360h84M270 360h112M466 360h84M130 416h84M466 416h84M214 444h336M46 472h560" fill="none" stroke="#241c10" stroke-width="1.8" opacity="0.9" stroke-linecap="round" filter="url(#rough)"/>
<path d="M74 80v392M102 80v392M130 80v392M158 80v392M214 80v392M242 80v392M270 80v392M298 80v392M354 80v392M382 80v392M410 80v392M438 80v392M494 80v392M522 80v392M550 80v392M578 80v392M46 108h560M46 136h560M46 164h560M46 192h560M46 248h560M46 276h560M46 304h560M46 332h560M46 388h560M46 416h560M46 444h560M46 472h560" stroke="#2e2313" stroke-width="0.5" opacity="0.16" fill="none"/>
<path d="M46 80v392M186 80v392M326 80v392M466 80v392M606 80v392M46 80h560M46 220h560M46 360h560" stroke="#2e2313" stroke-width="1.2" opacity="0.28" fill="none"/>
<ellipse cx="312.0" cy="100.0" rx="7.5" ry="2.8" fill="#241c10" opacity="0.14"/>
<text x="312.0" y="100.0" font-size="17" text-anchor="middle">🚪</text>
<ellipse cx="340.0" cy="100.0" rx="7.5" ry="2.8" fill="#241c10" opacity="0.14"/>
<text x="340.0" y="100.0" font-size="17" text-anchor="middle">🚪</text>
<ellipse cx="312.0" cy="128.0" rx="7.5" ry="2.8" fill="#241c10" opacity="0.14"/>
<text x="312.0" y="128.0" font-size="17" text-anchor="middle">🚪</text>
<ellipse cx="340.0" cy="128.0" rx="7.5" ry="2.8" fill="#241c10" opacity="0.14"/>
<text x="340.0" y="128.0" font-size="17" text-anchor="middle">🚪</text>
<ellipse cx="200.0" cy="156.0" rx="7.5" ry="2.8" fill="#241c10" opacity="0.14"/>
<text x="200.0" y="156.0" font-size="17" text-anchor="middle">🏮</text>
<ellipse cx="452.0" cy="156.0" rx="7.5" ry="2.8" fill="#241c10" opacity="0.14"/>
<text x="452.0" y="156.0" font-size="17" text-anchor="middle">🏮</text>
<ellipse cx="536.0" cy="156.0" rx="7.5" ry="2.8" fill="#241c10" opacity="0.14"/>
<text x="536.0" y="156.0" font-size="17" text-anchor="middle">🏮</text>
<ellipse cx="200.0" cy="184.0" rx="7.5" ry="2.8" fill="#241c10" opacity="0.14"/>
<text x="200.0" y="184.0" font-size="17" text-anchor="middle">🏮</text>
<ellipse cx="452.0" cy="184.0" rx="7.5" ry="2.8" fill="#241c10" opacity="0.14"/>
<text x="452.0" y="184.0" font-size="17" text-anchor="middle">🏮</text>
<ellipse cx="536.0" cy="184.0" rx="7.5" ry="2.8" fill="#241c10" opacity="0.14"/>
<text x="536.0" y="184.0" font-size="17" text-anchor="middle">🏮</text>
<ellipse cx="144.0" cy="212.0" rx="7.5" ry="2.8" fill="#241c10" opacity="0.14"/>
<text x="144.0" y="212.0" font-size="17" text-anchor="middle">🏮</text>
<ellipse cx="508.0" cy="212.0" rx="7.5" ry="2.8" fill="#241c10" opacity="0.14"/>
<text x="508.0" y="212.0" font-size="17" text-anchor="middle">🏮</text>
<ellipse cx="536.0" cy="212.0" rx="7.5" ry="2.8" fill="#241c10" opacity="0.14"/>
<text x="536.0" y="212.0" font-size="17" text-anchor="middle">🏮</text>
<ellipse cx="144.0" cy="240.0" rx="7.5" ry="2.8" fill="#241c10" opacity="0.14"/>
<text x="144.0" y="240.0" font-size="17" text-anchor="middle">🏮</text>
<ellipse cx="229.4" cy="236.2" rx="10.36" ry="8.495199999999999" fill="#241c10" opacity="0.3"/>
<circle cx="228.0" cy="234.0" r="10.36" fill="url(#g_d62828)" stroke="#241c10" stroke-width="1.6"/>
<circle cx="228.0" cy="234.0" r="7.959999999999999" fill="none" stroke="#ffffff" stroke-width="0.9" opacity="0.55"/>
<ellipse cx="453.4" cy="236.2" rx="10.36" ry="8.495199999999999" fill="#241c10" opacity="0.3"/>
<circle cx="452.0" cy="234.0" r="10.36" fill="url(#g_d62828)" stroke="#241c10" stroke-width="1.6"/>
<circle cx="452.0" cy="234.0" r="7.959999999999999" fill="none" stroke="#ffffff" stroke-width="0.9" opacity="0.55"/>
<ellipse cx="508.0" cy="240.0" rx="7.5" ry="2.8" fill="#241c10" opacity="0.14"/>
<text x="508.0" y="240.0" font-size="17" text-anchor="middle">🏮</text>
<ellipse cx="536.0" cy="240.0" rx="7.5" ry="2.8" fill="#241c10" opacity="0.14"/>
<text x="536.0" y="240.0" font-size="17" text-anchor="middle">🏮</text>
<ellipse cx="144.0" cy="268.0" rx="7.5" ry="2.8" fill="#241c10" opacity="0.14"/>
<text x="144.0" y="268.0" font-size="17" text-anchor="middle">🏮</text>
<ellipse cx="508.0" cy="268.0" rx="7.5" ry="2.8" fill="#241c10" opacity="0.14"/>
<text x="508.0" y="268.0" font-size="17" text-anchor="middle">🏮</text>
<ellipse cx="536.0" cy="268.0" rx="7.5" ry="2.8" fill="#241c10" opacity="0.14"/>
<text x="536.0" y="268.0" font-size="17" text-anchor="middle">🏮</text>
<ellipse cx="144.0" cy="296.0" rx="7.5" ry="2.8" fill="#241c10" opacity="0.14"/>
<text x="144.0" y="296.0" font-size="17" text-anchor="middle">🏮</text>
<ellipse cx="508.0" cy="296.0" rx="7.5" ry="2.8" fill="#241c10" opacity="0.14"/>
<text x="508.0" y="296.0" font-size="17" text-anchor="middle">🏮</text>
<ellipse cx="536.0" cy="296.0" rx="7.5" ry="2.8" fill="#241c10" opacity="0.14"/>
<text x="536.0" y="296.0" font-size="17" text-anchor="middle">🏮</text>
<ellipse cx="144.0" cy="324.0" rx="7.5" ry="2.8" fill="#241c10" opacity="0.14"/>
<text x="144.0" y="324.0" font-size="17" text-anchor="middle">🏮</text>
<ellipse cx="508.0" cy="324.0" rx="7.5" ry="2.8" fill="#241c10" opacity="0.14"/>
<text x="508.0" y="324.0" font-size="17" text-anchor="middle">🏮</text>
<ellipse cx="536.0" cy="324.0" rx="7.5" ry="2.8" fill="#241c10" opacity="0.14"/>
<text x="536.0" y="324.0" font-size="17" text-anchor="middle">🏮</text>
<ellipse cx="144.0" cy="352.0" rx="7.5" ry="2.8" fill="#241c10" opacity="0.14"/>
<text x="144.0" y="352.0" font-size="17" text-anchor="middle">🏮</text>
<ellipse cx="312.0" cy="352.0" rx="7.5" ry="2.8" fill="#241c10" opacity="0.14"/>
<text x="312.0" y="352.0" font-size="17" text-anchor="middle">👑</text>
<ellipse cx="340.0" cy="352.0" rx="7.5" ry="2.8" fill="#241c10" opacity="0.14"/>
<text x="340.0" y="352.0" font-size="17" text-anchor="middle">👑</text>
<ellipse cx="508.0" cy="352.0" rx="7.5" ry="2.8" fill="#241c10" opacity="0.14"/>
<text x="508.0" y="352.0" font-size="17" text-anchor="middle">🏮</text>
<ellipse cx="536.0" cy="352.0" rx="7.5" ry="2.8" fill="#241c10" opacity="0.14"/>
<text x="536.0" y="352.0" font-size="17" text-anchor="middle">🏮</text>
<ellipse cx="200.0" cy="380.0" rx="7.5" ry="2.8" fill="#241c10" opacity="0.14"/>
<text x="200.0" y="380.0" font-size="17" text-anchor="middle">🏮</text>
<ellipse cx="452.0" cy="380.0" rx="7.5" ry="2.8" fill="#241c10" opacity="0.14"/>
<text x="452.0" y="380.0" font-size="17" text-anchor="middle">🏮</text>
<ellipse cx="536.0" cy="380.0" rx="7.5" ry="2.8" fill="#241c10" opacity="0.14"/>
<text x="536.0" y="380.0" font-size="17" text-anchor="middle">🏮</text>
<ellipse cx="200.0" cy="408.0" rx="7.5" ry="2.8" fill="#241c10" opacity="0.14"/>
<text x="200.0" y="408.0" font-size="17" text-anchor="middle">🏮</text>
<ellipse cx="452.0" cy="408.0" rx="7.5" ry="2.8" fill="#241c10" opacity="0.14"/>
<text x="452.0" y="408.0" font-size="17" text-anchor="middle">🏮</text>
<ellipse cx="536.0" cy="408.0" rx="7.5" ry="2.8" fill="#241c10" opacity="0.14"/>
<text x="536.0" y="408.0" font-size="17" text-anchor="middle">🏮</text>
<ellipse cx="144.0" cy="436.0" rx="7.5" ry="2.8" fill="#241c10" opacity="0.14"/>
<text x="144.0" y="436.0" font-size="17" text-anchor="middle">🏮</text>
<ellipse cx="172.0" cy="436.0" rx="7.5" ry="2.8" fill="#241c10" opacity="0.14"/>
<text x="172.0" y="436.0" font-size="17" text-anchor="middle">🏮</text>
<ellipse cx="200.0" cy="436.0" rx="7.5" ry="2.8" fill="#241c10" opacity="0.14"/>
<text x="200.0" y="436.0" font-size="17" text-anchor="middle">🏮</text>
<ellipse cx="341.4" cy="432.2" rx="10.36" ry="8.495199999999999" fill="#241c10" opacity="0.3"/>
<circle cx="340.0" cy="430.0" r="10.36" fill="url(#g_d62828)" stroke="#241c10" stroke-width="1.6"/>
<circle cx="340.0" cy="430.0" r="7.959999999999999" fill="none" stroke="#ffffff" stroke-width="0.9" opacity="0.55"/>
<ellipse cx="452.0" cy="436.0" rx="7.5" ry="2.8" fill="#241c10" opacity="0.14"/>
<text x="452.0" y="436.0" font-size="17" text-anchor="middle">🏮</text>
<ellipse cx="480.0" cy="436.0" rx="7.5" ry="2.8" fill="#241c10" opacity="0.14"/>
<text x="480.0" y="436.0" font-size="17" text-anchor="middle">🏮</text>
<ellipse cx="508.0" cy="436.0" rx="7.5" ry="2.8" fill="#241c10" opacity="0.14"/>
<text x="508.0" y="436.0" font-size="17" text-anchor="middle">🏮</text>
<ellipse cx="536.0" cy="436.0" rx="7.5" ry="2.8" fill="#241c10" opacity="0.14"/>
<text x="536.0" y="436.0" font-size="17" text-anchor="middle">🏮</text>
<ellipse cx="312.0" cy="464.0" rx="7.5" ry="2.8" fill="#241c10" opacity="0.14"/>
<text x="312.0" y="464.0" font-size="17" text-anchor="middle">🚪</text>
<ellipse cx="340.0" cy="464.0" rx="7.5" ry="2.8" fill="#241c10" opacity="0.14"/>
<text x="340.0" y="464.0" font-size="17" text-anchor="middle">🚪</text>
<text x="60.0" y="72" font-size="10" text-anchor="middle" fill="#7a6a50">A</text>
<text x="88.0" y="72" font-size="10" text-anchor="middle" fill="#7a6a50">B</text>
<text x="116.0" y="72" font-size="10" text-anchor="middle" fill="#7a6a50">C</text>
<text x="144.0" y="72" font-size="10" text-anchor="middle" fill="#7a6a50">D</text>
<text x="172.0" y="72" font-size="10" text-anchor="middle" fill="#7a6a50">E</text>
<text x="200.0" y="72" font-size="10" text-anchor="middle" fill="#7a6a50">F</text>
<text x="228.0" y="72" font-size="10" text-anchor="middle" fill="#7a6a50">G</text>
<text x="256.0" y="72" font-size="10" text-anchor="middle" fill="#7a6a50">H</text>
<text x="284.0" y="72" font-size="10" text-anchor="middle" fill="#7a6a50">I</text>
<text x="312.0" y="72" font-size="10" text-anchor="middle" fill="#7a6a50">J</text>
<text x="340.0" y="72" font-size="10" text-anchor="middle" fill="#7a6a50">K</text>
<text x="368.0" y="72" font-size="10" text-anchor="middle" fill="#7a6a50">L</text>
<text x="396.0" y="72" font-size="10" text-anchor="middle" fill="#7a6a50">M</text>
<text x="424.0" y="72" font-size="10" text-anchor="middle" fill="#7a6a50">N</text>
<text x="452.0" y="72" font-size="10" text-anchor="middle" fill="#7a6a50">O</text>
<text x="480.0" y="72" font-size="10" text-anchor="middle" fill="#7a6a50">P</text>
<text x="508.0" y="72" font-size="10" text-anchor="middle" fill="#7a6a50">Q</text>
<text x="536.0" y="72" font-size="10" text-anchor="middle" fill="#7a6a50">R</text>
<text x="564.0" y="72" font-size="10" text-anchor="middle" fill="#7a6a50">S</text>
<text x="592.0" y="72" font-size="10" text-anchor="middle" fill="#7a6a50">T</text>
<text x="37" y="97.0" font-size="10" text-anchor="end" fill="#7a6a50">01</text>
<text x="37" y="125.0" font-size="10" text-anchor="end" fill="#7a6a50">02</text>
<text x="37" y="153.0" font-size="10" text-anchor="end" fill="#7a6a50">03</text>
<text x="37" y="181.0" font-size="10" text-anchor="end" fill="#7a6a50">04</text>
<text x="37" y="209.0" font-size="10" text-anchor="end" fill="#7a6a50">05</text>
<text x="37" y="237.0" font-size="10" text-anchor="end" fill="#7a6a50">06</text>
<text x="37" y="265.0" font-size="10" text-anchor="end" fill="#7a6a50">07</text>
<text x="37" y="293.0" font-size="10" text-anchor="end" fill="#7a6a50">08</text>
<text x="37" y="321.0" font-size="10" text-anchor="end" fill="#7a6a50">09</text>
<text x="37" y="349.0" font-size="10" text-anchor="end" fill="#7a6a50">10</text>
<text x="37" y="377.0" font-size="10" text-anchor="end" fill="#7a6a50">11</text>
<text x="37" y="405.0" font-size="10" text-anchor="end" fill="#7a6a50">12</text>
<text x="37" y="433.0" font-size="10" text-anchor="end" fill="#7a6a50">13</text>
<text x="37" y="461.0" font-size="10" text-anchor="end" fill="#7a6a50">14</text>
<rect x="46" y="491" width="28" height="7" fill="#3b2e1e" stroke="#3b2e1e" stroke-width="1"/>
<rect x="74" y="491" width="28" height="7" fill="#efe4c9" stroke="#3b2e1e" stroke-width="1"/>
<rect x="102" y="491" width="28" height="7" fill="#3b2e1e" stroke="#3b2e1e" stroke-width="1"/>
<rect x="130" y="491" width="28" height="7" fill="#efe4c9" stroke="#3b2e1e" stroke-width="1"/>
<rect x="158" y="491" width="28" height="7" fill="#3b2e1e" stroke="#3b2e1e" stroke-width="1"/>
<text x="196" y="499" font-size="11" fill="#3b2e1e">7,5 m (5 quadretti)</text>
<text x="46" y="528" font-size="12" font-weight="bold" fill="#3b2e1e" letter-spacing="2">LEGENDA</text>
<path d="M120 524H606" stroke="#7a6a50" stroke-width="0.7" opacity="0.7"/>
<rect x="46" y="534" width="19" height="15" fill="url(#t_struct)" stroke="#7a6a50" stroke-width="0.7"/>
<text x="73" y="546" font-size="11" fill="#3b2e1e">⬛ — Struttura (tenda, edificio, dais)</text>
<text x="46" y="568" font-size="14">🏮</text>
<text x="73" y="568" font-size="11" fill="#3b2e1e">🏮 — Braciere / fonte di luce</text>
<rect x="46" y="578" width="19" height="15" fill="url(#t_wall)" stroke="#7a6a50" stroke-width="0.7"/>
<text x="73" y="590" font-size="11" fill="#3b2e1e">🏰 — Muro / roccia solida</text>
<text x="46" y="612" font-size="14">👑</text>
<text x="73" y="612" font-size="11" fill="#3b2e1e">👑 — Trono / Corona</text>
<circle cx="55" cy="630" r="7.5" fill="url(#g_d62828)" stroke="#241c10" stroke-width="1.2"/>
<text x="73" y="634" font-size="11" fill="#3b2e1e">🔴 — Nemico standard</text>
<text x="46" y="656" font-size="14">🚪</text>
<text x="73" y="656" font-size="11" fill="#3b2e1e">🚪 — Porta / ingresso</text>
<rect x="46" y="666" width="19" height="15" fill="url(#t_grass)" stroke="#7a6a50" stroke-width="0.7"/>
<text x="73" y="678" font-size="11" fill="#3b2e1e">🟩 — Pianura / area aperta</text>
<rect x="46" y="688" width="19" height="15" fill="url(#t_pillar)" stroke="#7a6a50" stroke-width="0.7"/>
<text x="73" y="700" font-size="11" fill="#3b2e1e">🟪 — Pilastro / mithral</text>
<text x="46" y="732" font-size="9" font-style="italic" fill="#7a6a50">fonte: Portale-Forgia-L1-REVISED-UltraClear.md · SVG generato da scripts/render_map_svg.py (stile pergamena) — non modificare a mano</text>
</svg>