<svg xmlns="http://www.w3.org/2000/svg" width="876" height="1196" viewBox="0 0 876 1196" font-family="Georgia, 'Palatino Linotype', 'Times New Roman', serif">
<defs>
<filter id="grain" x="0" y="0" width="100%" height="100%"><feTurbulence type="fractalNoise" baseFrequency="0.8" numOctaves="2" seed="11" stitchTiles="stitch"/><feColorMatrix type="matrix" values="0 0 0 0 0.36 0 0 0 0 0.28 0 0 0 0 0.16 0 0 0 0.18 0"/><feComposite operator="over" in2="SourceGraphic"/></filter>
<filter id="rough" x="-5%" y="-5%" width="110%" height="110%"><feTurbulence type="fractalNoise" baseFrequency="0.045" numOctaves="2" seed="7" result="n"/><feDisplacementMap in="SourceGraphic" in2="n" scale="2.6"/></filter>
<filter id="softblur" x="-20%" y="-20%" width="140%" height="140%"><feGaussianBlur stdDeviation="1.6"/></filter>
<radialGradient id="vign" cx="0.5" cy="0.45" r="0.75"><stop offset="0.62" stop-color="#3b2e1e" stop-opacity="0"/><stop offset="1" stop-color="#3b2e1e" stop-opacity="0.16"/></radialGradient>
<pattern id="t_earth" width="28" height="28" patternUnits="userSpaceOnUse"><rect width="28" height="28" fill="#b08d68"/><circle cx="6" cy="6" r="1.1" fill="#93714e"/><circle cx="18" cy="11" r="0.9" fill="#93714e"/><circle cx="24" cy="22" r="1.2" fill="#93714e"/><circle cx="9" cy="20" r="1" fill="#c8a87f"/><circle cx="22" cy="4" r="0.8" fill="#c8a87f"/><path d="M3 15q4-1.5 8 0" stroke="#a17d59" stroke-width="0.8" fill="none"/></pattern>
<pattern id="t_floor" width="28" height="28" patternUnits="userSpaceOnUse"><rect width="28" height="28" fill="#d8cdb4"/><path d="M0 0.5h28M0 14.5h28M7 0.5v14M21 14.5v14" stroke="#b4a789" stroke-width="1"/><circle cx="15" cy="8" r="2.4" fill="#cfc3a9" fill-opacity="0.6"/><circle cx="6" cy="22" r="2" fill="#cfc3a9" fill-opacity="0.5"/></pattern>
<pattern id="t_grass" width="28" height="28" patternUnits="userSpaceOnUse"><rect width="28" height="28" fill="#b3c489"/><path d="M5 21q1.5-4 3-5M8 21q0-3 2-5M20 8q1.5-2.5 3-3.5" stroke="#94a76a" stroke-width="0.9" stroke-opacity="0.6" fill="none" stroke-linecap="round"/><circle cx="14" cy="16" r="0.9" fill="#c5d29b"/><circle cx="24" cy="24" r="0.8" fill="#c5d29b"/><circle cx="4" cy="7" r="0.8" fill="#a3b573"/><circle cx="25" cy="13" r="0.7" fill="#a3b573"/></pattern>
<pattern id="t_lethal" width="28" height="28" patternUnits="userSpaceOnUse"><rect width="28" height="28" fill="#b94a3c"/><path d="M-2 8L8-2M6 30L30 6M20 34L34 20" stroke="#93392e" stroke-width="2" stroke-opacity="0.7"/><circle cx="14" cy="18" r="1" fill="#d9776a"/></pattern>
<radialGradient id="g_1d6fd8" cx="0.35" cy="0.3" r="0.8"><stop offset="0" stop-color="#83b0ea"/><stop offset="0.55" stop-color="#1d6fd8"/><stop offset="1" stop-color="#13488c"/></radialGradient>
</defs>
<rect width="876" height="1196" fill="#efe4c9" filter="url(#grain)"/>
<rect width="876" height="1196" fill="url(#vign)"/>
<rect x="5" y="5" width="866" height="1186" fill="none" stroke="#3b2e1e" stroke-width="0.8" opacity="0.8"/>
<rect x="9" y="9" width="858" height="1178" fill="none" stroke="#3b2e1e" stroke-width="2" opacity="0.85"/>
<text x="46" y="34" font-size="19" font-weight="bold" fill="#3b2e1e" letter-spacing="0.5">A  B  C  D  E  F  G  H  I  J  K  L  M  N  O  P  Q  R  S  T  U  V  W  X  Y  Z AA AB</text>
<text x="46" y="51" font-size="11" font-style="italic" fill="#7a6a50">28×30 quadretti · scala 1,5 m/quadretto</text>
<rect x="41" y="75" width="794" height="850" fill="#e6d9b8" stroke="#3b2e1e" stroke-width="1.6"/>
<path d="M46 192h336v28h-336zM494 192h28v28h-28zM46 220h364v28h-364zM494 220h56v28h-56zM46 248h336v28h-336zM494 248h56v28h-56z" fill="url(#t_earth)"/>
<path d="M606 612h56v28h-56zM606 640h56v28h-56zM578 668h112v28h-112zM578 696h140v28h-140zM606 724h112v28h-112zM606 752h112v28h-112zM606 780h112v28h-112zM606 808h112v28h-112zM634 836h56v28h-56z" fill="url(#t_floor)"/>
<path d="M46 80h784v28h-784zM46 108h784v28h-784zM46 136h784v28h-784zM46 164h784v28h-784zM382 192h112v28h-112zM522 192h308v28h-308zM410 220h84v28h-84zM550 220h280v28h-280zM382 248h112v28h-112zM550 248h280v28h-280zM46 276h784v28h-784zM46 304h784v28h-784zM46 332h784v28h-784zM46 360h784v28h-784zM46 388h784v28h-784zM46 416h784v28h-784zM46 444h784v28h-784zM46 472h784v28h-784zM46 500h784v28h-784zM46 528h784v28h-784zM46 556h784v28h-784zM46 584h784v28h-784zM46 612h560v28h-560zM690 612h140v28h-140zM46 640h560v28h-560zM718 640h112v28h-112zM46 668h532v28h-532zM746 668h84v28h-84zM46 696h532v28h-532zM774 696h56v28h-56zM46 724h560v28h-560zM802 724h28v28h-28zM46 752h560v28h-560zM802 752h28v28h-28zM46 780h560v28h-560zM774 780h56v28h-56zM46 808h560v28h-560zM774 808h56v28h-56zM46 836h588v28h-588zM774 836h56v28h-56zM46 864h784v28h-784zM46 892h784v28h-784z" fill="url(#t_grass)"/>
<path d="M662 612h28v28h-28zM662 640h56v28h-56zM690 668h56v28h-56zM718 696h56v28h-56zM718 724h84v28h-84zM718 752h84v28h-84zM718 780h56v28h-56zM718 808h56v28h-56zM690 836h84v28h-84z" fill="url(#t_lethal)"/>
<path d="M46 80v840M382 192v28M382 248v28M410 220v28M494 192v84M522 192v28M550 220v56M578 668v56M606 612v56M606 724v112M634 836v28M662 612v56M690 612v28M690 668v28M690 836v28M718 640v28M718 696v140M746 668v28M774 696v28M774 780v84M802 724v56M830 80v840M46 80h784M46 192h336M494 192h28M382 220h28M522 220h28M382 248h28M46 276h336M494 276h56M606 612h84M690 640h28M578 668h28M662 668h28M718 668h28M690 696h28M746 696h28M578 724h28M774 724h28M774 780h28M606 836h28M690 836h28M634 864h140M46 920h784" fill="none" stroke="#7a6a50" stroke-width="0.9" opacity="0.5" stroke-linecap="round" filter="url(#rough)"/>
<path d="M74 80v840M102 80v840M130 80v840M158 80v840M214 80v840M242 80v840M270 80v840M298 80v840M354 80v840M382 80v840M410 80v840M438 80v840M494 80v840M522 80v840M550 80v840M578 80v840M634 80v840M662 80v840M690 80v840M718 80v840M774 80v840M802 80v840M830 80v840M46 108h784M46 136h784M46 164h784M46 192h784M46 248h784M46 276h784M46 304h784M46 332h784M46 388h784M46 416h784M46 444h784M46 472h784M46 528h784M46 556h784M46 584h784M46 612h784M46 668h784M46 696h784M46 724h784M46 752h784M46 808h784M46 836h784M46 864h784M46 892h784" stroke="#2e2313" stroke-width="0.5" opacity="0.16" fill="none"/>
<path d="M46 80v840M186 80v840M326 80v840M466 80v840M606 80v840M746 80v840M46 80h784M46 220h784M46 360h784M46 500h784M46 640h784M46 780h784M46 920h784" stroke="#2e2313" stroke-width="1.2" opacity="0.28" fill="none"/>
<ellipse cx="60.0" cy="100.0" rx="7.5" ry="2.8" fill="#241c10" opacity="0.14"/>
<text x="60.0" y="100.0" font-size="17" text-anchor="middle">⛰</text>
<ellipse cx="88.0" cy="100.0" rx="7.5" ry="2.8" fill="#241c10" opacity="0.14"/>
<text x="88.0" y="100.0" font-size="17" text-anchor="middle">⛰</text>
<ellipse cx="116.0" cy="100.0" rx="7.5" ry="2.8" fill="#241c10" opacity="0.14"/>
<text x="116.0" y="100.0" font-size="17" text-anchor="middle">⛰</text>
<ellipse cx="144.0" cy="100.0" rx="7.5" ry="2.8" fill="#241c10" opacity="0.14"/>
<text x="144.0" y="100.0" font-size="17" text-anchor="middle">⛰</text>
<ellipse cx="172.0" cy="100.0" rx="7.5" ry="2.8" fill="#241c10" opacity="0.14"/>
<text x="172.0" y="100.0" font-size="17" text-anchor="middle">⛰</text>
<ellipse cx="200.0" cy="100.0" rx="7.5" ry="2.8" fill="#241c10" opacity="0.14"/>
<text x="200.0" y="100.0" font-size="17" text-anchor="middle">⛰</text>
<ellipse cx="228.0" cy="100.0" rx="7.5" ry="2.8" fill="#241c10" opacity="0.14"/>
<text x="228.0" y="100.0" font-size="17" text-anchor="middle">⛰</text>
<ellipse cx="256.0" cy="100.0" rx="7.5" ry="2.8" fill="#241c10" opacity="0.14"/>
<text x="256.0" y="100.0" font-size="17" text-anchor="middle">⛰</text>
<ellipse cx="284.0" cy="100.0" rx="7.5" ry="2.8" fill="#241c10" opacity="0.14"/>
<text x="284.0" y="100.0" font-size="17" text-anchor="middle">⛰</text>
<ellipse cx="312.0" cy="100.0" rx="7.5" ry="2.8" fill="#241c10" opacity="0.14"/>
<text x="312.0" y="100.0" font-size="17" text-anchor="middle">⛰</text>
<ellipse cx="396.0" cy="100.0" rx="7.5" ry="2.8" fill="#241c10" opacity="0.14"/>
<text x="396.0" y="100.0" font-size="17" text-anchor="middle">🗼</text>
<ellipse cx="424.0" cy="100.0" rx="7.5" ry="2.8" fill="#241c10" opacity="0.14"/>
<text x="424.0" y="100.0" font-size="17" text-anchor="middle">🗼</text>
<ellipse cx="452.0" cy="100.0" rx="7.5" ry="2.8" fill="#241c10" opacity="0.14"/>
<text x="452.0" y="100.0" font-size="17" text-anchor="middle">🗼</text>
<ellipse cx="480.0" cy="100.0" rx="7.5" ry="2.8" fill="#241c10" opacity="0.14"/>
<text x="480.0" y="100.0" font-size="17" text-anchor="middle">🗼</text>
<ellipse cx="60.0" cy="128.0" rx="7.5" ry="2.8" fill="#241c10" opacity="0.14"/>
<text x="60.0" y="128.0" font-size="17" text-anchor="middle">⛰</text>
<ellipse cx="88.0" cy="128.0" rx="7.5" ry="2.8" fill="#241c10" opacity="0.14"/>
<text x="88.0" y="128.0" font-size="17" text-anchor="middle">⛰</text>
<ellipse cx="116.0" cy="128.0" rx="7.5" ry="2.8" fill="#241c10" opacity="0.14"/>
<text x="116.0" y="128.0" font-size="17" text-anchor="middle">⛰</text>
<ellipse cx="144.0" cy="128.0" rx="7.5" ry="2.8" fill="#241c10" opacity="0.14"/>
<text x="144.0" y="128.0" font-size="17" text-anchor="middle">⛰</text>
<ellipse cx="172.0" cy="128.0" rx="7.5" ry="2.8" fill="#241c10" opacity="0.14"/>
<text x="172.0" y="128.0" font-size="17" text-anchor="middle">⛰</text>
<ellipse cx="200.0" cy="128.0" rx="7.5" ry="2.8" fill="#241c10" opacity="0.14"/>
<text x="200.0" y="128.0" font-size="17" text-anchor="middle">⛰</text>
<ellipse cx="228.0" cy="128.0" rx="7.5" ry="2.8" fill="#241c10" opacity="0.14"/>
<text x="228.0" y="128.0" font-size="17" text-anchor="middle">⛰</text>
<ellipse cx="256.0" cy="128.0" rx="7.5" ry="2.8" fill="#241c10" opacity="0.14"/>
<text x="256.0" y="128.0" font-size="17" text-anchor="middle">⛰</text>
<ellipse cx="284.0" cy="128.0" rx="7.5" ry="2.8" fill="#241c10" opacity="0.14"/>
<text x="284.0" y="128.0" font-size="17" text-anchor="middle">⛰</text>
<ellipse cx="312.0" cy="128.0" rx="7.5" ry="2.8" fill="#241c10" opacity="0.14"/>
<text x="312.0" y="128.0" font-size="17" text-anchor="middle">⛰</text>
<ellipse cx="396.0" cy="128.0" rx="7.5" ry="2.8" fill="#241c10" opacity="0.14"/>
<text x="396.0" y="128.0" font-size="17" text-anchor="middle">🗼</text>
<ellipse cx="424.0" cy="128.0" rx="7.5" ry="2.8" fill="#241c10" opacity="0.14"/>
<text x="424.0" y="128.0" font-size="17" text-anchor="middle">🗼</text>
<ellipse cx="452.0" cy="128.0" rx="7.5" ry="2.8" fill="#241c10" opacity="0.14"/>
<text x="452.0" y="128.0" font-size="17" text-anchor="middle">🗼</text>
<ellipse cx="480.0" cy="128.0" rx="7.5" ry="2.8" fill="#241c10" opacity="0.14"/>
<text x="480.0" y="128.0" font-size="17" text-anchor="middle">🗼</text>
<ellipse cx="60.0" cy="156.0" rx="7.5" ry="2.8" fill="#241c10" opacity="0.14"/>
<text x="60.0" y="156.0" font-size="17" text-anchor="middle">⛰</text>
<ellipse cx="88.0" cy="156.0" rx="7.5" ry="2.8" fill="#241c10" opacity="0.14"/>
<text x="88.0" y="156.0" font-size="17" text-anchor="middle">⛰</text>
<ellipse cx="116.0" cy="156.0" rx="7.5" ry="2.8" fill="#241c10" opacity="0.14"/>
<text x="116.0" y="156.0" font-size="17" text-anchor="middle">⛰</text>
<ellipse cx="144.0" cy="156.0" rx="7.5" ry="2.8" fill="#241c10" opacity="0.14"/>
<text x="144.0" y="156.0" font-size="17" text-anchor="middle">⛰</text>
<ellipse cx="172.0" cy="156.0" rx="7.5" ry="2.8" fill="#241c10" opacity="0.14"/>
<text x="172.0" y="156.0" font-size="17" text-anchor="middle">⛰</text>
<ellipse cx="200.0" cy="156.0" rx="7.5" ry="2.8" fill="#241c10" opacity="0.14"/>
<text x="200.0" y="156.0" font-size="17" text-anchor="middle">⛰</text>
<ellipse cx="228.0" cy="156.0" rx="7.5" ry="2.8" fill="#241c10" opacity="0.14"/>
<text x="228.0" y="156.0" font-size="17" text-anchor="middle">⛰</text>
<ellipse cx="256.0" cy="156.0" rx="7.5" ry="2.8" fill="#241c10" opacity="0.14"/>
<text x="256.0" y="156.0" font-size="17" text-anchor="middle">⛰</text>
<ellipse cx="284.0" cy="156.0" rx="7.5" ry="2.8" fill="#241c10" opacity="0.14"/>
<text x="284.0" y="156.0" font-size="17" text-anchor="middle">⛰</text>
<ellipse cx="313.4" cy="152.2" rx="10.36" ry="8.495199999999999" fill="#241c10" opacity="0.3"/>
<circle cx="312.0" cy="150.0" r="10.36" fill="url(#g_1d6fd8)" stroke="#241c10" stroke-width="1.6"/>
<circle cx="312.0" cy="150.0" r="7.959999999999999" fill="none" stroke="#ffffff" stroke-width="0.9" opacity="0.55"/>
<ellipse cx="396.0" cy="156.0" rx="7.5" ry="2.8" fill="#241c10" opacity="0.14"/>
<text x="396.0" y="156.0" font-size="17" text-anchor="middle">🗼</text>
<ellipse cx="424.0" cy="156.0" rx="7.5" ry="2.8" fill="#241c10" opacity="0.14"/>
<text x="424.0" y="156.0" font-size="17" text-anchor="middle">🗼</text>
<ellipse cx="452.0" cy="156.0" rx="7.5" ry="2.8" fill="#241c10" opacity="0.14"/>
<text x="452.0" y="156.0" font-size="17" text-anchor="middle">🗼</text>
<ellipse cx="480.0" cy="156.0" rx="7.5" ry="2.8" fill="#241c10" opacity="0.14"/>
<text x="480.0" y="156.0" font-size="17" text-anchor="middle">🗼</text>
<ellipse cx="60.0" cy="184.0" rx="7.5" ry="2.8" fill="#241c10" opacity="0.14"/>
<text x="60.0" y="184.0" font-size="17" text-anchor="middle">⛰</text>
<ellipse cx="88.0" cy="184.0" rx="7.5" ry="2.8" fill="#241c10" opacity="0.14"/>
<text x="88.0" y="184.0" font-size="17" text-anchor="middle">⛰</text>
<ellipse cx="116.0" cy="184.0" rx="7.5" ry="2.8" fill="#241c10" opacity="0.14"/>
<text x="116.0" y="184.0" font-size="17" text-anchor="middle">⛰</text>
<ellipse cx="144.0" cy="184.0" rx="7.5" ry="2.8" fill="#241c10" opacity="0.14"/>
<text x="144.0" y="184.0" font-size="17" text-anchor="middle">⛰</text>
<ellipse cx="172.0" cy="184.0" rx="7.5" ry="2.8" fill="#241c10" opacity="0.14"/>
<text x="172.0" y="184.0" font-size="17" text-anchor="middle">⛰</text>
<ellipse cx="200.0" cy="184.0" rx="7.5" ry="2.8" fill="#241c10" opacity="0.14"/>
<text x="200.0" y="184.0" font-size="17" text-anchor="middle">⛰</text>
<ellipse cx="228.0" cy="184.0" rx="7.5" ry="2.8" fill="#241c10" opacity="0.14"/>
<text x="228.0" y="184.0" font-size="17" text-anchor="middle">⛰</text>
<ellipse cx="256.0" cy="184.0" rx="7.5" ry="2.8" fill="#241c10" opacity="0.14"/>
<text x="256.0" y="184.0" font-size="17" text-anchor="middle">⛰</text>
<ellipse cx="284.0" cy="184.0" rx="7.5" ry="2.8" fill="#241c10" opacity="0.14"/>
<text x="284.0" y="184.0" font-size="17" text-anchor="middle">⛰</text>
<ellipse cx="312.0" cy="184.0" rx="7.5" ry="2.8" fill="#241c10" opacity="0.14"/>
<text x="312.0" y="184.0" font-size="17" text-anchor="middle">⛰</text>
<ellipse cx="396.0" cy="184.0" rx="7.5" ry="2.8" fill="#241c10" opacity="0.14"/>
<text x="396.0" y="184.0" font-size="17" text-anchor="middle">🗼</text>
<ellipse cx="424.0" cy="184.0" rx="7.5" ry="2.8" fill="#241c10" opacity="0.14"/>
<text x="424.0" y="184.0" font-size="17" text-anchor="middle">🗼</text>
<ellipse cx="452.0" cy="184.0" rx="7.5" ry="2.8" fill="#241c10" opacity="0.14"/>
<text x="452.0" y="184.0" font-size="17" text-anchor="middle">🗼</text>
<ellipse cx="480.0" cy="184.0" rx="7.5" ry="2.8" fill="#241c10" opacity="0.14"/>
<text x="480.0" y="184.0" font-size="17" text-anchor="middle">🗼</text>
<ellipse cx="60.0" cy="212.0" rx="7.5" ry="2.8" fill="#241c10" opacity="0.14"/>
<text x="60.0" y="212.0" font-size="17" text-anchor="middle">⛰</text>
<ellipse cx="88.0" cy="212.0" rx="7.5" ry="2.8" fill="#241c10" opacity="0.14"/>
<text x="88.0" y="212.0" font-size="17" text-anchor="middle">⛰</text>
<ellipse cx="116.0" cy="212.0" rx="7.5" ry="2.8" fill="#241c10" opacity="0.14"/>
<text x="116.0" y="212.0" font-size="17" text-anchor="middle">⛰</text>
<ellipse cx="144.0" cy="212.0" rx="7.5" ry="2.8" fill="#241c10" opacity="0.14"/>
<text x="144.0" y="212.0" font-size="17" text-anchor="middle">⛰</text>
<ellipse cx="172.0" cy="212.0" rx="7.5" ry="2.8" fill="#241c10" opacity="0.14"/>
<text x="172.0" y="212.0" font-size="17" text-anchor="middle">⛰</text>
<ellipse cx="200.0" cy="212.0" rx="7.5" ry="2.8" fill="#241c10" opacity="0.14"/>
<text x="200.0" y="212.0" font-size="17" text-anchor="middle">⛰</text>
<ellipse cx="228.0" cy="212.0" rx="7.5" ry="2.8" fill="#241c10" opacity="0.14"/>
<text x="228.0" y="212.0" font-size="17" text-anchor="middle">⛰</text>
<ellipse cx="256.0" cy="212.0" rx="7.5" ry="2.8" fill="#241c10" opacity="0.14"/>
<text x="256.0" y="212.0" font-size="17" text-anchor="middle">⛰</text>
<ellipse cx="284.0" cy="212.0" rx="7.5" ry="2.8" fill="#241c10" opacity="0.14"/>
<text x="284.0" y="212.0" font-size="17" text-anchor="middle">⛰</text>
<ellipse cx="312.0" cy="212.0" rx="7.5" ry="2.8" fill="#241c10" opacity="0.14"/>
<text x="312.0" y="212.0" font-size="17" text-anchor="middle">⛰</text>
<ellipse cx="60.0" cy="240.0" rx="7.5" ry="2.8" fill="#241c10" opacity="0.14"/>
<text x="60.0" y="240.0" font-size="17" text-anchor="middle">⛰</text>
<ellipse cx="88.0" cy="240.0" rx="7.5" ry="2.8" fill="#241c10" opacity="0.14"/>
<text x="88.0" y="240.0" font-size="17" text-anchor="middle">⛰</text>
<ellipse cx="116.0" cy="240.0" rx="7.5" ry="2.8" fill="#241c10" opacity="0.14"/>
<text x="116.0" y="240.0" font-size="17" text-anchor="middle">⛰</text>
<ellipse cx="144.0" cy="240.0" rx="7.5" ry="2.8" fill="#241c10" opacity="0.14"/>
<text x="144.0" y="240.0" font-size="17" text-anchor="middle">⛰</text>
<ellipse cx="172.0" cy="240.0" rx="7.5" ry="2.8" fill="#241c10" opacity="0.14"/>
<text x="172.0" y="240.0" font-size="17" text-anchor="middle">⛰</text>
<ellipse cx="200.0" cy="240.0" rx="7.5" ry="2.8" fill="#241c10" opacity="0.14"/>
<text x="200.0" y="240.0" font-size="17" text-anchor="middle">⛰</text>
<ellipse cx="228.0" cy="240.0" rx="7.5" ry="2.8" fill="#241c10" opacity="0.14"/>
<text x="228.0" y="240.0" font-size="17" text-anchor="middle">⛰</text>
<ellipse cx="256.0" cy="240.0" rx="7.5" ry="2.8" fill="#241c10" opacity="0.14"/>
<text x="256.0" y="240.0" font-size="17" text-anchor="middle">⛰</text>
<ellipse cx="284.0" cy="240.0" rx="7.5" ry="2.8" fill="#241c10" opacity="0.14"/>
<text x="284.0" y="240.0" font-size="17" text-anchor="middle">⛰</text>
<ellipse cx="312.0" cy="240.0" rx="7.5" ry="2.8" fill="#241c10" opacity="0.14"/>
<text x="312.0" y="240.0" font-size="17" text-anchor="middle">⛰</text>
<ellipse cx="397.4" cy="236.2" rx="10.36" ry="8.495199999999999" fill="#241c10" opacity="0.3"/>
<circle cx="396.0" cy="234.0" r="10.36" fill="url(#g_1d6fd8)" stroke="#241c10" stroke-width="1.6"/>
<circle cx="396.0" cy="234.0" r="7.959999999999999" fill="none" stroke="#ffffff" stroke-width="0.9" opacity="0.55"/>
<ellipse cx="60.0" cy="268.0" rx="7.5" ry="2.8" fill="#241c10" opacity="0.14"/>
<text x="60.0" y="268.0" font-size="17" text-anchor="middle">⛰</text>
<ellipse cx="88.0" cy="268.0" rx="7.5" ry="2.8" fill="#241c10" opacity="0.14"/>
<text x="88.0" y="268.0" font-size="17" text-anchor="middle">⛰</text>
<ellipse cx="116.0" cy="268.0" rx="7.5" ry="2.8" fill="#241c10" opacity="0.14"/>
<text x="116.0" y="268.0" font-size="17" text-anchor="middle">⛰</text>
<ellipse cx="144.0" cy="268.0" rx="7.5" ry="2.8" fill="#241c10" opacity="0.14"/>
<text x="144.0" y="268.0" font-size="17" text-anchor="middle">⛰</text>
<ellipse cx="172.0" cy="268.0" rx="7.5" ry="2.8" fill="#241c10" opacity="0.14"/>
<text x="172.0" y="268.0" font-size="17" text-anchor="middle">⛰</text>
<ellipse cx="200.0" cy="268.0" rx="7.5" ry="2.8" fill="#241c10" opacity="0.14"/>
<text x="200.0" y="268.0" font-size="17" text-anchor="middle">⛰</text>
<ellipse cx="228.0" cy="268.0" rx="7.5" ry="2.8" fill="#241c10" opacity="0.14"/>
<text x="228.0" y="268.0" font-size="17" text-anchor="middle">⛰</text>
<ellipse cx="256.0" cy="268.0" rx="7.5" ry="2.8" fill="#241c10" opacity="0.14"/>
<text x="256.0" y="268.0" font-size="17" text-anchor="middle">⛰</text>
<ellipse cx="284.0" cy="268.0" rx="7.5" ry="2.8" fill="#241c10" opacity="0.14"/>
<text x="284.0" y="268.0" font-size="17" text-anchor="middle">⛰</text>
<ellipse cx="312.0" cy="268.0" rx="7.5" ry="2.8" fill="#241c10" opacity="0.14"/>
<text x="312.0" y="268.0" font-size="17" text-anchor="middle">⛰</text>
<ellipse cx="60.0" cy="296.0" rx="7.5" ry="2.8" fill="#241c10" opacity="0.14"/>
<text x="60.0" y="296.0" font-size="17" text-anchor="middle">⛰</text>
<ellipse cx="88.0" cy="296.0" rx="7.5" ry="2.8" fill="#241c10" opacity="0.14"/>
<text x="88.0" y="296.0" font-size="17" text-anchor="middle">⛰</text>
<ellipse cx="116.0" cy="296.0" rx="7.5" ry="2.8" fill="#241c10" opacity="0.14"/>
<text x="116.0" y="296.0" font-size="17" text-anchor="middle">⛰</text>
<ellipse cx="144.0" cy="296.0" rx="7.5" ry="2.8" fill="#241c10" opacity="0.14"/>
<text x="144.0" y="296.0" font-size="17" text-anchor="middle">⛰</text>
<ellipse cx="172.0" cy="296.0" rx="7.5" ry="2.8" fill="#241c10" opacity="0.14"/>
<text x="172.0" y="296.0" font-size="17" text-anchor="middle">⛰</text>
<ellipse cx="200.0" cy="296.0" rx="7.5" ry="2.8" fill="#241c10" opacity="0.14"/>
<text x="200.0" y="296.0" font-size="17" text-anchor="middle">⛰</text>
<ellipse cx="228.0" cy="296.0" rx="7.5" ry="2.8" fill="#241c10" opacity="0.14"/>
<text x="228.0" y="296.0" font-size="17" text-anchor="middle">⛰</text>
<ellipse cx="256.0" cy="296.0" rx="7.5" ry="2.8" fill="#241c10" opacity="0.14"/>
<text x="256.0" y="296.0" font-size="17" text-anchor="middle">⛰</text>
<ellipse cx="284.0" cy="296.0" rx="7.5" ry="2.8" fill="#241c10" opacity="0.14"/>
<text x="284.0" y="296.0" font-size="17" text-anchor="middle">⛰</text>
<ellipse cx="312.0" cy="296.0" rx="7.5" ry="2.8" fill="#241c10" opacity="0.14"/>
<text x="312.0" y="296.0" font-size="17" text-anchor="middle">⛰</text>
<ellipse cx="60.0" cy="324.0" rx="7.5" ry="2.8" fill="#241c10" opacity="0.14"/>
<text x="60.0" y="324.0" font-size="17" text-anchor="middle">⛰</text>
<ellipse cx="88.0" cy="324.0" rx="7.5" ry="2.8" fill="#241c10" opacity="0.14"/>
<text x="88.0" y="324.0" font-size="17" text-anchor="middle">⛰</text>
<ellipse cx="116.0" cy="324.0" rx="7.5" ry="2.8" fill="#241c10" opacity="0.14"/>
<text x="116.0" y="324.0" font-size="17" text-anchor="middle">⛰</text>
<ellipse cx="144.0" cy="324.0" rx="7.5" ry="2.8" fill="#241c10" opacity="0.14"/>
<text x="144.0" y="324.0" font-size="17" text-anchor="middle">⛰</text>
<ellipse cx="172.0" cy="324.0" rx="7.5" ry="2.8" fill="#241c10" opacity="0.14"/>
<text x="172.0" y="324.0" font-size="17" text-anchor="middle">⛰</text>
<ellipse cx="200.0" cy="324.0" rx="7.5" ry="2.8" fill="#241c10" opacity="0.14"/>
<text x="200.0" y="324.0" font-size="17" text-anchor="middle">⛰</text>
<ellipse cx="228.0" cy="324.0" rx="7.5" ry="2.8" fill="#241c10" opacity="0.14"/>
<text x="228.0" y="324.0" font-size="17" text-anchor="middle">⛰</text>
<ellipse cx="256.0" cy="324.0" rx="7.5" ry="2.8" fill="#241c10" opacity="0.14"/>
<text x="256.0" y="324.0" font-size="17" text-anchor="middle">⛰</text>
<ellipse cx="284.0" cy="324.0" rx="7.5" ry="2.8" fill="#241c10" opacity="0.14"/>
<text x="284.0" y="324.0" font-size="17" text-anchor="middle">⛰</text>
<ellipse cx="312.0" cy="324.0" rx="7.5" ry="2.8" fill="#241c10" opacity="0.14"/>
<text x="312.0" y="324.0" font-size="17" text-anchor="middle">⛰</text>
<ellipse cx="60.0" cy="352.0" rx="7.5" ry="2.8" fill="#241c10" opacity="0.14"/>
<text x="60.0" y="352.0" font-size="17" text-anchor="middle">⛰</text>
<ellipse cx="88.0" cy="352.0" rx="7.5" ry="2.8" fill="#241c10" opacity="0.14"/>
<text x="88.0" y="352.0" font-size="17" text-anchor="middle">⛰</text>
<ellipse cx="116.0" cy="352.0" rx="7.5" ry="2.8" fill="#241c10" opacity="0.14"/>
<text x="116.0" y="352.0" font-size="17" text-anchor="middle">⛰</text>
<ellipse cx="144.0" cy="352.0" rx="7.5" ry="2.8" fill="#241c10" opacity="0.14"/>
<text x="144.0" y="352.0" font-size="17" text-anchor="middle">⛰</text>
<ellipse cx="172.0" cy="352.0" rx="7.5" ry="2.8" fill="#241c10" opacity="0.14"/>
<text x="172.0" y="352.0" font-size="17" text-anchor="middle">⛰</text>
<ellipse cx="200.0" cy="352.0" rx="7.5" ry="2.8" fill="#241c10" opacity="0.14"/>
<text x="200.0" y="352.0" font-size="17" text-anchor="middle">⛰</text>
<ellipse cx="228.0" cy="352.0" rx="7.5" ry="2.8" fill="#241c10" opacity="0.14"/>
<text x="228.0" y="352.0" font-size="17" text-anchor="middle">⛰</text>
<ellipse cx="256.0" cy="352.0" rx="7.5" ry="2.8" fill="#241c10" opacity="0.14"/>
<text x="256.0" y="352.0" font-size="17" text-anchor="middle">⛰</text>
<ellipse cx="284.0" cy="352.0" rx="7.5" ry="2.8" fill="#241c10" opacity="0.14"/>
<text x="284.0" y="352.0" font-size="17" text-anchor="middle">⛰</text>
<ellipse cx="313.4" cy="348.2" rx="10.36" ry="8.495199999999999" fill="#241c10" opacity="0.3"/>
<circle cx="312.0" cy="346.0" r="10.36" fill="url(#g_1d6fd8)" stroke="#241c10" stroke-width="1.6"/>
<circle cx="312.0" cy="346.0" r="7.959999999999999" fill="none" stroke="#ffffff" stroke-width="0.9" opacity="0.55"/>
<ellipse cx="60.0" cy="380.0" rx="7.5" ry="2.8" fill="#241c10" opacity="0.14"/>
<text x="60.0" y="380.0" font-size="17" text-anchor="middle">⛰</text>
<ellipse cx="88.0" cy="380.0" rx="7.5" ry="2.8" fill="#241c10" opacity="0.14"/>
<text x="88.0" y="380.0" font-size="17" text-anchor="middle">⛰</text>
<ellipse cx="116.0" cy="380.0" rx="7.5" ry="2.8" fill="#241c10" opacity="0.14"/>
<text x="116.0" y="380.0" font-size="17" text-anchor="middle">⛰</text>
<ellipse cx="144.0" cy="380.0" rx="7.5" ry="2.8" fill="#241c10" opacity="0.14"/>
<text x="144.0" y="380.0" font-size="17" text-anchor="middle">⛰</text>
<ellipse cx="172.0" cy="380.0" rx="7.5" ry="2.8" fill="#241c10" opacity="0.14"/>
<text x="172.0" y="380.0" font-size="17" text-anchor="middle">⛰</text>
<ellipse cx="200.0" cy="380.0" rx="7.5" ry="2.8" fill="#241c10" opacity="0.14"/>
<text x="200.0" y="380.0" font-size="17" text-anchor="middle">⛰</text>
<ellipse cx="228.0" cy="380.0" rx="7.5" ry="2.8" fill="#241c10" opacity="0.14"/>
<text x="228.0" y="380.0" font-size="17" text-anchor="middle">⛰</text>
<ellipse cx="256.0" cy="380.0" rx="7.5" ry="2.8" fill="#241c10" opacity="0.14"/>
<text x="256.0" y="380.0" font-size="17" text-anchor="middle">⛰</text>
<ellipse cx="284.0" cy="380.0" rx="7.5" ry="2.8" fill="#241c10" opacity="0.14"/>
<text x="284.0" y="380.0" font-size="17" text-anchor="middle">⛰</text>
<ellipse cx="313.4" cy="376.2" rx="10.36" ry="8.495199999999999" fill="#241c10" opacity="0.3"/>
<circle cx="312.0" cy="374.0" r="10.36" fill="url(#g_1d6fd8)" stroke="#241c10" stroke-width="1.6"/>
<circle cx="312.0" cy="374.0" r="7.959999999999999" fill="none" stroke="#ffffff" stroke-width="0.9" opacity="0.55"/>
<ellipse cx="60.0" cy="408.0" rx="7.5" ry="2.8" fill="#241c10" opacity="0.14"/>
<text x="60.0" y="408.0" font-size="17" text-anchor="middle">⛰</text>
<ellipse cx="88.0" cy="408.0" rx="7.5" ry="2.8" fill="#241c10" opacity="0.14"/>
<text x="88.0" y="408.0" font-size="17" text-anchor="middle">⛰</text>
<ellipse cx="116.0" cy="408.0" rx="7.5" ry="2.8" fill="#241c10" opacity="0.14"/>
<text x="116.0" y="408.0" font-size="17" text-anchor="middle">⛰</text>
<ellipse cx="144.0" cy="408.0" rx="7.5" ry="2.8" fill="#241c10" opacity="0.14"/>
<text x="144.0" y="408.0" font-size="17" text-anchor="middle">⛰</text>
<ellipse cx="172.0" cy="408.0" rx="7.5" ry="2.8" fill="#241c10" opacity="0.14"/>
<text x="172.0" y="408.0" font-size="17" text-anchor="middle">⛰</text>
<ellipse cx="200.0" cy="408.0" rx="7.5" ry="2.8" fill="#241c10" opacity="0.14"/>
<text x="200.0" y="408.0" font-size="17" text-anchor="middle">⛰</text>
<ellipse cx="228.0" cy="408.0" rx="7.5" ry="2.8" fill="#241c10" opacity="0.14"/>
<text x="228.0" y="408.0" font-size="17" text-anchor="middle">⛰</text>
<ellipse cx="256.0" cy="408.0" rx="7.5" ry="2.8" fill="#241c10" opacity="0.14"/>
<text x="256.0" y="408.0" font-size="17" text-anchor="middle">⛰</text>
<ellipse cx="284.0" cy="408.0" rx="7.5" ry="2.8" fill="#241c10" opacity="0.14"/>
<text x="284.0" y="408.0" font-size="17" text-anchor="middle">⛰</text>
<ellipse cx="313.4" cy="404.2" rx="10.36" ry="8.495199999999999" fill="#241c10" opacity="0.3"/>
<circle cx="312.0" cy="402.0" r="10.36" fill="url(#g_1d6fd8)" stroke="#241c10" stroke-width="1.6"/>
<circle cx="312.0" cy="402.0" r="7.959999999999999" fill="none" stroke="#ffffff" stroke-width="0.9" opacity="0.55"/>
<ellipse cx="60.0" cy="436.0" rx="7.5" ry="2.8" fill="#241c10" opacity="0.14"/>
<text x="60.0" y="436.0" font-size="17" text-anchor="middle">⛰</text>
<ellipse cx="88.0" cy="436.0" rx="7.5" ry="2.8" fill="#241c10" opacity="0.14"/>
<text x="88.0" y="436.0" font-size="17" text-anchor="middle">⛰</text>
<ellipse cx="116.0" cy="436.0" rx="7.5" ry="2.8" fill="#241c10" opacity="0.14"/>
<text x="116.0" y="436.0" font-size="17" text-anchor="middle">⛰</text>
<ellipse cx="144.0" cy="436.0" rx="7.5" ry="2.8" fill="#241c10" opacity="0.14"/>
<text x="144.0" y="436.0" font-size="17" text-anchor="middle">⛰</text>
<ellipse cx="172.0" cy="436.0" rx="7.5" ry="2.8" fill="#241c10" opacity="0.14"/>
<text x="172.0" y="436.0" font-size="17" text-anchor="middle">⛰</text>
<ellipse cx="200.0" cy="436.0" rx="7.5" ry="2.8" fill="#241c10" opacity="0.14"/>
<text x="200.0" y="436.0" font-size="17" text-anchor="middle">⛰</text>
<ellipse cx="228.0" cy="436.0" rx="7.5" ry="2.8" fill="#241c10" opacity="0.14"/>
<text x="228.0" y="436.0" font-size="17" text-anchor="middle">⛰</text>
<ellipse cx="256.0" cy="436.0" rx="7.5" ry="2.8" fill="#241c10" opacity="0.14"/>
<text x="256.0" y="436.0" font-size="17" text-anchor="middle">⛰</text>
<ellipse cx="284.0" cy="436.0" rx="7.5" ry="2.8" fill="#241c10" opacity="0.14"/>
<text x="284.0" y="436.0" font-size="17" text-anchor="middle">⛰</text>
<ellipse cx="313.4" cy="432.2" rx="10.36" ry="8.495199999999999" fill="#241c10" opacity="0.3"/>
<circle cx="312.0" cy="430.0" r="10.36" fill="url(#g_1d6fd8)" stroke="#241c10" stroke-width="1.6"/>
<circle cx="312.0" cy="430.0" r="7.959999999999999" fill="none" stroke="#ffffff" stroke-width="0.9" opacity="0.55"/>
<ellipse cx="60.0" cy="464.0" rx="7.5" ry="2.8" fill="#241c10" opacity="0.14"/>
<text x="60.0" y="464.0" font-size="17" text-anchor="middle">⛰</text>
<ellipse cx="88.0" cy="464.0" rx="7.5" ry="2.8" fill="#241c10" opacity="0.14"/>
<text x="88.0" y="464.0" font-size="17" text-anchor="middle">⛰</text>
<ellipse cx="116.0" cy="464.0" rx="7.5" ry="2.8" fill="#241c10" opacity="0.14"/>
<text x="116.0" y="464.0" font-size="17" text-anchor="middle">⛰</text>
<ellipse cx="144.0" cy="464.0" rx="7.5" ry="2.8" fill="#241c10" opacity="0.14"/>
<text x="144.0" y="464.0" font-size="17" text-anchor="middle">⛰</text>
<ellipse cx="172.0" cy="464.0" rx="7.5" ry="2.8" fill="#241c10" opacity="0.14"/>
<text x="172.0" y="464.0" font-size="17" text-anchor="middle">⛰</text>
<ellipse cx="200.0" cy="464.0" rx="7.5" ry="2.8" fill="#241c10" opacity="0.14"/>
<text x="200.0" y="464.0" font-size="17" text-anchor="middle">⛰</text>
<ellipse cx="228.0" cy="464.0" rx="7.5" ry="2.8" fill="#241c10" opacity="0.14"/>
<text x="228.0" y="464.0" font-size="17" text-anchor="middle">⛰</text>
<ellipse cx="256.0" cy="464.0" rx="7.5" ry="2.8" fill="#241c10" opacity="0.14"/>
<text x="256.0" y="464.0" font-size="17" text-anchor="middle">⛰</text>
<ellipse cx="284.0" cy="464.0" rx="7.5" ry="2.8" fill="#241c10" opacity="0.14"/>
<text x="284.0" y="464.0" font-size="17" text-anchor="middle">⛰</text>
<ellipse cx="313.4" cy="460.2" rx="10.36" ry="8.495199999999999" fill="#241c10" opacity="0.3"/>
<circle cx="312.0" cy="458.0" r="10.36" fill="url(#g_1d6fd8)" stroke="#241c10" stroke-width="1.6"/>
<circle cx="312.0" cy="458.0" r="7.959999999999999" fill="none" stroke="#ffffff" stroke-width="0.9" opacity="0.55"/>
<ellipse cx="60.0" cy="492.0" rx="7.5" ry="2.8" fill="#241c10" opacity="0.14"/>
<text x="60.0" y="492.0" font-size="17" text-anchor="middle">⛰</text>
<ellipse cx="88.0" cy="492.0" rx="7.5" ry="2.8" fill="#241c10" opacity="0.14"/>
<text x="88.0" y="492.0" font-size="17" text-anchor="middle">⛰</text>
<ellipse cx="116.0" cy="492.0" rx="7.5" ry="2.8" fill="#241c10" opacity="0.14"/>
<text x="116.0" y="492.0" font-size="17" text-anchor="middle">⛰</text>
<ellipse cx="144.0" cy="492.0" rx="7.5" ry="2.8" fill="#241c10" opacity="0.14"/>
<text x="144.0" y="492.0" font-size="17" text-anchor="middle">⛰</text>
<ellipse cx="172.0" cy="492.0" rx="7.5" ry="2.8" fill="#241c10" opacity="0.14"/>
<text x="172.0" y="492.0" font-size="17" text-anchor="middle">⛰</text>
<ellipse cx="200.0" cy="492.0" rx="7.5" ry="2.8" fill="#241c10" opacity="0.14"/>
<text x="200.0" y="492.0" font-size="17" text-anchor="middle">⛰</text>
<ellipse cx="228.0" cy="492.0" rx="7.5" ry="2.8" fill="#241c10" opacity="0.14"/>
<text x="228.0" y="492.0" font-size="17" text-anchor="middle">⛰</text>
<ellipse cx="256.0" cy="492.0" rx="7.5" ry="2.8" fill="#241c10" opacity="0.14"/>
<text x="256.0" y="492.0" font-size="17" text-anchor="middle">⛰</text>
<ellipse cx="284.0" cy="492.0" rx="7.5" ry="2.8" fill="#241c10" opacity="0.14"/>
<text x="284.0" y="492.0" font-size="17" text-anchor="middle">⛰</text>
<ellipse cx="313.4" cy="488.2" rx="10.36" ry="8.495199999999999" fill="#241c10" opacity="0.3"/>
<circle cx="312.0" cy="486.0" r="10.36" fill="url(#g_1d6fd8)" stroke="#241c10" stroke-width="1.6"/>
<circle cx="312.0" cy="486.0" r="7.959999999999999" fill="none" stroke="#ffffff" stroke-width="0.9" opacity="0.55"/>
<ellipse cx="60.0" cy="520.0" rx="7.5" ry="2.8" fill="#241c10" opacity="0.14"/>
<text x="60.0" y="520.0" font-size="17" text-anchor="middle">⛰</text>
<ellipse cx="88.0" cy="520.0" rx="7.5" ry="2.8" fill="#241c10" opacity="0.14"/>
<text x="88.0" y="520.0" font-size="17" text-anchor="middle">⛰</text>
<ellipse cx="116.0" cy="520.0" rx="7.5" ry="2.8" fill="#241c10" opacity="0.14"/>
<text x="116.0" y="520.0" font-size="17" text-anchor="middle">⛰</text>
<ellipse cx="144.0" cy="520.0" rx="7.5" ry="2.8" fill="#241c10" opacity="0.14"/>
<text x="144.0" y="520.0" font-size="17" text-anchor="middle">⛰</text>
<ellipse cx="172.0" cy="520.0" rx="7.5" ry="2.8" fill="#241c10" opacity="0.14"/>
<text x="172.0" y="520.0" font-size="17" text-anchor="middle">⛰</text>
<ellipse cx="200.0" cy="520.0" rx="7.5" ry="2.8" fill="#241c10" opacity="0.14"/>
<text x="200.0" y="520.0" font-size="17" text-anchor="middle">⛰</text>
<ellipse cx="228.0" cy="520.0" rx="7.5" ry="2.8" fill="#241c10" opacity="0.14"/>
<text x="228.0" y="520.0" font-size="17" text-anchor="middle">⛰</text>
<ellipse cx="256.0" cy="520.0" rx="7.5" ry="2.8" fill="#241c10" opacity="0.14"/>
<text x="256.0" y="520.0" font-size="17" text-anchor="middle">⛰</text>
<ellipse cx="284.0" cy="520.0" rx="7.5" ry="2.8" fill="#241c10" opacity="0.14"/>
<text x="284.0" y="520.0" font-size="17" text-anchor="middle">⛰</text>
<ellipse cx="313.4" cy="516.2" rx="10.36" ry="8.495199999999999" fill="#241c10" opacity="0.3"/>
<circle cx="312.0" cy="514.0" r="10.36" fill="url(#g_1d6fd8)" stroke="#241c10" stroke-width="1.6"/>
<circle cx="312.0" cy="514.0" r="7.959999999999999" fill="none" stroke="#ffffff" stroke-width="0.9" opacity="0.55"/>
<ellipse cx="60.0" cy="548.0" rx="7.5" ry="2.8" fill="#241c10" opacity="0.14"/>
<text x="60.0" y="548.0" font-size="17" text-anchor="middle">⛰</text>
<ellipse cx="88.0" cy="548.0" rx="7.5" ry="2.8" fill="#241c10" opacity="0.14"/>
<text x="88.0" y="548.0" font-size="17" text-anchor="middle">⛰</text>
<ellipse cx="116.0" cy="548.0" rx="7.5" ry="2.8" fill="#241c10" opacity="0.14"/>
<text x="116.0" y="548.0" font-size="17" text-anchor="middle">⛰</text>
<ellipse cx="144.0" cy="548.0" rx="7.5" ry="2.8" fill="#241c10" opacity="0.14"/>
<text x="144.0" y="548.0" font-size="17" text-anchor="middle">⛰</text>
<ellipse cx="172.0" cy="548.0" rx="7.5" ry="2.8" fill="#241c10" opacity="0.14"/>
<text x="172.0" y="548.0" font-size="17" text-anchor="middle">⛰</text>
<ellipse cx="200.0" cy="548.0" rx="7.5" ry="2.8" fill="#241c10" opacity="0.14"/>
<text x="200.0" y="548.0" font-size="17" text-anchor="middle">⛰</text>
<ellipse cx="228.0" cy="548.0" rx="7.5" ry="2.8" fill="#241c10" opacity="0.14"/>
<text x="228.0" y="548.0" font-size="17" text-anchor="middle">⛰</text>
<ellipse cx="256.0" cy="548.0" rx="7.5" ry="2.8" fill="#241c10" opacity="0.14"/>
<text x="256.0" y="548.0" font-size="17" text-anchor="middle">⛰</text>
<ellipse cx="284.0" cy="548.0" rx="7.5" ry="2.8" fill="#241c10" opacity="0.14"/>
<text x="284.0" y="548.0" font-size="17" text-anchor="middle">⛰</text>
<ellipse cx="313.4" cy="544.2" rx="10.36" ry="8.495199999999999" fill="#241c10" opacity="0.3"/>
<circle cx="312.0" cy="542.0" r="10.36" fill="url(#g_1d6fd8)" stroke="#241c10" stroke-width="1.6"/>
<circle cx="312.0" cy="542.0" r="7.959999999999999" fill="none" stroke="#ffffff" stroke-width="0.9" opacity="0.55"/>
<ellipse cx="60.0" cy="576.0" rx="7.5" ry="2.8" fill="#241c10" opacity="0.14"/>
<text x="60.0" y="576.0" font-size="17" text-anchor="middle">⛰</text>
<ellipse cx="88.0" cy="576.0" rx="7.5" ry="2.8" fill="#241c10" opacity="0.14"/>
<text x="88.0" y="576.0" font-size="17" text-anchor="middle">⛰</text>
<ellipse cx="116.0" cy="576.0" rx="7.5" ry="2.8" fill="#241c10" opacity="0.14"/>
<text x="116.0" y="576.0" font-size="17" text-anchor="middle">⛰</text>
<ellipse cx="144.0" cy="576.0" rx="7.5" ry="2.8" fill="#241c10" opacity="0.14"/>
<text x="144.0" y="576.0" font-size="17" text-anchor="middle">⛰</text>
<ellipse cx="172.0" cy="576.0" rx="7.5" ry="2.8" fill="#241c10" opacity="0.14"/>
<text x="172.0" y="576.0" font-size="17" text-anchor="middle">⛰</text>
<ellipse cx="200.0" cy="576.0" rx="7.5" ry="2.8" fill="#241c10" opacity="0.14"/>
<text x="200.0" y="576.0" font-size="17" text-anchor="middle">⛰</text>
<ellipse cx="228.0" cy="576.0" rx="7.5" ry="2.8" fill="#241c10" opacity="0.14"/>
<text x="228.0" y="576.0" font-size="17" text-anchor="middle">⛰</text>
<ellipse cx="256.0" cy="576.0" rx="7.5" ry="2.8" fill="#241c10" opacity="0.14"/>
<text x="256.0" y="576.0" font-size="17" text-anchor="middle">⛰</text>
<ellipse cx="284.0" cy="576.0" rx="7.5" ry="2.8" fill="#241c10" opacity="0.14"/>
<text x="284.0" y="576.0" font-size="17" text-anchor="middle">⛰</text>
<ellipse cx="313.4" cy="572.2" rx="10.36" ry="8.495199999999999" fill="#241c10" opacity="0.3"/>
<circle cx="312.0" cy="570.0" r="10.36" fill="url(#g_1d6fd8)" stroke="#241c10" stroke-width="1.6"/>
<circle cx="312.0" cy="570.0" r="7.959999999999999" fill="none" stroke="#ffffff" stroke-width="0.9" opacity="0.55"/>
<ellipse cx="60.0" cy="604.0" rx="7.5" ry="2.8" fill="#241c10" opacity="0.14"/>
<text x="60.0" y="604.0" font-size="17" text-anchor="middle">⛰</text>
<ellipse cx="88.0" cy="604.0" rx="7.5" ry="2.8" fill="#241c10" opacity="0.14"/>
<text x="88.0" y="604.0" font-size="17" text-anchor="middle">⛰</text>
<ellipse cx="116.0" cy="604.0" rx="7.5" ry="2.8" fill="#241c10" opacity="0.14"/>
<text x="116.0" y="604.0" font-size="17" text-anchor="middle">⛰</text>
<ellipse cx="144.0" cy="604.0" rx="7.5" ry="2.8" fill="#241c10" opacity="0.14"/>
<text x="144.0" y="604.0" font-size="17" text-anchor="middle">⛰</text>
<ellipse cx="172.0" cy="604.0" rx="7.5" ry="2.8" fill="#241c10" opacity="0.14"/>
<text x="172.0" y="604.0" font-size="17" text-anchor="middle">⛰</text>
<ellipse cx="200.0" cy="604.0" rx="7.5" ry="2.8" fill="#241c10" opacity="0.14"/>
<text x="200.0" y="604.0" font-size="17" text-anchor="middle">⛰</text>
<ellipse cx="228.0" cy="604.0" rx="7.5" ry="2.8" fill="#241c10" opacity="0.14"/>
<text x="228.0" y="604.0" font-size="17" text-anchor="middle">⛰</text>
<ellipse cx="256.0" cy="604.0" rx="7.5" ry="2.8" fill="#241c10" opacity="0.14"/>
<text x="256.0" y="604.0" font-size="17" text-anchor="middle">⛰</text>
<ellipse cx="284.0" cy="604.0" rx="7.5" ry="2.8" fill="#241c10" opacity="0.14"/>
<text x="284.0" y="604.0" font-size="17" text-anchor="middle">⛰</text>
<ellipse cx="313.4" cy="600.2" rx="10.36" ry="8.495199999999999" fill="#241c10" opacity="0.3"/>
<circle cx="312.0" cy="598.0" r="10.36" fill="url(#g_1d6fd8)" stroke="#241c10" stroke-width="1.6"/>
<circle cx="312.0" cy="598.0" r="7.959999999999999" fill="none" stroke="#ffffff" stroke-width="0.9" opacity="0.55"/>
<ellipse cx="648.0" cy="772.0" rx="7.5" ry="2.8" fill="#241c10" opacity="0.14"/>
<text x="648.0" y="772.0" font-size="17" text-anchor="middle">🔥</text>
<ellipse cx="676.0" cy="772.0" rx="7.5" ry="2.8" fill="#241c10" opacity="0.14"/>
<text x="676.0" y="772.0" font-size="17" text-anchor="middle">🔥</text>
<ellipse cx="704.0" cy="772.0" rx="7.5" ry="2.8" fill="#241c10" opacity="0.14"/>
<text x="704.0" y="772.0" font-size="17" text-anchor="middle">🔥</text>
<ellipse cx="648.0" cy="800.0" rx="7.5" ry="2.8" fill="#241c10" opacity="0.14"/>
<text x="648.0" y="800.0" font-size="17" text-anchor="middle">🔥</text>
<ellipse cx="676.0" cy="800.0" rx="7.5" ry="2.8" fill="#241c10" opacity="0.14"/>
<text x="676.0" y="800.0" font-size="17" text-anchor="middle">🔥</text>
<ellipse cx="704.0" cy="800.0" rx="7.5" ry="2.8" fill="#241c10" opacity="0.14"/>
<text x="704.0" y="800.0" font-size="17" text-anchor="middle">🔥</text>
<text x="60.0" y="72" font-size="10" text-anchor="middle" fill="#7a6a50">A</text>
<text x="88.0" y="72" font-size="10" text-anchor="middle" fill="#7a6a50">B</text>
<text x="116.0" y="72" font-size="10" text-anchor="middle" fill="#7a6a50">C</text>
<text x="144.0" y="72" font-size="10" text-anchor="middle" fill="#7a6a50">D</text>
<text x="172.0" y="72" font-size="10" text-anchor="middle" fill="#7a6a50">E</text>
<text x="200.0" y="72" font-size="10" text-anchor="middle" fill="#7a6a50">F</text>
<text x="228.0" y="72" font-size="10" text-anchor="middle" fill="#7a6a50">G</text>
<text x="256.0" y="72" font-size="10" text-anchor="middle" fill="#7a6a50">H</text>
<text x="284.0" y="72" font-size="10" text-anchor="middle" fill="#7a6a50">I</text>
<text x="312.0" y="72" font-size="10" text-anchor="middle" fill="#7a6a50">J</text>
<text x="340.0" y="72" font-size="10" text-anchor="middle" fill="#7a6a50">K</text>
<text x="368.0" y="72" font-size="10" text-anchor="middle" fill="#7a6a50">L</text>
<text x="396.0" y="72" font-size="10" text-anchor="middle" fill="#7a6a50">M</text>
<text x="424.0" y="72" font-size="10" text-anchor="middle" fill="#7a6a50">N</text>
<text x="452.0" y="72" font-size="10" text-anchor="middle" fill="#7a6a50">O</text>
<text x="480.0" y="72" font-size="10" text-anchor="middle" fill="#7a6a50">P</text>
<text x="508.0" y="72" font-size="10" text-anchor="middle" fill="#7a6a50">Q</text>
<text x="536.0" y="72" font-size="10" text-anchor="middle" fill="#7a6a50">R</text>
<text x="564.0" y="72" font-size="10" text-anchor="middle" fill="#7a6a50">S</text>
<text x="592.0" y="72" font-size="10" text-anchor="middle" fill="#7a6a50">T</text>
<text x="620.0" y="72" font-size="10" text-anchor="middle" fill="#7a6a50">U</text>
<text x="648.0" y="72" font-size="10" text-anchor="middle" fill="#7a6a50">V</text>
<text x="676.0" y="72" font-size="10" text-anchor="middle" fill="#7a6a50">W</text>
<text x="704.0" y="72" font-size="10" text-anchor="middle" fill="#7a6a50">X</text>
<text x="732.0" y="72" font-size="10" text-anchor="middle" fill="#7a6a50">Y</text>
<text x="760.0" y="72" font-size="10" text-anchor="middle" fill="#7a6a50">Z</text>
<text x="788.0" y="72" font-size="10" text-anchor="middle" fill="#7a6a50">AA</text>
<text x="816.0" y="72" font-size="10" text-anchor="middle" fill="#7a6a50">AB</text>
<text x="37" y="97.0" font-size="10" text-anchor="end" fill="#7a6a50">01</text>
<text x="37" y="125.0" font-size="10" text-anchor="end" fill="#7a6a50">02</text>
<text x="37" y="153.0" font-size="10" text-anchor="end" fill="#7a6a50">03</text>
<text x="37" y="181.0" font-size="10" text-anchor="end" fill="#7a6a50">04</text>
<text x="37" y="209.0" font-size="10" text-anchor="end" fill="#7a6a50">05</text>
<text x="37" y="237.0" font-size="10" text-anchor="end" fill="#7a6a50">06</text>
<text x="37" y="265.0" font-size="10" text-anchor="end" fill="#7a6a50">07</text>
<text x="37" y="293.0" font-size="10" text-anchor="end" fill="#7a6a50">08</text>
<text x="37" y="321.0" font-size="10" text-anchor="end" fill="#7a6a50">09</text>
<text x="37" y="349.0" font-size="10" text-anchor="end" fill="#7a6a50">10</text>
<text x="37" y="377.0" font-size="10" text-anchor="end" fill="#b1a184">11</text>
<text x="37" y="405.0" font-size="10" text-anchor="end" fill="#b1a184">12</text>
<text x="37" y="433.0" font-size="10" text-anchor="end" fill="#b1a184">13</text>
<text x="37" y="461.0" font-size="10" text-anchor="end" fill="#b1a184">14</text>
<text x="37" y="489.0" font-size="10" text-anchor="end" fill="#b1a184">15</text>
<text x="37" y="517.0" font-size="10" text-anchor="end" fill="#b1a184">16</text>
<text x="37" y="545.0" font-size="10" text-anchor="end" fill="#b1a184">17</text>
<text x="37" y="573.0" font-size="10" text-anchor="end" fill="#b1a184">18</text>
<text x="37" y="601.0" font-size="10" text-anchor="end" fill="#b1a184">19</text>
<text x="37" y="629.0" font-size="10" text-anchor="end" fill="#7a6a50">20</text>
<text x="37" y="657.0" font-size="10" text-anchor="end" fill="#7a6a50">21</text>
<text x="37" y="685.0" font-size="10" text-anchor="end" fill="#7a6a50">22</text>
<text x="37" y="713.0" font-size="10" text-anchor="end" fill="#7a6a50">23</text>
<text x="37" y="741.0" font-size="10" text-anchor="end" fill="#7a6a50">24</text>
<text x="37" y="769.0" font-size="10" text-anchor="end" fill="#7a6a50">25</text>
<text x="37" y="797.0" font-size="10" text-anchor="end" fill="#7a6a50">26</text>
<text x="37" y="825.0" font-size="10" text-anchor="end" fill="#7a6a50">27</text>
<text x="37" y="853.0" font-size="10" text-anchor="end" fill="#7a6a50">28</text>
<text x="37" y="881.0" font-size="10" text-anchor="end" fill="#7a6a50">29</text>
<text x="37" y="909.0" font-size="10" text-anchor="end" fill="#7a6a50">30</text>
<rect x="46" y="939" width="28" height="7" fill="#3b2e1e" stroke="#3b2e1e" stroke-width="1"/>
<rect x="74" y="939" width="28" height="7" fill="#efe4c9" stroke="#3b2e1e" stroke-width="1"/>
<rect x="102" y="939" width="28" height="7" fill="#3b2e1e" stroke="#3b2e1e" stroke-width="1"/>
<rect x="130" y="939" width="28" height="7" fill="#efe4c9" stroke="#3b2e1e" stroke-width="1"/>
<rect x="158" y="939" width="28" height="7" fill="#3b2e1e" stroke="#3b2e1e" stroke-width="1"/>
<text x="196" y="947" font-size="11" fill="#3b2e1e">7,5 m (5 quadretti)</text>
<text x="46" y="976" font-size="12" font-weight="bold" fill="#3b2e1e" letter-spacing="2">LEGENDA</text>
<path d="M120 972H830" stroke="#7a6a50" stroke-width="0.7" opacity="0.7"/>
<text x="46" y="994" font-size="14">⛰</text>
<text x="73" y="994" font-size="11" fill="#3b2e1e">⛰ — (simbolo locale — vedi legenda del file sorgente)</text>
<rect x="46" y="1004" width="19" height="15" fill="url(#t_floor)" stroke="#7a6a50" stroke-width="0.7"/>
<text x="73" y="1016" font-size="11" fill="#3b2e1e">⬜ — Pavimento lavorato</text>
<text x="46" y="1038" font-size="14">🔥</text>
<text x="73" y="1038" font-size="11" fill="#3b2e1e">🔥 — Fuoco (1d6 fuoco/round)</text>
<circle cx="55" cy="1056" r="7.5" fill="url(#g_1d6fd8)" stroke="#241c10" stroke-width="1.2"/>
<text x="73" y="1060" font-size="11" fill="#3b2e1e">🔵 — PG / alleati</text>
<text x="46" y="1082" font-size="14">🗼</text>
<text x="73" y="1082" font-size="11" fill="#3b2e1e">🗼 — Torre / struttura alta</text>
<rect x="46" y="1092" width="19" height="15" fill="url(#t_lethal)" stroke="#7a6a50" stroke-width="0.7"/>
<text x="73" y="1104" font-size="11" fill="#3b2e1e">🟥 — Zona letale</text>
<rect x="46" y="1114" width="19" height="15" fill="url(#t_grass)" stroke="#7a6a50" stroke-width="0.7"/>
<text x="73" y="1126" font-size="11" fill="#3b2e1e">🟩 — Pianura / area aperta</text>
<rect x="46" y="1136" width="19" height="15" fill="url(#t_earth)" stroke="#7a6a50" stroke-width="0.7"/>
<text x="73" y="1148" font-size="11" fill="#3b2e1e">🟫 — Terra battuta / sentiero</text>
<text x="46" y="1180" font-size="9" font-style="italic" fill="#7a6a50">fonte: Hammerfist-Lotto-1-Ricognizione.md · SVG generato da scripts/render_map_svg.py (stile pergamena) — non modificare a mano</text>
</svg>