<svg xmlns="http://www.w3.org/2000/svg" width="652" height="3112" viewBox="0 0 652 3112" font-family="Georgia, 'Palatino Linotype', 'Times New Roman', serif">
<defs>
<filter id="grain" x="0" y="0" width="100%" height="100%"><feTurbulence type="fractalNoise" baseFrequency="0.8" numOctaves="2" seed="11" stitchTiles="stitch"/><feColorMatrix type="matrix" values="0 0 0 0 0.36 0 0 0 0 0.28 0 0 0 0 0.16 0 0 0 0.18 0"/><feComposite operator="over" in2="SourceGraphic"/></filter>
<filter id="rough" x="-5%" y="-5%" width="110%" height="110%"><feTurbulence type="fractalNoise" baseFrequency="0.045" numOctaves="2" seed="7" result="n"/><feDisplacementMap in="SourceGraphic" in2="n" scale="2.6"/></filter>
<filter id="softblur" x="-20%" y="-20%" width="140%" height="140%"><feGaussianBlur stdDeviation="1.6"/></filter>
<radialGradient id="vign" cx="0.5" cy="0.45" r="0.75"><stop offset="0.62" stop-color="#3b2e1e" stop-opacity="0"/><stop offset="1" stop-color="#3b2e1e" stop-opacity="0.16"/></radialGradient>
<pattern id="t_earth" width="28" height="28" patternUnits="userSpaceOnUse"><rect width="28" height="28" fill="#b08d68"/><circle cx="6" cy="6" r="1.1" fill="#93714e"/><circle cx="18" cy="11" r="0.9" fill="#93714e"/><circle cx="24" cy="22" r="1.2" fill="#93714e"/><circle cx="9" cy="20" r="1" fill="#c8a87f"/><circle cx="22" cy="4" r="0.8" fill="#c8a87f"/><path d="M3 15q4-1.5 8 0" stroke="#a17d59" stroke-width="0.8" fill="none"/></pattern>
<pattern id="t_grass" width="28" height="28" patternUnits="userSpaceOnUse"><rect width="28" height="28" fill="#b3c489"/><path d="M5 21q1.5-4 3-5M8 21q0-3 2-5M20 8q1.5-2.5 3-3.5" stroke="#94a76a" stroke-width="0.9" stroke-opacity="0.6" fill="none" stroke-linecap="round"/><circle cx="14" cy="16" r="0.9" fill="#c5d29b"/><circle cx="24" cy="24" r="0.8" fill="#c5d29b"/><circle cx="4" cy="7" r="0.8" fill="#a3b573"/><circle cx="25" cy="13" r="0.7" fill="#a3b573"/></pattern>
<pattern id="t_sand" width="28" height="28" patternUnits="userSpaceOnUse"><rect width="28" height="28" fill="#e4cf9c"/><circle cx="5" cy="8" r="0.8" fill="#c8ad72"/><circle cx="14" cy="4" r="0.7" fill="#c8ad72"/><circle cx="23" cy="12" r="0.8" fill="#c8ad72"/><circle cx="9" cy="19" r="0.7" fill="#c8ad72"/><circle cx="20" cy="24" r="0.8" fill="#c8ad72"/><circle cx="26" cy="26" r="0.6" fill="#f0e0b4"/><circle cx="3" cy="25" r="0.6" fill="#f0e0b4"/></pattern>
<pattern id="t_struct" width="28" height="28" patternUnits="userSpaceOnUse"><rect width="28" height="28" fill="#6b5b47"/><path d="M-2 6l8-8M-2 14l16-16M-2 22l24-24M6 30l24-24M14 30l16-16M22 30l8-8" stroke="#5a4b39" stroke-width="0.9"/><path d="M0 14.5h28" stroke="#7d6c56" stroke-width="0.8"/></pattern>
<radialGradient id="g_1d6fd8" cx="0.35" cy="0.3" r="0.8"><stop offset="0" stop-color="#83b0ea"/><stop offset="0.55" stop-color="#1d6fd8"/><stop offset="1" stop-color="#13488c"/></radialGradient>
<radialGradient id="g_d62828" cx="0.35" cy="0.3" r="0.8"><stop offset="0" stop-color="#e88989"/><stop offset="0.55" stop-color="#d62828"/><stop offset="1" stop-color="#8b1a1a"/></radialGradient>
</defs>
<rect width="652" height="3112" fill="#efe4c9" filter="url(#grain)"/>
<rect width="652" height="3112" fill="url(#vign)"/>
<rect x="5" y="5" width="642" height="3102" fill="none" stroke="#3b2e1e" stroke-width="0.8" opacity="0.8"/>
<rect x="9" y="9" width="634" height="3094" fill="none" stroke="#3b2e1e" stroke-width="2" opacity="0.85"/>
<text x="46" y="34" font-size="19" font-weight="bold" fill="#3b2e1e" letter-spacing="0.5">A  B  C  D  E  F  G  H  I  J  K  L  M  N  O  P  Q  R  S  T (Colonne)</text>
<text x="46" y="51" font-size="11" font-style="italic" fill="#7a6a50">20×100 quadretti · scala 1,5 m/quadretto</text>
<rect x="41" y="75" width="570" height="2810" fill="#e6d9b8" stroke="#3b2e1e" stroke-width="1.6"/>
<path d="M46 80h196v28h-196zM382 80h224v28h-224zM46 108h84v28h-84zM466 108h140v28h-140zM46 136h56v28h-56zM494 136h112v28h-112zM46 164h28v28h-28zM522 164h84v28h-84zM46 192h28v28h-28zM242 192h112v28h-112zM550 192h56v28h-56zM46 220h28v28h-28zM186 220h224v28h-224zM578 220h28v28h-28zM46 248h28v28h-28zM242 248h112v28h-112zM578 332h28v28h-28zM494 360h112v28h-112zM494 388h112v28h-112zM550 416h56v28h-56zM550 444h56v28h-56zM550 472h56v28h-56zM550 500h56v28h-56zM550 528h56v28h-56zM550 556h56v28h-56zM550 584h56v28h-56zM550 612h56v28h-56zM550 640h56v28h-56zM550 668h56v28h-56zM550 696h56v28h-56zM550 724h56v28h-56zM550 752h56v28h-56zM550 780h56v28h-56zM550 808h56v28h-56zM550 836h56v28h-56zM550 864h56v28h-56zM550 892h56v28h-56zM550 920h56v28h-56zM550 948h56v28h-56zM550 976h56v28h-56zM550 1004h56v28h-56zM550 1032h56v28h-56zM550 1060h56v28h-56zM550 1088h56v28h-56zM550 1116h56v28h-56zM550 1144h56v28h-56zM550 1172h56v28h-56zM550 1200h56v28h-56zM550 1228h56v28h-56zM550 1256h56v28h-56zM550 1284h56v28h-56zM550 1312h56v28h-56zM550 1340h56v28h-56zM550 1368h56v28h-56zM550 1396h56v28h-56zM550 1424h56v28h-56zM298 1480h56v28h-56zM270 1508h112v28h-112zM326 1536h28v28h-28zM578 1592h28v28h-28zM578 1620h28v28h-28zM578 1648h28v28h-28zM578 1676h28v28h-28zM578 1704h28v28h-28zM578 1732h28v28h-28zM578 1760h28v28h-28zM578 1788h28v28h-28zM578 1816h28v28h-28zM578 1844h28v28h-28zM578 1872h28v28h-28zM578 1900h28v28h-28zM578 1928h28v28h-28zM578 1956h28v28h-28zM578 1984h28v28h-28zM578 2012h28v28h-28zM578 2040h28v28h-28zM578 2068h28v28h-28zM578 2096h28v28h-28zM578 2124h28v28h-28zM578 2152h28v28h-28zM578 2180h28v28h-28zM578 2208h28v28h-28zM578 2236h28v28h-28zM578 2264h28v28h-28zM578 2292h28v28h-28zM578 2320h28v28h-28zM578 2348h28v28h-28zM578 2376h28v28h-28zM578 2404h28v28h-28zM578 2432h28v28h-28zM578 2460h28v28h-28zM578 2488h28v28h-28zM578 2516h28v28h-28zM578 2544h28v28h-28zM578 2572h28v28h-28zM578 2600h28v28h-28zM578 2628h28v28h-28zM578 2656h28v28h-28zM578 2684h28v28h-28zM578 2712h28v28h-28zM578 2740h28v28h-28zM578 2768h28v28h-28zM550 2796h56v28h-56zM522 2824h84v28h-84zM494 2852h112v28h-112z" fill="url(#t_earth)"/>
<path d="M270 80h84v28h-84zM186 108h224v28h-224zM130 136h140v28h-140zM326 136h140v28h-140zM102 164h84v28h-84zM382 164h112v28h-112zM74 192h84v28h-84zM438 192h84v28h-84zM74 220h56v28h-56zM466 220h84v28h-84zM74 248h84v28h-84zM410 248h168v28h-168zM74 276h112v28h-112zM354 276h252v28h-252zM46 304h532v28h-532zM46 332h420v28h-420zM46 360h392v28h-392zM46 388h392v28h-392zM46 416h420v28h-420zM46 444h420v28h-420zM46 472h420v28h-420zM46 500h420v28h-420zM46 528h420v28h-420zM46 556h420v28h-420zM46 584h420v28h-420zM46 612h420v28h-420zM46 640h420v28h-420zM46 668h420v28h-420zM46 696h420v28h-420zM46 724h420v28h-420zM46 752h420v28h-420zM46 780h420v28h-420zM46 808h420v28h-420zM46 836h420v28h-420zM46 864h420v28h-420zM46 892h420v28h-420zM46 920h420v28h-420zM46 948h420v28h-420zM46 976h420v28h-420zM46 1004h420v28h-420zM46 1032h420v28h-420zM46 1060h420v28h-420zM46 1088h420v28h-420zM46 1116h420v28h-420zM46 1144h420v28h-420zM46 1172h420v28h-420zM46 1200h420v28h-420zM46 1228h420v28h-420zM46 1256h420v28h-420zM46 1284h420v28h-420zM46 1312h420v28h-420zM46 1340h420v28h-420zM46 1368h420v28h-420zM46 1396h420v28h-420zM46 1424h420v28h-420zM46 1452h224v28h-224zM382 1452h196v28h-196zM46 1480h196v28h-196zM410 1480h196v28h-196zM46 1508h196v28h-196zM410 1508h196v28h-196zM46 1536h196v28h-196zM410 1536h196v28h-196zM46 1564h224v28h-224zM382 1564h196v28h-196zM46 1592h504v28h-504zM46 1620h504v28h-504zM46 1648h504v28h-504zM46 1676h504v28h-504zM46 1704h504v28h-504zM46 1732h504v28h-504zM46 1760h504v28h-504zM46 1788h504v28h-504zM46 1816h504v28h-504zM46 1844h504v28h-504zM46 1872h504v28h-504zM46 1900h504v28h-504zM46 1928h504v28h-504zM46 1956h504v28h-504zM46 1984h504v28h-504zM46 2012h504v28h-504zM46 2040h504v28h-504zM46 2068h504v28h-504zM46 2096h504v28h-504zM46 2124h504v28h-504zM46 2152h504v28h-504zM46 2180h504v28h-504zM46 2208h504v28h-504zM46 2236h504v28h-504zM46 2264h504v28h-504zM46 2292h504v28h-504zM46 2320h504v28h-504zM46 2348h504v28h-504zM46 2376h504v28h-504zM46 2404h504v28h-504zM46 2432h504v28h-504zM46 2460h504v28h-504zM46 2488h504v28h-504zM46 2516h504v28h-504zM46 2544h504v28h-504zM46 2572h504v28h-504zM46 2600h504v28h-504zM46 2628h504v28h-504zM46 2656h504v28h-504zM46 2684h504v28h-504zM46 2712h504v28h-504zM46 2740h504v28h-504zM46 2768h504v28h-504zM46 2796h476v28h-476zM46 2824h448v28h-448zM46 2852h420v28h-420z" fill="url(#t_grass)"/>
<path d="M270 136h56v28h-56zM186 164h196v28h-196zM158 192h84v28h-84zM354 192h84v28h-84zM130 220h56v28h-56zM410 220h56v28h-56zM158 248h84v28h-84zM354 248h56v28h-56zM186 276h168v28h-168zM466 332h84v28h-84zM438 360h56v28h-56zM438 388h56v28h-56zM466 416h56v28h-56zM466 444h56v28h-56zM466 472h56v28h-56zM466 500h56v28h-56zM466 528h56v28h-56zM466 556h56v28h-56zM466 584h56v28h-56zM466 612h56v28h-56zM466 640h56v28h-56zM466 668h56v28h-56zM466 696h56v28h-56zM466 724h56v28h-56zM466 752h56v28h-56zM466 780h56v28h-56zM466 808h56v28h-56zM466 836h56v28h-56zM466 864h56v28h-56zM466 892h56v28h-56zM466 920h56v28h-56zM466 948h56v28h-56zM466 976h56v28h-56zM466 1004h56v28h-56zM466 1032h56v28h-56zM466 1060h56v28h-56zM466 1088h56v28h-56zM466 1116h56v28h-56zM466 1144h56v28h-56zM466 1172h56v28h-56zM466 1200h56v28h-56zM466 1228h56v28h-56zM466 1256h56v28h-56zM466 1284h56v28h-56zM466 1312h56v28h-56zM466 1340h56v28h-56zM466 1368h56v28h-56zM466 1396h56v28h-56zM466 1424h56v28h-56zM270 1452h112v28h-112zM242 1480h56v28h-56zM354 1480h56v28h-56zM242 1508h28v28h-28zM382 1508h28v28h-28zM242 1536h84v28h-84zM354 1536h56v28h-56zM270 1564h112v28h-112z" fill="url(#t_sand)"/>
<path d="M242 80h28v28h-28zM354 80h28v28h-28zM130 108h56v28h-56zM410 108h56v28h-56zM102 136h28v28h-28zM466 136h28v28h-28zM74 164h28v28h-28zM494 164h28v28h-28zM522 192h28v28h-28zM550 220h28v28h-28zM578 248h28v28h-28zM46 276h28v28h-28zM578 304h28v28h-28zM550 332h28v28h-28zM522 416h28v28h-28zM522 444h28v28h-28zM522 472h28v28h-28zM522 500h28v28h-28zM522 528h28v28h-28zM522 556h28v28h-28zM522 584h28v28h-28zM522 612h28v28h-28zM522 640h28v28h-28zM522 668h28v28h-28zM522 696h28v28h-28zM522 724h28v28h-28zM522 752h28v28h-28zM522 780h28v28h-28zM522 808h28v28h-28zM522 836h28v28h-28zM522 864h28v28h-28zM522 892h28v28h-28zM522 920h28v28h-28zM522 948h28v28h-28zM522 976h28v28h-28zM522 1004h28v28h-28zM522 1032h28v28h-28zM522 1060h28v28h-28zM522 1088h28v28h-28zM522 1116h28v28h-28zM522 1144h28v28h-28zM522 1172h28v28h-28zM522 1200h28v28h-28zM522 1228h28v28h-28zM522 1256h28v28h-28zM522 1284h28v28h-28zM522 1312h28v28h-28zM522 1340h28v28h-28zM522 1368h28v28h-28zM522 1396h28v28h-28zM522 1424h28v28h-28zM578 1452h28v28h-28zM578 1564h28v28h-28zM550 1592h28v28h-28zM550 1620h28v28h-28zM550 1648h28v28h-28zM550 1676h28v28h-28zM550 1704h28v28h-28zM550 1732h28v28h-28zM550 1760h28v28h-28zM550 1788h28v28h-28zM550 1816h28v28h-28zM550 1844h28v28h-28zM550 1872h28v28h-28zM550 1900h28v28h-28zM550 1928h28v28h-28zM550 1956h28v28h-28zM550 1984h28v28h-28zM550 2012h28v28h-28zM550 2040h28v28h-28zM550 2068h28v28h-28zM550 2096h28v28h-28zM550 2124h28v28h-28zM550 2152h28v28h-28zM550 2180h28v28h-28zM550 2208h28v28h-28zM550 2236h28v28h-28zM550 2264h28v28h-28zM550 2292h28v28h-28zM550 2320h28v28h-28zM550 2348h28v28h-28zM550 2376h28v28h-28zM550 2404h28v28h-28zM550 2432h28v28h-28zM550 2460h28v28h-28zM550 2488h28v28h-28zM550 2516h28v28h-28zM550 2544h28v28h-28zM550 2572h28v28h-28zM550 2600h28v28h-28zM550 2628h28v28h-28zM550 2656h28v28h-28zM550 2684h28v28h-28zM550 2712h28v28h-28zM550 2740h28v28h-28zM550 2768h28v28h-28zM522 2796h28v28h-28zM494 2824h28v28h-28zM466 2852h28v28h-28z" fill="#241c10" opacity="0.28" filter="url(#softblur)" transform="translate(2.6,3.4)"/>
<path d="M242 80h28v28h-28zM354 80h28v28h-28zM130 108h56v28h-56zM410 108h56v28h-56zM102 136h28v28h-28zM466 136h28v28h-28zM74 164h28v28h-28zM494 164h28v28h-28zM522 192h28v28h-28zM550 220h28v28h-28zM578 248h28v28h-28zM46 276h28v28h-28zM578 304h28v28h-28zM550 332h28v28h-28zM522 416h28v28h-28zM522 444h28v28h-28zM522 472h28v28h-28zM522 500h28v28h-28zM522 528h28v28h-28zM522 556h28v28h-28zM522 584h28v28h-28zM522 612h28v28h-28zM522 640h28v28h-28zM522 668h28v28h-28zM522 696h28v28h-28zM522 724h28v28h-28zM522 752h28v28h-28zM522 780h28v28h-28zM522 808h28v28h-28zM522 836h28v28h-28zM522 864h28v28h-28zM522 892h28v28h-28zM522 920h28v28h-28zM522 948h28v28h-28zM522 976h28v28h-28zM522 1004h28v28h-28zM522 1032h28v28h-28zM522 1060h28v28h-28zM522 1088h28v28h-28zM522 1116h28v28h-28zM522 1144h28v28h-28zM522 1172h28v28h-28zM522 1200h28v28h-28zM522 1228h28v28h-28zM522 1256h28v28h-28zM522 1284h28v28h-28zM522 1312h28v28h-28zM522 1340h28v28h-28zM522 1368h28v28h-28zM522 1396h28v28h-28zM522 1424h28v28h-28zM578 1452h28v28h-28zM578 1564h28v28h-28zM550 1592h28v28h-28zM550 1620h28v28h-28zM550 1648h28v28h-28zM550 1676h28v28h-28zM550 1704h28v28h-28zM550 1732h28v28h-28zM550 1760h28v28h-28zM550 1788h28v28h-28zM550 1816h28v28h-28zM550 1844h28v28h-28zM550 1872h28v28h-28zM550 1900h28v28h-28zM550 1928h28v28h-28zM550 1956h28v28h-28zM550 1984h28v28h-28zM550 2012h28v28h-28zM550 2040h28v28h-28zM550 2068h28v28h-28zM550 2096h28v28h-28zM550 2124h28v28h-28zM550 2152h28v28h-28zM550 2180h28v28h-28zM550 2208h28v28h-28zM550 2236h28v28h-28zM550 2264h28v28h-28zM550 2292h28v28h-28zM550 2320h28v28h-28zM550 2348h28v28h-28zM550 2376h28v28h-28zM550 2404h28v28h-28zM550 2432h28v28h-28zM550 2460h28v28h-28zM550 2488h28v28h-28zM550 2516h28v28h-28zM550 2544h28v28h-28zM550 2572h28v28h-28zM550 2600h28v28h-28zM550 2628h28v28h-28zM550 2656h28v28h-28zM550 2684h28v28h-28zM550 2712h28v28h-28zM550 2740h28v28h-28zM550 2768h28v28h-28zM522 2796h28v28h-28zM494 2824h28v28h-28zM466 2852h28v28h-28z" fill="url(#t_struct)"/>
<path d="M46 80v196M46 304v2576M74 192v84M130 220v28M158 192v28M158 248v28M186 164v28M186 220v28M186 276v28M242 192v28M242 248v28M242 1480v84M270 136v28M270 1452v28M270 1508v28M270 1564v28M298 1480v28M326 136v28M326 1536v28M354 192v28M354 248v56M354 1480v28M354 1536v28M382 164v28M382 1452v28M382 1508v28M382 1564v28M410 220v56M410 1480v84M438 192v28M438 360v56M466 220v28M466 332v28M466 416v1036M494 360v56M606 80v168M606 276v28M606 332v1120M606 1480v84M606 1592v1288M46 80h196M270 80h84M382 80h224M186 108h56M382 108h28M270 136h56M186 164h84M326 164h56M158 192h28M242 192h112M382 192h56M130 220h28M186 220h56M354 220h56M438 220h28M130 248h28M186 248h56M354 248h112M158 276h28M242 276h168M186 304h168M466 332h84M438 360h28M494 360h56M438 416h28M494 416h28M270 1452h112M466 1452h56M550 1452h28M242 1480h28M298 1480h56M382 1480h28M270 1508h28M354 1508h28M270 1536h56M354 1536h28M242 1564h28M326 1564h28M382 1564h28M270 1592h112M46 2880h420M494 2880h112" fill="none" stroke="#7a6a50" stroke-width="0.9" opacity="0.5" stroke-linecap="round" filter="url(#rough)"/>
<path d="M46 276v28M74 164v28M74 276v28M102 136v56M130 108v56M186 108v28M242 80v28M270 80v28M354 80v28M382 80v28M410 108v28M466 108v56M466 2852v28M494 136v56M494 2824v56M522 164v56M522 416v1036M522 2796v56M550 192v56M550 332v28M550 416v1036M550 1592v1232M578 220v56M578 304v56M578 1452v28M578 1564v1232M606 248v28M606 304v28M606 1452v28M606 1564v28M242 80h28M354 80h28M130 108h56M242 108h28M354 108h28M410 108h56M102 136h84M410 136h84M74 164h56M466 164h56M74 192h28M494 192h56M522 220h56M550 248h56M46 276h28M578 276h28M46 304h28M578 304h28M550 332h56M550 360h28M522 416h28M522 1452h28M578 1452h28M578 1480h28M578 1564h28M550 1592h56M522 2796h56M494 2824h56M466 2852h56M466 2880h28" fill="none" stroke="#241c10" stroke-width="1.8" opacity="0.9" stroke-linecap="round" filter="url(#rough)"/>
<path d="M74 80v2800M102 80v2800M130 80v2800M158 80v2800M214 80v2800M242 80v2800M270 80v2800M298 80v2800M354 80v2800M382 80v2800M410 80v2800M438 80v2800M494 80v2800M522 80v2800M550 80v2800M578 80v2800M46 108h560M46 136h560M46 164h560M46 192h560M46 248h560M46 276h560M46 304h560M46 332h560M46 388h560M46 416h560M46 444h560M46 472h560M46 528h560M46 556h560M46 584h560M46 612h560M46 668h560M46 696h560M46 724h560M46 752h560M46 808h560M46 836h560M46 864h560M46 892h560M46 948h560M46 976h560M46 1004h560M46 1032h560M46 1088h560M46 1116h560M46 1144h560M46 1172h560M46 1228h560M46 1256h560M46 1284h560M46 1312h560M46 1368h560M46 1396h560M46 1424h560M46 1452h560M46 1508h560M46 1536h560M46 1564h560M46 1592h560M46 1648h560M46 1676h560M46 1704h560M46 1732h560M46 1788h560M46 1816h560M46 1844h560M46 1872h560M46 1928h560M46 1956h560M46 1984h560M46 2012h560M46 2068h560M46 2096h560M46 2124h560M46 2152h560M46 2208h560M46 2236h560M46 2264h560M46 2292h560M46 2348h560M46 2376h560M46 2404h560M46 2432h560M46 2488h560M46 2516h560M46 2544h560M46 2572h560M46 2628h560M46 2656h560M46 2684h560M46 2712h560M46 2768h560M46 2796h560M46 2824h560M46 2852h560" stroke="#2e2313" stroke-width="0.5" opacity="0.16" fill="none"/>
<path d="M46 80v2800M186 80v2800M326 80v2800M466 80v2800M606 80v2800M46 80h560M46 220h560M46 360h560M46 500h560M46 640h560M46 780h560M46 920h560M46 1060h560M46 1200h560M46 1340h560M46 1480h560M46 1620h560M46 1760h560M46 1900h560M46 2040h560M46 2180h560M46 2320h560M46 2460h560M46 2600h560M46 2740h560M46 2880h560" stroke="#2e2313" stroke-width="1.2" opacity="0.28" fill="none"/>
<ellipse cx="313.4" cy="1524.2" rx="10.36" ry="8.495199999999999" fill="#241c10" opacity="0.3"/>
<circle cx="312.0" cy="1522.0" r="10.36" fill="url(#g_d62828)" stroke="#241c10" stroke-width="1.6"/>
<circle cx="312.0" cy="1522.0" r="7.959999999999999" fill="none" stroke="#ffffff" stroke-width="0.9" opacity="0.55"/>
<ellipse cx="341.4" cy="1524.2" rx="10.36" ry="8.495199999999999" fill="#241c10" opacity="0.3"/>
<circle cx="340.0" cy="1522.0" r="10.36" fill="url(#g_d62828)" stroke="#241c10" stroke-width="1.6"/>
<circle cx="340.0" cy="1522.0" r="7.959999999999999" fill="none" stroke="#ffffff" stroke-width="0.9" opacity="0.55"/>
<ellipse cx="313.4" cy="1552.2" rx="10.36" ry="8.495199999999999" fill="#241c10" opacity="0.3"/>
<circle cx="312.0" cy="1550.0" r="10.36" fill="url(#g_d62828)" stroke="#241c10" stroke-width="1.6"/>
<circle cx="312.0" cy="1550.0" r="7.959999999999999" fill="none" stroke="#ffffff" stroke-width="0.9" opacity="0.55"/>
<ellipse cx="229.4" cy="2840.2" rx="10.36" ry="8.495199999999999" fill="#241c10" opacity="0.3"/>
<circle cx="228.0" cy="2838.0" r="10.36" fill="url(#g_1d6fd8)" stroke="#241c10" stroke-width="1.6"/>
<circle cx="228.0" cy="2838.0" r="7.959999999999999" fill="none" stroke="#ffffff" stroke-width="0.9" opacity="0.55"/>
<ellipse cx="257.4" cy="2840.2" rx="10.36" ry="8.495199999999999" fill="#241c10" opacity="0.3"/>
<circle cx="256.0" cy="2838.0" r="10.36" fill="url(#g_1d6fd8)" stroke="#241c10" stroke-width="1.6"/>
<circle cx="256.0" cy="2838.0" r="7.959999999999999" fill="none" stroke="#ffffff" stroke-width="0.9" opacity="0.55"/>
<ellipse cx="285.4" cy="2840.2" rx="10.36" ry="8.495199999999999" fill="#241c10" opacity="0.3"/>
<circle cx="284.0" cy="2838.0" r="10.36" fill="url(#g_1d6fd8)" stroke="#241c10" stroke-width="1.6"/>
<circle cx="284.0" cy="2838.0" r="7.959999999999999" fill="none" stroke="#ffffff" stroke-width="0.9" opacity="0.55"/>
<ellipse cx="313.4" cy="2840.2" rx="10.36" ry="8.495199999999999" fill="#241c10" opacity="0.3"/>
<circle cx="312.0" cy="2838.0" r="10.36" fill="url(#g_1d6fd8)" stroke="#241c10" stroke-width="1.6"/>
<circle cx="312.0" cy="2838.0" r="7.959999999999999" fill="none" stroke="#ffffff" stroke-width="0.9" opacity="0.55"/>
<text x="60.0" y="72" font-size="10" text-anchor="middle" fill="#7a6a50">A</text>
<text x="88.0" y="72" font-size="10" text-anchor="middle" fill="#7a6a50">B</text>
<text x="116.0" y="72" font-size="10" text-anchor="middle" fill="#7a6a50">C</text>
<text x="144.0" y="72" font-size="10" text-anchor="middle" fill="#7a6a50">D</text>
<text x="172.0" y="72" font-size="10" text-anchor="middle" fill="#7a6a50">E</text>
<text x="200.0" y="72" font-size="10" text-anchor="middle" fill="#7a6a50">F</text>
<text x="228.0" y="72" font-size="10" text-anchor="middle" fill="#7a6a50">G</text>
<text x="256.0" y="72" font-size="10" text-anchor="middle" fill="#7a6a50">H</text>
<text x="284.0" y="72" font-size="10" text-anchor="middle" fill="#7a6a50">I</text>
<text x="312.0" y="72" font-size="10" text-anchor="middle" fill="#7a6a50">J</text>
<text x="340.0" y="72" font-size="10" text-anchor="middle" fill="#7a6a50">K</text>
<text x="368.0" y="72" font-size="10" text-anchor="middle" fill="#7a6a50">L</text>
<text x="396.0" y="72" font-size="10" text-anchor="middle" fill="#7a6a50">M</text>
<text x="424.0" y="72" font-size="10" text-anchor="middle" fill="#7a6a50">N</text>
<text x="452.0" y="72" font-size="10" text-anchor="middle" fill="#7a6a50">O</text>
<text x="480.0" y="72" font-size="10" text-anchor="middle" fill="#7a6a50">P</text>
<text x="508.0" y="72" font-size="10" text-anchor="middle" fill="#7a6a50">Q</text>
<text x="536.0" y="72" font-size="10" text-anchor="middle" fill="#7a6a50">R</text>
<text x="564.0" y="72" font-size="10" text-anchor="middle" fill="#7a6a50">S</text>
<text x="592.0" y="72" font-size="10" text-anchor="middle" fill="#7a6a50">T</text>
<text x="37" y="97.0" font-size="10" text-anchor="end" fill="#7a6a50">01</text>
<text x="37" y="125.0" font-size="10" text-anchor="end" fill="#7a6a50">02</text>
<text x="37" y="153.0" font-size="10" text-anchor="end" fill="#7a6a50">03</text>
<text x="37" y="181.0" font-size="10" text-anchor="end" fill="#7a6a50">04</text>
<text x="37" y="209.0" font-size="10" text-anchor="end" fill="#7a6a50">05</text>
<text x="37" y="237.0" font-size="10" text-anchor="end" fill="#7a6a50">06</text>
<text x="37" y="265.0" font-size="10" text-anchor="end" fill="#7a6a50">07</text>
<text x="37" y="293.0" font-size="10" text-anchor="end" fill="#7a6a50">08</text>
<text x="37" y="321.0" font-size="10" text-anchor="end" fill="#7a6a50">09</text>
<text x="37" y="349.0" font-size="10" text-anchor="end" fill="#7a6a50">10</text>
<text x="37" y="377.0" font-size="10" text-anchor="end" fill="#7a6a50">11</text>
<text x="37" y="405.0" font-size="10" text-anchor="end" fill="#7a6a50">12</text>
<text x="37" y="433.0" font-size="10" text-anchor="end" fill="#7a6a50">13</text>
<text x="37" y="461.0" font-size="10" text-anchor="end" fill="#b1a184">14</text>
<text x="37" y="489.0" font-size="10" text-anchor="end" fill="#b1a184">15</text>
<text x="37" y="517.0" font-size="10" text-anchor="end" fill="#b1a184">16</text>
<text x="37" y="545.0" font-size="10" text-anchor="end" fill="#b1a184">17</text>
<text x="37" y="573.0" font-size="10" text-anchor="end" fill="#b1a184">18</text>
<text x="37" y="601.0" font-size="10" text-anchor="end" fill="#b1a184">19</text>
<text x="37" y="629.0" font-size="10" text-anchor="end" fill="#b1a184">20</text>
<text x="37" y="657.0" font-size="10" text-anchor="end" fill="#b1a184">21</text>
<text x="37" y="685.0" font-size="10" text-anchor="end" fill="#b1a184">22</text>
<text x="37" y="713.0" font-size="10" text-anchor="end" fill="#b1a184">23</text>
<text x="37" y="741.0" font-size="10" text-anchor="end" fill="#b1a184">24</text>
<text x="37" y="769.0" font-size="10" text-anchor="end" fill="#b1a184">25</text>
<text x="37" y="797.0" font-size="10" text-anchor="end" fill="#b1a184">26</text>
<text x="37" y="825.0" font-size="10" text-anchor="end" fill="#b1a184">27</text>
<text x="37" y="853.0" font-size="10" text-anchor="end" fill="#b1a184">28</text>
<text x="37" y="881.0" font-size="10" text-anchor="end" fill="#b1a184">29</text>
<text x="37" y="909.0" font-size="10" text-anchor="end" fill="#b1a184">30</text>
<text x="37" y="937.0" font-size="10" text-anchor="end" fill="#b1a184">31</text>
<text x="37" y="965.0" font-size="10" text-anchor="end" fill="#b1a184">32</text>
<text x="37" y="993.0" font-size="10" text-anchor="end" fill="#b1a184">33</text>
<text x="37" y="1021.0" font-size="10" text-anchor="end" fill="#b1a184">34</text>
<text x="37" y="1049.0" font-size="10" text-anchor="end" fill="#b1a184">35</text>
<text x="37" y="1077.0" font-size="10" text-anchor="end" fill="#b1a184">36</text>
<text x="37" y="1105.0" font-size="10" text-anchor="end" fill="#b1a184">37</text>
<text x="37" y="1133.0" font-size="10" text-anchor="end" fill="#b1a184">38</text>
<text x="37" y="1161.0" font-size="10" text-anchor="end" fill="#b1a184">39</text>
<text x="37" y="1189.0" font-size="10" text-anchor="end" fill="#b1a184">40</text>
<text x="37" y="1217.0" font-size="10" text-anchor="end" fill="#b1a184">41</text>
<text x="37" y="1245.0" font-size="10" text-anchor="end" fill="#b1a184">42</text>
<text x="37" y="1273.0" font-size="10" text-anchor="end" fill="#b1a184">43</text>
<text x="37" y="1301.0" font-size="10" text-anchor="end" fill="#b1a184">44</text>
<text x="37" y="1329.0" font-size="10" text-anchor="end" fill="#b1a184">45</text>
<text x="37" y="1357.0" font-size="10" text-anchor="end" fill="#b1a184">46</text>
<text x="37" y="1385.0" font-size="10" text-anchor="end" fill="#b1a184">47</text>
<text x="37" y="1413.0" font-size="10" text-anchor="end" fill="#b1a184">48</text>
<text x="37" y="1441.0" font-size="10" text-anchor="end" fill="#b1a184">49</text>
<text x="37" y="1469.0" font-size="10" text-anchor="end" fill="#7a6a50">50</text>
<text x="37" y="1497.0" font-size="10" text-anchor="end" fill="#7a6a50">51</text>
<text x="37" y="1525.0" font-size="10" text-anchor="end" fill="#7a6a50">52</text>
<text x="37" y="1553.0" font-size="10" text-anchor="end" fill="#7a6a50">53</text>
<text x="37" y="1581.0" font-size="10" text-anchor="end" fill="#7a6a50">54</text>
<text x="37" y="1609.0" font-size="10" text-anchor="end" fill="#7a6a50">55</text>
<text x="37" y="1637.0" font-size="10" text-anchor="end" fill="#b1a184">56</text>
<text x="37" y="1665.0" font-size="10" text-anchor="end" fill="#b1a184">57</text>
<text x="37" y="1693.0" font-size="10" text-anchor="end" fill="#b1a184">58</text>
<text x="37" y="1721.0" font-size="10" text-anchor="end" fill="#b1a184">59</text>
<text x="37" y="1749.0" font-size="10" text-anchor="end" fill="#b1a184">60</text>
<text x="37" y="1777.0" font-size="10" text-anchor="end" fill="#b1a184">61</text>
<text x="37" y="1805.0" font-size="10" text-anchor="end" fill="#b1a184">62</text>
<text x="37" y="1833.0" font-size="10" text-anchor="end" fill="#b1a184">63</text>
<text x="37" y="1861.0" font-size="10" text-anchor="end" fill="#b1a184">64</text>
<text x="37" y="1889.0" font-size="10" text-anchor="end" fill="#b1a184">65</text>
<text x="37" y="1917.0" font-size="10" text-anchor="end" fill="#b1a184">66</text>
<text x="37" y="1945.0" font-size="10" text-anchor="end" fill="#b1a184">67</text>
<text x="37" y="1973.0" font-size="10" text-anchor="end" fill="#b1a184">68</text>
<text x="37" y="2001.0" font-size="10" text-anchor="end" fill="#b1a184">69</text>
<text x="37" y="2029.0" font-size="10" text-anchor="end" fill="#b1a184">70</text>
<text x="37" y="2057.0" font-size="10" text-anchor="end" fill="#b1a184">71</text>
<text x="37" y="2085.0" font-size="10" text-anchor="end" fill="#b1a184">72</text>
<text x="37" y="2113.0" font-size="10" text-anchor="end" fill="#b1a184">73</text>
<text x="37" y="2141.0" font-size="10" text-anchor="end" fill="#b1a184">74</text>
<text x="37" y="2169.0" font-size="10" text-anchor="end" fill="#b1a184">75</text>
<text x="37" y="2197.0" font-size="10" text-anchor="end" fill="#b1a184">76</text>
<text x="37" y="2225.0" font-size="10" text-anchor="end" fill="#b1a184">77</text>
<text x="37" y="2253.0" font-size="10" text-anchor="end" fill="#b1a184">78</text>
<text x="37" y="2281.0" font-size="10" text-anchor="end" fill="#b1a184">79</text>
<text x="37" y="2309.0" font-size="10" text-anchor="end" fill="#b1a184">80</text>
<text x="37" y="2337.0" font-size="10" text-anchor="end" fill="#b1a184">81</text>
<text x="37" y="2365.0" font-size="10" text-anchor="end" fill="#b1a184">82</text>
<text x="37" y="2393.0" font-size="10" text-anchor="end" fill="#b1a184">83</text>
<text x="37" y="2421.0" font-size="10" text-anchor="end" fill="#b1a184">84</text>
<text x="37" y="2449.0" font-size="10" text-anchor="end" fill="#b1a184">85</text>
<text x="37" y="2477.0" font-size="10" text-anchor="end" fill="#b1a184">86</text>
<text x="37" y="2505.0" font-size="10" text-anchor="end" fill="#b1a184">87</text>
<text x="37" y="2533.0" font-size="10" text-anchor="end" fill="#b1a184">88</text>
<text x="37" y="2561.0" font-size="10" text-anchor="end" fill="#b1a184">89</text>
<text x="37" y="2589.0" font-size="10" text-anchor="end" fill="#b1a184">90</text>
<text x="37" y="2617.0" font-size="10" text-anchor="end" fill="#b1a184">91</text>
<text x="37" y="2645.0" font-size="10" text-anchor="end" fill="#b1a184">92</text>
<text x="37" y="2673.0" font-size="10" text-anchor="end" fill="#b1a184">93</text>
<text x="37" y="2701.0" font-size="10" text-anchor="end" fill="#b1a184">94</text>
<text x="37" y="2729.0" font-size="10" text-anchor="end" fill="#b1a184">95</text>
<text x="37" y="2757.0" font-size="10" text-anchor="end" fill="#b1a184">96</text>
<text x="37" y="2785.0" font-size="10" text-anchor="end" fill="#b1a184">97</text>
<text x="37" y="2813.0" font-size="10" text-anchor="end" fill="#7a6a50">98</text>
<text x="37" y="2841.0" font-size="10" text-anchor="end" fill="#7a6a50">99</text>
<text x="37" y="2869.0" font-size="10" text-anchor="end" fill="#7a6a50">100</text>
<rect x="46" y="2899" width="28" height="7" fill="#3b2e1e" stroke="#3b2e1e" stroke-width="1"/>
<rect x="74" y="2899" width="28" height="7" fill="#efe4c9" stroke="#3b2e1e" stroke-width="1"/>
<rect x="102" y="2899" width="28" height="7" fill="#3b2e1e" stroke="#3b2e1e" stroke-width="1"/>
<rect x="130" y="2899" width="28" height="7" fill="#efe4c9" stroke="#3b2e1e" stroke-width="1"/>
<rect x="158" y="2899" width="28" height="7" fill="#3b2e1e" stroke="#3b2e1e" stroke-width="1"/>
<text x="196" y="2907" font-size="11" fill="#3b2e1e">7,5 m (5 quadretti)</text>
<text x="46" y="2936" font-size="12" font-weight="bold" fill="#3b2e1e" letter-spacing="2">LEGENDA</text>
<path d="M120 2932H606" stroke="#7a6a50" stroke-width="0.7" opacity="0.7"/>
<rect x="46" y="2942" width="19" height="15" fill="url(#t_struct)" stroke="#7a6a50" stroke-width="0.7"/>
<text x="73" y="2954" font-size="11" fill="#3b2e1e">⬛ — Struttura (tenda, edificio, dais)</text>
<circle cx="55" cy="2972" r="7.5" fill="url(#g_d62828)" stroke="#241c10" stroke-width="1.2"/>
<text x="73" y="2976" font-size="11" fill="#3b2e1e">🔴 — Nemico standard</text>
<circle cx="55" cy="2994" r="7.5" fill="url(#g_1d6fd8)" stroke="#241c10" stroke-width="1.2"/>
<text x="73" y="2998" font-size="11" fill="#3b2e1e">🔵 — PG / alleati</text>
<rect x="46" y="3008" width="19" height="15" fill="url(#t_sand)" stroke="#7a6a50" stroke-width="0.7"/>
<text x="73" y="3020" font-size="11" fill="#3b2e1e">🟨 — Sabbia / area segnalata</text>
<rect x="46" y="3030" width="19" height="15" fill="url(#t_grass)" stroke="#7a6a50" stroke-width="0.7"/>
<text x="73" y="3042" font-size="11" fill="#3b2e1e">🟩 — Pianura / area aperta</text>
<rect x="46" y="3052" width="19" height="15" fill="url(#t_earth)" stroke="#7a6a50" stroke-width="0.7"/>
<text x="73" y="3064" font-size="11" fill="#3b2e1e">🟫 — Terra battuta / sentiero</text>
<text x="46" y="3096" font-size="9" font-style="italic" fill="#7a6a50">fonte: Hammerfist-Lotto-1-Ricognizione.md · SVG generato da scripts/render_map_svg.py (stile pergamena) — non modificare a mano</text>
</svg>