<svg width="150" height="50" viewBox="0 0 150 50" fill="none" xmlns="http://www.w3.org/2000/svg">
<path fill-rule="evenodd" clip-rule="evenodd" d="M87.6411 14.1306C87.4755 14.6402 85.9557 23.9473 85.9557 23.9473C85.9557 23.9473 93.9288 16.5852 95.2253 14.1306C95.2253 14.1306 91.5583 14.1306 87.6411 14.1306ZM109.972 14.1303C109.289 17.0381 105.759 35.2435 105.759 35.8978H109.13L114.607 31.6296L112.922 35.8978H123.455L124.298 31.2028C119.015 31.2028 112.922 31.2028 112.922 31.2028C113.032 30.7922 113.358 29.1925 113.499 28.5468L113.757 27.373H118.56H123.362L124.298 22.2397C120.627 22.2397 114.607 22.2397 114.607 22.2397C114.696 21.9465 115.049 20.6563 115.189 20.0105L115.442 18.8368H120.877H126.311L126.768 16.6818C127.019 15.4965 127.224 14.3441 127.224 14.1209C118.623 14.1209 109.972 14.1303 109.972 14.1303ZM130.197 14.1209C129.933 15.4513 129.354 18.6297 129.354 18.8252H133.989L137.36 14.1303C137.36 14.1303 132.135 14.1209 130.197 14.1209ZM136.517 18.8252L132.725 35.8978C132.725 35.8978 136.804 35.8978 139.045 35.8978L142.416 18.8252H149.157L150 14.1302L140.73 14.1303L136.517 18.8252ZM100.281 14.1303C99.5596 14.7692 95.5885 18.1926 94.8039 18.8255L96.1153 18.8137C98.7361 18.8444 99.4153 19.1611 99.4153 20.3519C99.4153 21.9085 97.9098 22.6781 94.8639 22.6781H92.1855L92.4707 21.2909C92.7425 19.9665 92.6098 20.0489 89.5411 23.1049L84.6917 28.6419C84.4186 30.1678 83.5528 35.465 83.4276 35.8978H91.0118C98.2101 35.762 99.4263 36.0032 101.101 35.2132C103.629 34.0194 104.913 32.517 105.19 30.4286C105.477 28.2617 105.108 26.7371 104.032 25.6479C103.195 24.7993 102.809 24.8006 102.809 24.8006C104.127 23.4655 106.18 22.0971 106.18 20.106C106.18 18.3984 106.18 17.5451 104.916 15.8378C103.652 14.1306 100.281 14.1303 100.281 14.1303ZM98.4883 27.8852C99.2375 28.6441 99.1035 29.7013 98.1462 30.5788C97.5235 31.1499 96.3922 31.4094 93.886 31.5562L90.5905 31.6296L91.4332 27.3615C91.4332 27.3615 97.9334 27.3231 98.4883 27.8852Z" fill="white"/>
<path fill-rule="evenodd" clip-rule="evenodd" d="M47.5 7.5L48.75 8.125L51.25 3.75L47.5 7.5ZM42.5 9.375H43.75L45 8.75L44.375 8.125L42.5 9.375ZM38.75 11.875C38.75 11.875 40.1735 12.7128 39.7507 13.5664C39.7507 13.5664 39.2363 13.3658 36.6796 13.4012C31.3254 13.4755 26.8917 16.1094 24.6171 20.5679C23.6961 22.3729 23.4965 23.3503 23.4741 26.1689C23.4593 28.0469 24.5276 30.6389 24.5276 30.6389L25.7941 29.3585C26.7084 28.5249 28.9415 26.7157 29.602 26.3708C29.1791 22.9563 31.7163 18.6881 37.2135 18.6881C37.2135 18.6881 39.7084 17.1614 40.1735 16.9809L38.905 18.6881C38.905 18.6881 39.0356 18.8853 40.1735 19.9686C41.4447 21.1782 41.448 21.9849 41.4421 23.8099C41.4341 26.1766 40.1704 28.5864 38.4011 29.9104C36.8555 31.0666 33.8621 31.3488 32.2214 30.4921L30.9186 29.8122L28.3334 34.9071L30.3126 36.0335C34.9514 37.3946 41.0347 36.0399 43.9583 32.995C45.3217 31.5758 46.0936 30.2121 46.0936 30.2121L46.25 32.5L47.3291 32.995L48.75 30.625C48.75 30.625 47.8409 28.7341 47.3291 27.9969C47.3291 27.9969 48.2079 23.3831 47.7851 20.8222C47.9653 20.7098 49.1883 19.4714 49.1883 19.4714L49.0536 18.2613L50 15.625C48.1187 16.8226 46.0936 16.9809 46.0936 16.9809C46.0936 16.9809 43.9793 15.2736 42.2879 14.42C42.2143 13.5984 41.875 11.875 41.875 11.875L41.25 12.5L40 11.25L38.75 11.875ZM46.25 11.25L44.375 12.5L46.25 14.375H46.875L47.5 13.125L46.25 11.25ZM4.22817 13.9932C4.11146 14.4038 3.76176 16.6928 3.38245 18.6881C3.00314 20.6835 2.66443 22.9136 2.53673 23.3831L6.34248 18.6881L9.72538 13.9932C7.28166 13.9932 4.22817 13.9932 4.22817 13.9932ZM7.21038 21.2836C4.69747 24.3059 4.02988 24.8121 1.68892 27.2244C1.68892 27.2244 0.736626 32.3799 0 35.7607H6.34248L7.18821 30.2121C7.18821 30.2121 9.03672 30.2518 11.6838 30.1579C16.9404 29.971 19.4512 28.0781 20.9725 26.1689C22.1737 24.6616 22.4112 22.9563 22.4112 21.249C22.4112 17.8345 20.7198 13.9932 11.8397 13.9932C11.8397 13.9932 9.72329 18.2613 7.21038 21.2836ZM51.168 13.9935C51.8602 19.6275 53.7039 35.4678 53.7051 35.761H60.4709L63.6667 29.8058L67.2367 22.9566C67.3894 24.0668 68.2245 33.3547 68.5053 35.761H75.2711C78.4062 29.7396 86.611 14.1929 86.6884 13.9935C86.6884 13.9935 82.6234 13.9935 80.7683 13.9935L73.5796 27.6516C73.1788 24.1304 71.9013 14.2974 71.8882 13.9935H65.9681L62.4192 20.2819C60.4555 24.0041 58.9512 27.5056 58.7795 27.2248C58.4877 23.6873 57.5109 19.1153 57.5109 19.1153C57.0161 19.476 55.6237 20.4581 54.9737 20.8226L53.2823 22.103C53.7466 21.2114 56.6127 14.6978 57.088 13.9935C57.088 13.9935 54.1758 13.9935 51.168 13.9935ZM15.2226 19.5418C16.0231 20.1961 16.1218 20.9366 15.8774 22.2521C15.5057 24.2521 13.9783 25.1019 10.7535 25.1019C8.69421 25.1019 8.45679 25.0904 8.45679 25.0904C8.57139 24.6798 8.91875 22.9358 9.06971 22.1142C9.62619 19.0868 9.72748 18.6881 9.72748 18.6881C11.276 18.6881 13.954 18.6882 15.2226 19.5418ZM44.4022 34.9071C44.1226 35.2468 41.0193 37.0411 41.0193 37.0411L38.4209 37.9779V39.6028L40.625 40.625L42.7107 40.0288L42.8572 38.4649L44.4022 34.9071Z" fill="#FFDC26"/>
</svg>
