<svg xmlns="http://www.w3.org/2000/svg" width="1576" height="1476" viewBox="0 0 1576 1476" font-family="Georgia, 'Palatino Linotype', 'Times New Roman', serif">
<defs>
<filter id="grain" x="0" y="0" width="100%" height="100%"><feTurbulence type="fractalNoise" baseFrequency="0.8" numOctaves="2" seed="11" stitchTiles="stitch"/><feColorMatrix type="matrix" values="0 0 0 0 0.36 0 0 0 0 0.28 0 0 0 0 0.16 0 0 0 0.18 0"/><feComposite operator="over" in2="SourceGraphic"/></filter>
<filter id="rough" x="-5%" y="-5%" width="110%" height="110%"><feTurbulence type="fractalNoise" baseFrequency="0.045" numOctaves="2" seed="7" result="n"/><feDisplacementMap in="SourceGraphic" in2="n" scale="2.6"/></filter>
<filter id="softblur" x="-20%" y="-20%" width="140%" height="140%"><feGaussianBlur stdDeviation="1.6"/></filter>
<radialGradient id="vign" cx="0.5" cy="0.45" r="0.75"><stop offset="0.62" stop-color="#3b2e1e" stop-opacity="0"/><stop offset="1" stop-color="#3b2e1e" stop-opacity="0.16"/></radialGradient>
<pattern id="t_forest" width="42" height="42" patternUnits="userSpaceOnUse"><rect width="42" height="42" fill="#55754d"/><circle cx="10" cy="12" r="9" fill="#435f3c"/><circle cx="7.4799999999999995" cy="9.3" r="5.58" fill="#5d7f53"/><circle cx="6.4" cy="7.95" r="2.34" fill="#6f9163"/><circle cx="30" cy="28" r="10" fill="#435f3c"/><circle cx="27.2" cy="25.0" r="6.2" fill="#5d7f53"/><circle cx="26.0" cy="23.5" r="2.6" fill="#6f9163"/><circle cx="34" cy="6" r="7" fill="#435f3c"/><circle cx="32.04" cy="3.9" r="4.34" fill="#5d7f53"/><circle cx="31.2" cy="2.85" r="1.82" fill="#6f9163"/><circle cx="6" cy="34" r="7.5" fill="#435f3c"/><circle cx="3.9" cy="31.75" r="4.65" fill="#5d7f53"/><circle cx="3.0" cy="30.625" r="1.9500000000000002" fill="#6f9163"/></pattern>
<pattern id="t_grass" width="28" height="28" patternUnits="userSpaceOnUse"><rect width="28" height="28" fill="#b3c489"/><path d="M5 21q1.5-4 3-5M8 21q0-3 2-5M20 8q1.5-2.5 3-3.5" stroke="#94a76a" stroke-width="0.9" stroke-opacity="0.6" fill="none" stroke-linecap="round"/><circle cx="14" cy="16" r="0.9" fill="#c5d29b"/><circle cx="24" cy="24" r="0.8" fill="#c5d29b"/><circle cx="4" cy="7" r="0.8" fill="#a3b573"/><circle cx="25" cy="13" r="0.7" fill="#a3b573"/></pattern>
<pattern id="t_struct" width="28" height="28" patternUnits="userSpaceOnUse"><rect width="28" height="28" fill="#6b5b47"/><path d="M-2 6l8-8M-2 14l16-16M-2 22l24-24M6 30l24-24M14 30l16-16M22 30l8-8" stroke="#5a4b39" stroke-width="0.9"/><path d="M0 14.5h28" stroke="#7d6c56" stroke-width="0.8"/></pattern>
<radialGradient id="g_212529" cx="0.35" cy="0.3" r="0.8"><stop offset="0" stop-color="#858789"/><stop offset="0.55" stop-color="#212529"/><stop offset="1" stop-color="#15181b"/></radialGradient>
<radialGradient id="g_d62828" cx="0.35" cy="0.3" r="0.8"><stop offset="0" stop-color="#e88989"/><stop offset="0.55" stop-color="#d62828"/><stop offset="1" stop-color="#8b1a1a"/></radialGradient>
<radialGradient id="g_f4b400" cx="0.35" cy="0.3" r="0.8"><stop offset="0" stop-color="#f9d673"/><stop offset="0.55" stop-color="#f4b400"/><stop offset="1" stop-color="#9f7500"/></radialGradient>
</defs>
<rect width="1576" height="1476" fill="#efe4c9" filter="url(#grain)"/>
<rect width="1576" height="1476" fill="url(#vign)"/>
<rect x="5" y="5" width="1566" height="1466" fill="none" stroke="#3b2e1e" stroke-width="0.8" opacity="0.8"/>
<rect x="9" y="9" width="1558" height="1458" fill="none" stroke="#3b2e1e" stroke-width="2" opacity="0.85"/>
<text x="46" y="34" font-size="19" font-weight="bold" fill="#3b2e1e" letter-spacing="0.5">CAMPO DROW 1 - BURNING OPERATIONS BASE (80m × 60m, Grid 53×40, Scala 1.5m/sq)</text>
<text x="46" y="51" font-size="11" font-style="italic" fill="#7a6a50">53×40 quadretti · scala 1,5 m/quadretto</text>
<rect x="41" y="75" width="1494" height="1130" fill="#e6d9b8" stroke="#3b2e1e" stroke-width="1.6"/>
<path d="M46 80h1484v28h-1484zM46 108h1484v28h-1484zM46 136h1484v28h-1484zM46 164h112v28h-112zM1306 164h224v28h-224zM46 192h84v28h-84zM1362 192h140v28h-140zM46 220h56v28h-56zM1362 220h140v28h-140zM46 248h56v28h-56zM1362 248h140v28h-140zM46 276h56v28h-56zM1306 276h196v28h-196zM46 304h56v28h-56zM1306 304h196v28h-196zM46 332h56v28h-56zM1306 332h196v28h-196zM46 360h56v28h-56zM1306 360h196v28h-196zM46 388h56v28h-56zM1278 388h196v28h-196zM46 416h56v28h-56zM1278 416h196v28h-196zM46 444h56v28h-56zM1278 444h196v28h-196zM46 472h56v28h-56zM1278 472h196v28h-196zM46 500h56v28h-56zM1278 500h196v28h-196zM46 528h56v28h-56zM1278 528h196v28h-196zM46 556h56v28h-56zM1278 556h196v28h-196zM46 584h56v28h-56zM1278 584h196v28h-196zM46 612h28v28h-28zM1250 612h196v28h-196zM46 640h28v28h-28zM1250 640h196v28h-196zM46 668h28v28h-28zM1250 668h196v28h-196zM46 696h28v28h-28zM1250 696h196v28h-196zM46 724h28v28h-28zM1250 724h196v28h-196zM46 752h28v28h-28zM1250 752h196v28h-196zM46 780h28v28h-28zM1250 780h196v28h-196zM46 808h28v28h-28zM1250 808h196v28h-196zM46 836h28v28h-28zM1250 836h196v28h-196zM46 864h28v28h-28zM1250 864h196v28h-196zM46 892h28v28h-28zM1250 892h196v28h-196zM46 920h28v28h-28zM1250 920h196v28h-196zM46 948h28v28h-28zM1250 948h196v28h-196zM46 976h56v28h-56zM1306 976h196v28h-196zM46 1004h56v28h-56zM1306 1004h196v28h-196zM46 1032h56v28h-56zM1306 1032h196v28h-196zM46 1060h56v28h-56zM1306 1060h196v28h-196zM46 1088h56v28h-56zM1306 1088h196v28h-196zM46 1116h84v28h-84zM1306 1116h196v28h-196zM46 1144h1484v28h-1484zM46 1172h1484v28h-1484z" fill="url(#t_forest)"/>
<path d="M158 164h1148v28h-1148zM130 192h1232v28h-1232zM102 220h1260v28h-1260zM102 248h1260v28h-1260zM102 276h196v28h-196zM970 276h336v28h-336zM102 304h196v28h-196zM970 304h336v28h-336zM102 332h168v28h-168zM998 332h308v28h-308zM102 360h168v28h-168zM998 360h308v28h-308zM102 388h140v28h-140zM970 388h308v28h-308zM102 416h140v28h-140zM970 416h308v28h-308zM102 444h140v28h-140zM970 444h308v28h-308zM102 472h140v28h-140zM802 472h476v28h-476zM102 500h140v28h-140zM802 500h476v28h-476zM102 528h140v28h-140zM802 528h476v28h-476zM102 556h140v28h-140zM830 556h448v28h-448zM102 584h140v28h-140zM830 584h448v28h-448zM74 612h168v28h-168zM802 612h448v28h-448zM74 640h168v28h-168zM802 640h448v28h-448zM74 668h168v28h-168zM774 668h476v28h-476zM74 696h168v28h-168zM774 696h476v28h-476zM74 724h168v28h-168zM774 724h476v28h-476zM74 752h168v28h-168zM774 752h476v28h-476zM74 780h168v28h-168zM774 780h476v28h-476zM74 808h168v28h-168zM774 808h476v28h-476zM74 836h168v28h-168zM774 836h476v28h-476zM74 864h168v28h-168zM774 864h476v28h-476zM74 892h168v28h-168zM774 892h476v28h-476zM74 920h168v28h-168zM774 920h476v28h-476zM74 948h168v28h-168zM774 948h476v28h-476zM102 976h1204v28h-1204zM102 1004h1204v28h-1204zM102 1032h1204v28h-1204zM102 1060h1204v28h-1204zM102 1088h1204v28h-1204zM130 1116h1176v28h-1176z" fill="url(#t_grass)"/>
<path d="M298 276h672v28h-672zM298 304h672v28h-672zM270 332h728v28h-728zM270 360h728v28h-728zM242 388h728v28h-728zM242 416h728v28h-728zM242 444h728v28h-728zM242 472h560v28h-560zM242 500h560v28h-560zM242 528h560v28h-560zM242 556h588v28h-588zM242 584h588v28h-588zM242 612h560v28h-560zM242 640h560v28h-560zM242 668h532v28h-532zM242 696h532v28h-532zM242 724h532v28h-532zM242 752h532v28h-532zM242 780h532v28h-532zM242 808h532v28h-532zM242 836h532v28h-532zM242 864h532v28h-532zM242 892h532v28h-532zM242 920h532v28h-532zM242 948h532v28h-532z" fill="#241c10" opacity="0.28" filter="url(#softblur)" transform="translate(2.6,3.4)"/>
<path d="M298 276h672v28h-672zM298 304h672v28h-672zM270 332h728v28h-728zM270 360h728v28h-728zM242 388h728v28h-728zM242 416h728v28h-728zM242 444h728v28h-728zM242 472h560v28h-560zM242 500h560v28h-560zM242 528h560v28h-560zM242 556h588v28h-588zM242 584h588v28h-588zM242 612h560v28h-560zM242 640h560v28h-560zM242 668h532v28h-532zM242 696h532v28h-532zM242 724h532v28h-532zM242 752h532v28h-532zM242 780h532v28h-532zM242 808h532v28h-532zM242 836h532v28h-532zM242 864h532v28h-532zM242 892h532v28h-532zM242 920h532v28h-532zM242 948h532v28h-532z" fill="url(#t_struct)"/>
<path d="M46 80v1120M74 612v364M102 220v392M102 976v140M130 192v28M130 1116v28M158 164v28M1250 612v364M1278 388v224M1306 164v28M1306 276v112M1306 976v168M1362 192v84M1446 612v364M1474 388v224M1502 192v196M1502 976v168M1530 80v112M1530 1144v56M46 80h1484M158 164h1148M130 192h28M1306 192h56M1502 192h28M102 220h28M1306 276h56M1278 388h28M1474 388h28M74 612h28M1250 612h28M1446 612h28M74 976h28M1250 976h56M1446 976h56M102 1116h28M130 1144h1176M1502 1144h28M46 1200h1484" fill="none" stroke="#7a6a50" stroke-width="0.9" opacity="0.5" stroke-linecap="round" filter="url(#rough)"/>
<path d="M242 388v588M270 332v56M298 276v56M774 668v308M802 472v84M802 612v56M830 556v56M970 276v56M970 388v84M998 332v56M298 276h672M270 332h28M970 332h28M242 388h28M970 388h28M802 472h168M802 556h28M802 612h28M774 668h28M242 976h532" fill="none" stroke="#241c10" stroke-width="1.8" opacity="0.9" stroke-linecap="round" filter="url(#rough)"/>
<path d="M74 80v1120M102 80v1120M130 80v1120M158 80v1120M214 80v1120M242 80v1120M270 80v1120M298 80v1120M354 80v1120M382 80v1120M410 80v1120M438 80v1120M494 80v1120M522 80v1120M550 80v1120M578 80v1120M634 80v1120M662 80v1120M690 80v1120M718 80v1120M774 80v1120M802 80v1120M830 80v1120M858 80v1120M914 80v1120M942 80v1120M970 80v1120M998 80v1120M1054 80v1120M1082 80v1120M1110 80v1120M1138 80v1120M1194 80v1120M1222 80v1120M1250 80v1120M1278 80v1120M1334 80v1120M1362 80v1120M1390 80v1120M1418 80v1120M1474 80v1120M1502 80v1120M1530 80v1120M46 108h1484M46 136h1484M46 164h1484M46 192h1484M46 248h1484M46 276h1484M46 304h1484M46 332h1484M46 388h1484M46 416h1484M46 444h1484M46 472h1484M46 528h1484M46 556h1484M46 584h1484M46 612h1484M46 668h1484M46 696h1484M46 724h1484M46 752h1484M46 808h1484M46 836h1484M46 864h1484M46 892h1484M46 948h1484M46 976h1484M46 1004h1484M46 1032h1484M46 1088h1484M46 1116h1484M46 1144h1484M46 1172h1484" stroke="#2e2313" stroke-width="0.5" opacity="0.16" fill="none"/>
<path d="M46 80v1120M186 80v1120M326 80v1120M466 80v1120M606 80v1120M746 80v1120M886 80v1120M1026 80v1120M1166 80v1120M1306 80v1120M1446 80v1120M46 80h1484M46 220h1484M46 360h1484M46 500h1484M46 640h1484M46 780h1484M46 920h1484M46 1060h1484M46 1200h1484" stroke="#2e2313" stroke-width="1.2" opacity="0.28" fill="none"/>
<ellipse cx="425.4" cy="236.2" rx="10.36" ry="8.495199999999999" fill="#241c10" opacity="0.3"/>
<circle cx="424.0" cy="234.0" r="10.36" fill="url(#g_d62828)" stroke="#241c10" stroke-width="1.6"/>
<circle cx="424.0" cy="234.0" r="7.959999999999999" fill="none" stroke="#ffffff" stroke-width="0.9" opacity="0.55"/>
<ellipse cx="1041.4" cy="236.2" rx="10.36" ry="8.495199999999999" fill="#241c10" opacity="0.3"/>
<circle cx="1040.0" cy="234.0" r="10.36" fill="url(#g_d62828)" stroke="#241c10" stroke-width="1.6"/>
<circle cx="1040.0" cy="234.0" r="7.959999999999999" fill="none" stroke="#ffffff" stroke-width="0.9" opacity="0.55"/>
<ellipse cx="425.4" cy="264.2" rx="10.36" ry="8.495199999999999" fill="#241c10" opacity="0.3"/>
<circle cx="424.0" cy="262.0" r="10.36" fill="url(#g_d62828)" stroke="#241c10" stroke-width="1.6"/>
<circle cx="424.0" cy="262.0" r="7.959999999999999" fill="none" stroke="#ffffff" stroke-width="0.9" opacity="0.55"/>
<ellipse cx="1041.4" cy="264.2" rx="10.36" ry="8.495199999999999" fill="#241c10" opacity="0.3"/>
<circle cx="1040.0" cy="262.0" r="10.36" fill="url(#g_d62828)" stroke="#241c10" stroke-width="1.6"/>
<circle cx="1040.0" cy="262.0" r="7.959999999999999" fill="none" stroke="#ffffff" stroke-width="0.9" opacity="0.55"/>
<ellipse cx="369.4" cy="404.2" rx="10.36" ry="8.495199999999999" fill="#241c10" opacity="0.3"/>
<circle cx="368.0" cy="402.0" r="10.36" fill="url(#g_d62828)" stroke="#241c10" stroke-width="1.6"/>
<circle cx="368.0" cy="402.0" r="7.959999999999999" fill="none" stroke="#ffffff" stroke-width="0.9" opacity="0.55"/>
<ellipse cx="481.4" cy="404.2" rx="10.36" ry="8.495199999999999" fill="#241c10" opacity="0.3"/>
<circle cx="480.0" cy="402.0" r="10.36" fill="url(#g_f4b400)" stroke="#241c10" stroke-width="1.6"/>
<circle cx="480.0" cy="402.0" r="7.959999999999999" fill="none" stroke="#ffffff" stroke-width="0.9" opacity="0.55"/>
<ellipse cx="593.4" cy="404.2" rx="10.36" ry="8.495199999999999" fill="#241c10" opacity="0.3"/>
<circle cx="592.0" cy="402.0" r="10.36" fill="url(#g_d62828)" stroke="#241c10" stroke-width="1.6"/>
<circle cx="592.0" cy="402.0" r="7.959999999999999" fill="none" stroke="#ffffff" stroke-width="0.9" opacity="0.55"/>
<ellipse cx="705.4" cy="404.2" rx="10.36" ry="8.495199999999999" fill="#241c10" opacity="0.3"/>
<circle cx="704.0" cy="402.0" r="10.36" fill="url(#g_f4b400)" stroke="#241c10" stroke-width="1.6"/>
<circle cx="704.0" cy="402.0" r="7.959999999999999" fill="none" stroke="#ffffff" stroke-width="0.9" opacity="0.55"/>
<ellipse cx="817.4" cy="404.2" rx="10.36" ry="8.495199999999999" fill="#241c10" opacity="0.3"/>
<circle cx="816.0" cy="402.0" r="10.36" fill="url(#g_d62828)" stroke="#241c10" stroke-width="1.6"/>
<circle cx="816.0" cy="402.0" r="7.959999999999999" fill="none" stroke="#ffffff" stroke-width="0.9" opacity="0.55"/>
<ellipse cx="369.4" cy="432.2" rx="10.36" ry="8.495199999999999" fill="#241c10" opacity="0.3"/>
<circle cx="368.0" cy="430.0" r="10.36" fill="url(#g_d62828)" stroke="#241c10" stroke-width="1.6"/>
<circle cx="368.0" cy="430.0" r="7.959999999999999" fill="none" stroke="#ffffff" stroke-width="0.9" opacity="0.55"/>
<ellipse cx="481.4" cy="432.2" rx="10.36" ry="8.495199999999999" fill="#241c10" opacity="0.3"/>
<circle cx="480.0" cy="430.0" r="10.36" fill="url(#g_f4b400)" stroke="#241c10" stroke-width="1.6"/>
<circle cx="480.0" cy="430.0" r="7.959999999999999" fill="none" stroke="#ffffff" stroke-width="0.9" opacity="0.55"/>
<ellipse cx="593.4" cy="432.2" rx="10.36" ry="8.495199999999999" fill="#241c10" opacity="0.3"/>
<circle cx="592.0" cy="430.0" r="10.36" fill="url(#g_d62828)" stroke="#241c10" stroke-width="1.6"/>
<circle cx="592.0" cy="430.0" r="7.959999999999999" fill="none" stroke="#ffffff" stroke-width="0.9" opacity="0.55"/>
<ellipse cx="705.4" cy="432.2" rx="10.36" ry="8.495199999999999" fill="#241c10" opacity="0.3"/>
<circle cx="704.0" cy="430.0" r="10.36" fill="url(#g_f4b400)" stroke="#241c10" stroke-width="1.6"/>
<circle cx="704.0" cy="430.0" r="7.959999999999999" fill="none" stroke="#ffffff" stroke-width="0.9" opacity="0.55"/>
<ellipse cx="817.4" cy="432.2" rx="10.36" ry="8.495199999999999" fill="#241c10" opacity="0.3"/>
<circle cx="816.0" cy="430.0" r="10.36" fill="url(#g_d62828)" stroke="#241c10" stroke-width="1.6"/>
<circle cx="816.0" cy="430.0" r="7.959999999999999" fill="none" stroke="#ffffff" stroke-width="0.9" opacity="0.55"/>
<ellipse cx="369.4" cy="460.2" rx="10.36" ry="8.495199999999999" fill="#241c10" opacity="0.3"/>
<circle cx="368.0" cy="458.0" r="10.36" fill="url(#g_d62828)" stroke="#241c10" stroke-width="1.6"/>
<circle cx="368.0" cy="458.0" r="7.959999999999999" fill="none" stroke="#ffffff" stroke-width="0.9" opacity="0.55"/>
<ellipse cx="481.4" cy="460.2" rx="10.36" ry="8.495199999999999" fill="#241c10" opacity="0.3"/>
<circle cx="480.0" cy="458.0" r="10.36" fill="url(#g_f4b400)" stroke="#241c10" stroke-width="1.6"/>
<circle cx="480.0" cy="458.0" r="7.959999999999999" fill="none" stroke="#ffffff" stroke-width="0.9" opacity="0.55"/>
<ellipse cx="593.4" cy="460.2" rx="10.36" ry="8.495199999999999" fill="#241c10" opacity="0.3"/>
<circle cx="592.0" cy="458.0" r="10.36" fill="url(#g_d62828)" stroke="#241c10" stroke-width="1.6"/>
<circle cx="592.0" cy="458.0" r="7.959999999999999" fill="none" stroke="#ffffff" stroke-width="0.9" opacity="0.55"/>
<ellipse cx="705.4" cy="460.2" rx="10.36" ry="8.495199999999999" fill="#241c10" opacity="0.3"/>
<circle cx="704.0" cy="458.0" r="10.36" fill="url(#g_f4b400)" stroke="#241c10" stroke-width="1.6"/>
<circle cx="704.0" cy="458.0" r="7.959999999999999" fill="none" stroke="#ffffff" stroke-width="0.9" opacity="0.55"/>
<ellipse cx="817.4" cy="460.2" rx="10.36" ry="8.495199999999999" fill="#241c10" opacity="0.3"/>
<circle cx="816.0" cy="458.0" r="10.36" fill="url(#g_d62828)" stroke="#241c10" stroke-width="1.6"/>
<circle cx="816.0" cy="458.0" r="7.959999999999999" fill="none" stroke="#ffffff" stroke-width="0.9" opacity="0.55"/>
<ellipse cx="313.4" cy="488.2" rx="10.36" ry="8.495199999999999" fill="#241c10" opacity="0.3"/>
<circle cx="312.0" cy="486.0" r="10.36" fill="url(#g_d62828)" stroke="#241c10" stroke-width="1.6"/>
<circle cx="312.0" cy="486.0" r="7.959999999999999" fill="none" stroke="#ffffff" stroke-width="0.9" opacity="0.55"/>
<ellipse cx="397.4" cy="488.2" rx="10.36" ry="8.495199999999999" fill="#241c10" opacity="0.3"/>
<circle cx="396.0" cy="486.0" r="10.36" fill="url(#g_d62828)" stroke="#241c10" stroke-width="1.6"/>
<circle cx="396.0" cy="486.0" r="7.959999999999999" fill="none" stroke="#ffffff" stroke-width="0.9" opacity="0.55"/>
<ellipse cx="537.4" cy="488.2" rx="10.36" ry="8.495199999999999" fill="#241c10" opacity="0.3"/>
<circle cx="536.0" cy="486.0" r="10.36" fill="url(#g_d62828)" stroke="#241c10" stroke-width="1.6"/>
<circle cx="536.0" cy="486.0" r="7.959999999999999" fill="none" stroke="#ffffff" stroke-width="0.9" opacity="0.55"/>
<ellipse cx="621.4" cy="488.2" rx="10.36" ry="8.495199999999999" fill="#241c10" opacity="0.3"/>
<circle cx="620.0" cy="486.0" r="10.36" fill="url(#g_d62828)" stroke="#241c10" stroke-width="1.6"/>
<circle cx="620.0" cy="486.0" r="7.959999999999999" fill="none" stroke="#ffffff" stroke-width="0.9" opacity="0.55"/>
<ellipse cx="705.4" cy="488.2" rx="10.36" ry="8.495199999999999" fill="#241c10" opacity="0.3"/>
<circle cx="704.0" cy="486.0" r="10.36" fill="url(#g_d62828)" stroke="#241c10" stroke-width="1.6"/>
<circle cx="704.0" cy="486.0" r="7.959999999999999" fill="none" stroke="#ffffff" stroke-width="0.9" opacity="0.55"/>
<ellipse cx="313.4" cy="516.2" rx="10.36" ry="8.495199999999999" fill="#241c10" opacity="0.3"/>
<circle cx="312.0" cy="514.0" r="10.36" fill="url(#g_d62828)" stroke="#241c10" stroke-width="1.6"/>
<circle cx="312.0" cy="514.0" r="7.959999999999999" fill="none" stroke="#ffffff" stroke-width="0.9" opacity="0.55"/>
<ellipse cx="397.4" cy="516.2" rx="10.36" ry="8.495199999999999" fill="#241c10" opacity="0.3"/>
<circle cx="396.0" cy="514.0" r="10.36" fill="url(#g_d62828)" stroke="#241c10" stroke-width="1.6"/>
<circle cx="396.0" cy="514.0" r="7.959999999999999" fill="none" stroke="#ffffff" stroke-width="0.9" opacity="0.55"/>
<ellipse cx="537.4" cy="516.2" rx="10.36" ry="8.495199999999999" fill="#241c10" opacity="0.3"/>
<circle cx="536.0" cy="514.0" r="10.36" fill="url(#g_d62828)" stroke="#241c10" stroke-width="1.6"/>
<circle cx="536.0" cy="514.0" r="7.959999999999999" fill="none" stroke="#ffffff" stroke-width="0.9" opacity="0.55"/>
<ellipse cx="621.4" cy="516.2" rx="10.36" ry="8.495199999999999" fill="#241c10" opacity="0.3"/>
<circle cx="620.0" cy="514.0" r="10.36" fill="url(#g_d62828)" stroke="#241c10" stroke-width="1.6"/>
<circle cx="620.0" cy="514.0" r="7.959999999999999" fill="none" stroke="#ffffff" stroke-width="0.9" opacity="0.55"/>
<ellipse cx="705.4" cy="516.2" rx="10.36" ry="8.495199999999999" fill="#241c10" opacity="0.3"/>
<circle cx="704.0" cy="514.0" r="10.36" fill="url(#g_d62828)" stroke="#241c10" stroke-width="1.6"/>
<circle cx="704.0" cy="514.0" r="7.959999999999999" fill="none" stroke="#ffffff" stroke-width="0.9" opacity="0.55"/>
<ellipse cx="313.4" cy="544.2" rx="10.36" ry="8.495199999999999" fill="#241c10" opacity="0.3"/>
<circle cx="312.0" cy="542.0" r="10.36" fill="url(#g_d62828)" stroke="#241c10" stroke-width="1.6"/>
<circle cx="312.0" cy="542.0" r="7.959999999999999" fill="none" stroke="#ffffff" stroke-width="0.9" opacity="0.55"/>
<ellipse cx="397.4" cy="544.2" rx="10.36" ry="8.495199999999999" fill="#241c10" opacity="0.3"/>
<circle cx="396.0" cy="542.0" r="10.36" fill="url(#g_d62828)" stroke="#241c10" stroke-width="1.6"/>
<circle cx="396.0" cy="542.0" r="7.959999999999999" fill="none" stroke="#ffffff" stroke-width="0.9" opacity="0.55"/>
<ellipse cx="537.4" cy="544.2" rx="10.36" ry="8.495199999999999" fill="#241c10" opacity="0.3"/>
<circle cx="536.0" cy="542.0" r="10.36" fill="url(#g_d62828)" stroke="#241c10" stroke-width="1.6"/>
<circle cx="536.0" cy="542.0" r="7.959999999999999" fill="none" stroke="#ffffff" stroke-width="0.9" opacity="0.55"/>
<ellipse cx="621.4" cy="544.2" rx="10.36" ry="8.495199999999999" fill="#241c10" opacity="0.3"/>
<circle cx="620.0" cy="542.0" r="10.36" fill="url(#g_d62828)" stroke="#241c10" stroke-width="1.6"/>
<circle cx="620.0" cy="542.0" r="7.959999999999999" fill="none" stroke="#ffffff" stroke-width="0.9" opacity="0.55"/>
<ellipse cx="705.4" cy="544.2" rx="10.36" ry="8.495199999999999" fill="#241c10" opacity="0.3"/>
<circle cx="704.0" cy="542.0" r="10.36" fill="url(#g_d62828)" stroke="#241c10" stroke-width="1.6"/>
<circle cx="704.0" cy="542.0" r="7.959999999999999" fill="none" stroke="#ffffff" stroke-width="0.9" opacity="0.55"/>
<ellipse cx="424.0" cy="632.0" rx="7.5" ry="2.8" fill="#241c10" opacity="0.14"/>
<text x="424.0" y="632.0" font-size="17" text-anchor="middle">🔥</text>
<ellipse cx="452.0" cy="632.0" rx="7.5" ry="2.8" fill="#241c10" opacity="0.14"/>
<text x="452.0" y="632.0" font-size="17" text-anchor="middle">🔥</text>
<ellipse cx="480.0" cy="632.0" rx="7.5" ry="2.8" fill="#241c10" opacity="0.14"/>
<text x="480.0" y="632.0" font-size="17" text-anchor="middle">🔥</text>
<ellipse cx="508.0" cy="632.0" rx="7.5" ry="2.8" fill="#241c10" opacity="0.14"/>
<text x="508.0" y="632.0" font-size="17" text-anchor="middle">🔥</text>
<ellipse cx="536.0" cy="632.0" rx="7.5" ry="2.8" fill="#241c10" opacity="0.14"/>
<text x="536.0" y="632.0" font-size="17" text-anchor="middle">🔥</text>
<ellipse cx="564.0" cy="632.0" rx="7.5" ry="2.8" fill="#241c10" opacity="0.14"/>
<text x="564.0" y="632.0" font-size="17" text-anchor="middle">🔥</text>
<ellipse cx="592.0" cy="632.0" rx="7.5" ry="2.8" fill="#241c10" opacity="0.14"/>
<text x="592.0" y="632.0" font-size="17" text-anchor="middle">🔥</text>
<ellipse cx="396.0" cy="660.0" rx="7.5" ry="2.8" fill="#241c10" opacity="0.14"/>
<text x="396.0" y="660.0" font-size="17" text-anchor="middle">🔥</text>
<ellipse cx="424.0" cy="660.0" rx="7.5" ry="2.8" fill="#241c10" opacity="0.14"/>
<text x="424.0" y="660.0" font-size="17" text-anchor="middle">🔥</text>
<ellipse cx="452.0" cy="660.0" rx="7.5" ry="2.8" fill="#241c10" opacity="0.14"/>
<text x="452.0" y="660.0" font-size="17" text-anchor="middle">🔥</text>
<ellipse cx="480.0" cy="660.0" rx="7.5" ry="2.8" fill="#241c10" opacity="0.14"/>
<text x="480.0" y="660.0" font-size="17" text-anchor="middle">🔥</text>
<ellipse cx="508.0" cy="660.0" rx="7.5" ry="2.8" fill="#241c10" opacity="0.14"/>
<text x="508.0" y="660.0" font-size="17" text-anchor="middle">🔥</text>
<ellipse cx="536.0" cy="660.0" rx="7.5" ry="2.8" fill="#241c10" opacity="0.14"/>
<text x="536.0" y="660.0" font-size="17" text-anchor="middle">🔥</text>
<ellipse cx="564.0" cy="660.0" rx="7.5" ry="2.8" fill="#241c10" opacity="0.14"/>
<text x="564.0" y="660.0" font-size="17" text-anchor="middle">🔥</text>
<ellipse cx="592.0" cy="660.0" rx="7.5" ry="2.8" fill="#241c10" opacity="0.14"/>
<text x="592.0" y="660.0" font-size="17" text-anchor="middle">🔥</text>
<ellipse cx="620.0" cy="660.0" rx="7.5" ry="2.8" fill="#241c10" opacity="0.14"/>
<text x="620.0" y="660.0" font-size="17" text-anchor="middle">🔥</text>
<ellipse cx="424.0" cy="688.0" rx="7.5" ry="2.8" fill="#241c10" opacity="0.14"/>
<text x="424.0" y="688.0" font-size="17" text-anchor="middle">🔥</text>
<ellipse cx="452.0" cy="688.0" rx="7.5" ry="2.8" fill="#241c10" opacity="0.14"/>
<text x="452.0" y="688.0" font-size="17" text-anchor="middle">🔥</text>
<ellipse cx="480.0" cy="688.0" rx="7.5" ry="2.8" fill="#241c10" opacity="0.14"/>
<text x="480.0" y="688.0" font-size="17" text-anchor="middle">🔥</text>
<ellipse cx="508.0" cy="688.0" rx="7.5" ry="2.8" fill="#241c10" opacity="0.14"/>
<text x="508.0" y="688.0" font-size="17" text-anchor="middle">🔥</text>
<ellipse cx="536.0" cy="688.0" rx="7.5" ry="2.8" fill="#241c10" opacity="0.14"/>
<text x="536.0" y="688.0" font-size="17" text-anchor="middle">🔥</text>
<ellipse cx="564.0" cy="688.0" rx="7.5" ry="2.8" fill="#241c10" opacity="0.14"/>
<text x="564.0" y="688.0" font-size="17" text-anchor="middle">🔥</text>
<ellipse cx="592.0" cy="688.0" rx="7.5" ry="2.8" fill="#241c10" opacity="0.14"/>
<text x="592.0" y="688.0" font-size="17" text-anchor="middle">🔥</text>
<ellipse cx="424.0" cy="716.0" rx="7.5" ry="2.8" fill="#241c10" opacity="0.14"/>
<text x="424.0" y="716.0" font-size="17" text-anchor="middle">🔥</text>
<ellipse cx="452.0" cy="716.0" rx="7.5" ry="2.8" fill="#241c10" opacity="0.14"/>
<text x="452.0" y="716.0" font-size="17" text-anchor="middle">🔥</text>
<ellipse cx="480.0" cy="716.0" rx="7.5" ry="2.8" fill="#241c10" opacity="0.14"/>
<text x="480.0" y="716.0" font-size="17" text-anchor="middle">🔥</text>
<ellipse cx="508.0" cy="716.0" rx="7.5" ry="2.8" fill="#241c10" opacity="0.14"/>
<text x="508.0" y="716.0" font-size="17" text-anchor="middle">🔥</text>
<ellipse cx="536.0" cy="716.0" rx="7.5" ry="2.8" fill="#241c10" opacity="0.14"/>
<text x="536.0" y="716.0" font-size="17" text-anchor="middle">🔥</text>
<ellipse cx="564.0" cy="716.0" rx="7.5" ry="2.8" fill="#241c10" opacity="0.14"/>
<text x="564.0" y="716.0" font-size="17" text-anchor="middle">🔥</text>
<ellipse cx="592.0" cy="716.0" rx="7.5" ry="2.8" fill="#241c10" opacity="0.14"/>
<text x="592.0" y="716.0" font-size="17" text-anchor="middle">🔥</text>
<ellipse cx="313.4" cy="768.2" rx="10.36" ry="8.495199999999999" fill="#241c10" opacity="0.3"/>
<circle cx="312.0" cy="766.0" r="10.36" fill="url(#g_212529)" stroke="#241c10" stroke-width="1.6"/>
<circle cx="312.0" cy="766.0" r="7.959999999999999" fill="none" stroke="#ffffff" stroke-width="0.9" opacity="0.55"/>
<ellipse cx="480.0" cy="772.0" rx="7.5" ry="2.8" fill="#241c10" opacity="0.14"/>
<text x="480.0" y="772.0" font-size="17" text-anchor="middle">🏺</text>
<ellipse cx="508.0" cy="772.0" rx="7.5" ry="2.8" fill="#241c10" opacity="0.14"/>
<text x="508.0" y="772.0" font-size="17" text-anchor="middle">🏺</text>
<ellipse cx="536.0" cy="772.0" rx="7.5" ry="2.8" fill="#241c10" opacity="0.14"/>
<text x="536.0" y="772.0" font-size="17" text-anchor="middle">🏺</text>
<ellipse cx="649.4" cy="768.2" rx="10.36" ry="8.495199999999999" fill="#241c10" opacity="0.3"/>
<circle cx="648.0" cy="766.0" r="10.36" fill="url(#g_f4b400)" stroke="#241c10" stroke-width="1.6"/>
<circle cx="648.0" cy="766.0" r="7.959999999999999" fill="none" stroke="#ffffff" stroke-width="0.9" opacity="0.55"/>
<ellipse cx="313.4" cy="824.2" rx="10.36" ry="8.495199999999999" fill="#241c10" opacity="0.3"/>
<circle cx="312.0" cy="822.0" r="10.36" fill="url(#g_212529)" stroke="#241c10" stroke-width="1.6"/>
<circle cx="312.0" cy="822.0" r="7.959999999999999" fill="none" stroke="#ffffff" stroke-width="0.9" opacity="0.55"/>
<ellipse cx="649.4" cy="824.2" rx="10.36" ry="8.495199999999999" fill="#241c10" opacity="0.3"/>
<circle cx="648.0" cy="822.0" r="10.36" fill="url(#g_f4b400)" stroke="#241c10" stroke-width="1.6"/>
<circle cx="648.0" cy="822.0" r="7.959999999999999" fill="none" stroke="#ffffff" stroke-width="0.9" opacity="0.55"/>
<ellipse cx="313.4" cy="852.2" rx="10.36" ry="8.495199999999999" fill="#241c10" opacity="0.3"/>
<circle cx="312.0" cy="850.0" r="10.36" fill="url(#g_212529)" stroke="#241c10" stroke-width="1.6"/>
<circle cx="312.0" cy="850.0" r="7.959999999999999" fill="none" stroke="#ffffff" stroke-width="0.9" opacity="0.55"/>
<ellipse cx="649.4" cy="852.2" rx="10.36" ry="8.495199999999999" fill="#241c10" opacity="0.3"/>
<circle cx="648.0" cy="850.0" r="10.36" fill="url(#g_f4b400)" stroke="#241c10" stroke-width="1.6"/>
<circle cx="648.0" cy="850.0" r="7.959999999999999" fill="none" stroke="#ffffff" stroke-width="0.9" opacity="0.55"/>
<ellipse cx="313.4" cy="908.2" rx="10.36" ry="8.495199999999999" fill="#241c10" opacity="0.3"/>
<circle cx="312.0" cy="906.0" r="10.36" fill="url(#g_d62828)" stroke="#241c10" stroke-width="1.6"/>
<circle cx="312.0" cy="906.0" r="7.959999999999999" fill="none" stroke="#ffffff" stroke-width="0.9" opacity="0.55"/>
<ellipse cx="397.4" cy="908.2" rx="10.36" ry="8.495199999999999" fill="#241c10" opacity="0.3"/>
<circle cx="396.0" cy="906.0" r="10.36" fill="url(#g_f4b400)" stroke="#241c10" stroke-width="1.6"/>
<circle cx="396.0" cy="906.0" r="7.959999999999999" fill="none" stroke="#ffffff" stroke-width="0.9" opacity="0.55"/>
<ellipse cx="480.0" cy="912.0" rx="7.5" ry="2.8" fill="#241c10" opacity="0.14"/>
<text x="480.0" y="912.0" font-size="17" text-anchor="middle">🏺</text>
<ellipse cx="508.0" cy="912.0" rx="7.5" ry="2.8" fill="#241c10" opacity="0.14"/>
<text x="508.0" y="912.0" font-size="17" text-anchor="middle">🏺</text>
<ellipse cx="536.0" cy="912.0" rx="7.5" ry="2.8" fill="#241c10" opacity="0.14"/>
<text x="536.0" y="912.0" font-size="17" text-anchor="middle">🏺</text>
<ellipse cx="649.4" cy="908.2" rx="10.36" ry="8.495199999999999" fill="#241c10" opacity="0.3"/>
<circle cx="648.0" cy="906.0" r="10.36" fill="url(#g_d62828)" stroke="#241c10" stroke-width="1.6"/>
<circle cx="648.0" cy="906.0" r="7.959999999999999" fill="none" stroke="#ffffff" stroke-width="0.9" opacity="0.55"/>
<ellipse cx="313.4" cy="936.2" rx="10.36" ry="8.495199999999999" fill="#241c10" opacity="0.3"/>
<circle cx="312.0" cy="934.0" r="10.36" fill="url(#g_d62828)" stroke="#241c10" stroke-width="1.6"/>
<circle cx="312.0" cy="934.0" r="7.959999999999999" fill="none" stroke="#ffffff" stroke-width="0.9" opacity="0.55"/>
<ellipse cx="397.4" cy="936.2" rx="10.36" ry="8.495199999999999" fill="#241c10" opacity="0.3"/>
<circle cx="396.0" cy="934.0" r="10.36" fill="url(#g_f4b400)" stroke="#241c10" stroke-width="1.6"/>
<circle cx="396.0" cy="934.0" r="7.959999999999999" fill="none" stroke="#ffffff" stroke-width="0.9" opacity="0.55"/>
<ellipse cx="480.0" cy="940.0" rx="7.5" ry="2.8" fill="#241c10" opacity="0.14"/>
<text x="480.0" y="940.0" font-size="17" text-anchor="middle">🏺</text>
<ellipse cx="508.0" cy="940.0" rx="7.5" ry="2.8" fill="#241c10" opacity="0.14"/>
<text x="508.0" y="940.0" font-size="17" text-anchor="middle">🏺</text>
<ellipse cx="536.0" cy="940.0" rx="7.5" ry="2.8" fill="#241c10" opacity="0.14"/>
<text x="536.0" y="940.0" font-size="17" text-anchor="middle">🏺</text>
<ellipse cx="649.4" cy="936.2" rx="10.36" ry="8.495199999999999" fill="#241c10" opacity="0.3"/>
<circle cx="648.0" cy="934.0" r="10.36" fill="url(#g_d62828)" stroke="#241c10" stroke-width="1.6"/>
<circle cx="648.0" cy="934.0" r="7.959999999999999" fill="none" stroke="#ffffff" stroke-width="0.9" opacity="0.55"/>
<ellipse cx="313.4" cy="964.2" rx="10.36" ry="8.495199999999999" fill="#241c10" opacity="0.3"/>
<circle cx="312.0" cy="962.0" r="10.36" fill="url(#g_d62828)" stroke="#241c10" stroke-width="1.6"/>
<circle cx="312.0" cy="962.0" r="7.959999999999999" fill="none" stroke="#ffffff" stroke-width="0.9" opacity="0.55"/>
<ellipse cx="397.4" cy="964.2" rx="10.36" ry="8.495199999999999" fill="#241c10" opacity="0.3"/>
<circle cx="396.0" cy="962.0" r="10.36" fill="url(#g_f4b400)" stroke="#241c10" stroke-width="1.6"/>
<circle cx="396.0" cy="962.0" r="7.959999999999999" fill="none" stroke="#ffffff" stroke-width="0.9" opacity="0.55"/>
<ellipse cx="480.0" cy="968.0" rx="7.5" ry="2.8" fill="#241c10" opacity="0.14"/>
<text x="480.0" y="968.0" font-size="17" text-anchor="middle">🏺</text>
<ellipse cx="508.0" cy="968.0" rx="7.5" ry="2.8" fill="#241c10" opacity="0.14"/>
<text x="508.0" y="968.0" font-size="17" text-anchor="middle">🏺</text>
<ellipse cx="536.0" cy="968.0" rx="7.5" ry="2.8" fill="#241c10" opacity="0.14"/>
<text x="536.0" y="968.0" font-size="17" text-anchor="middle">🏺</text>
<ellipse cx="649.4" cy="964.2" rx="10.36" ry="8.495199999999999" fill="#241c10" opacity="0.3"/>
<circle cx="648.0" cy="962.0" r="10.36" fill="url(#g_d62828)" stroke="#241c10" stroke-width="1.6"/>
<circle cx="648.0" cy="962.0" r="7.959999999999999" fill="none" stroke="#ffffff" stroke-width="0.9" opacity="0.55"/>
<ellipse cx="481.4" cy="992.2" rx="10.36" ry="8.495199999999999" fill="#241c10" opacity="0.3"/>
<circle cx="480.0" cy="990.0" r="10.36" fill="url(#g_d62828)" stroke="#241c10" stroke-width="1.6"/>
<circle cx="480.0" cy="990.0" r="7.959999999999999" fill="none" stroke="#ffffff" stroke-width="0.9" opacity="0.55"/>
<ellipse cx="789.4" cy="992.2" rx="10.36" ry="8.495199999999999" fill="#241c10" opacity="0.3"/>
<circle cx="788.0" cy="990.0" r="10.36" fill="url(#g_d62828)" stroke="#241c10" stroke-width="1.6"/>
<circle cx="788.0" cy="990.0" r="7.959999999999999" fill="none" stroke="#ffffff" stroke-width="0.9" opacity="0.55"/>
<ellipse cx="481.4" cy="1020.2" rx="10.36" ry="8.495199999999999" fill="#241c10" opacity="0.3"/>
<circle cx="480.0" cy="1018.0" r="10.36" fill="url(#g_d62828)" stroke="#241c10" stroke-width="1.6"/>
<circle cx="480.0" cy="1018.0" r="7.959999999999999" fill="none" stroke="#ffffff" stroke-width="0.9" opacity="0.55"/>
<ellipse cx="789.4" cy="1020.2" rx="10.36" ry="8.495199999999999" fill="#241c10" opacity="0.3"/>
<circle cx="788.0" cy="1018.0" r="10.36" fill="url(#g_d62828)" stroke="#241c10" stroke-width="1.6"/>
<circle cx="788.0" cy="1018.0" r="7.959999999999999" fill="none" stroke="#ffffff" stroke-width="0.9" opacity="0.55"/>
<ellipse cx="649.4" cy="1048.2" rx="10.36" ry="8.495199999999999" fill="#241c10" opacity="0.3"/>
<circle cx="648.0" cy="1046.0" r="10.36" fill="url(#g_d62828)" stroke="#241c10" stroke-width="1.6"/>
<circle cx="648.0" cy="1046.0" r="7.959999999999999" fill="none" stroke="#ffffff" stroke-width="0.9" opacity="0.55"/>
<ellipse cx="649.4" cy="1076.2" rx="10.36" ry="8.495199999999999" fill="#241c10" opacity="0.3"/>
<circle cx="648.0" cy="1074.0" r="10.36" fill="url(#g_d62828)" stroke="#241c10" stroke-width="1.6"/>
<circle cx="648.0" cy="1074.0" r="7.959999999999999" fill="none" stroke="#ffffff" stroke-width="0.9" opacity="0.55"/>
<ellipse cx="649.4" cy="1104.2" rx="10.36" ry="8.495199999999999" fill="#241c10" opacity="0.3"/>
<circle cx="648.0" cy="1102.0" r="10.36" fill="url(#g_d62828)" stroke="#241c10" stroke-width="1.6"/>
<circle cx="648.0" cy="1102.0" r="7.959999999999999" fill="none" stroke="#ffffff" stroke-width="0.9" opacity="0.55"/>
<text x="60.0" y="72" font-size="10" text-anchor="middle" fill="#7a6a50">A</text>
<text x="88.0" y="72" font-size="10" text-anchor="middle" fill="#7a6a50">B</text>
<text x="116.0" y="72" font-size="10" text-anchor="middle" fill="#7a6a50">C</text>
<text x="144.0" y="72" font-size="10" text-anchor="middle" fill="#7a6a50">D</text>
<text x="172.0" y="72" font-size="10" text-anchor="middle" fill="#7a6a50">E</text>
<text x="200.0" y="72" font-size="10" text-anchor="middle" fill="#7a6a50">F</text>
<text x="228.0" y="72" font-size="10" text-anchor="middle" fill="#7a6a50">G</text>
<text x="256.0" y="72" font-size="10" text-anchor="middle" fill="#7a6a50">H</text>
<text x="284.0" y="72" font-size="10" text-anchor="middle" fill="#7a6a50">I</text>
<text x="312.0" y="72" font-size="10" text-anchor="middle" fill="#7a6a50">J</text>
<text x="340.0" y="72" font-size="10" text-anchor="middle" fill="#7a6a50">K</text>
<text x="368.0" y="72" font-size="10" text-anchor="middle" fill="#7a6a50">L</text>
<text x="396.0" y="72" font-size="10" text-anchor="middle" fill="#7a6a50">M</text>
<text x="424.0" y="72" font-size="10" text-anchor="middle" fill="#7a6a50">N</text>
<text x="452.0" y="72" font-size="10" text-anchor="middle" fill="#7a6a50">O</text>
<text x="480.0" y="72" font-size="10" text-anchor="middle" fill="#7a6a50">P</text>
<text x="508.0" y="72" font-size="10" text-anchor="middle" fill="#7a6a50">Q</text>
<text x="536.0" y="72" font-size="10" text-anchor="middle" fill="#7a6a50">R</text>
<text x="564.0" y="72" font-size="10" text-anchor="middle" fill="#7a6a50">S</text>
<text x="592.0" y="72" font-size="10" text-anchor="middle" fill="#7a6a50">T</text>
<text x="620.0" y="72" font-size="10" text-anchor="middle" fill="#7a6a50">U</text>
<text x="648.0" y="72" font-size="10" text-anchor="middle" fill="#7a6a50">V</text>
<text x="676.0" y="72" font-size="10" text-anchor="middle" fill="#7a6a50">W</text>
<text x="704.0" y="72" font-size="10" text-anchor="middle" fill="#7a6a50">X</text>
<text x="732.0" y="72" font-size="10" text-anchor="middle" fill="#7a6a50">Y</text>
<text x="760.0" y="72" font-size="10" text-anchor="middle" fill="#7a6a50">Z</text>
<text x="788.0" y="72" font-size="10" text-anchor="middle" fill="#7a6a50">AA</text>
<text x="816.0" y="72" font-size="10" text-anchor="middle" fill="#7a6a50">AB</text>
<text x="844.0" y="72" font-size="10" text-anchor="middle" fill="#7a6a50">AC</text>
<text x="872.0" y="72" font-size="10" text-anchor="middle" fill="#7a6a50">AD</text>
<text x="900.0" y="72" font-size="10" text-anchor="middle" fill="#7a6a50">AE</text>
<text x="928.0" y="72" font-size="10" text-anchor="middle" fill="#7a6a50">AF</text>
<text x="956.0" y="72" font-size="10" text-anchor="middle" fill="#7a6a50">AG</text>
<text x="984.0" y="72" font-size="10" text-anchor="middle" fill="#7a6a50">AH</text>
<text x="1012.0" y="72" font-size="10" text-anchor="middle" fill="#7a6a50">AI</text>
<text x="1040.0" y="72" font-size="10" text-anchor="middle" fill="#7a6a50">AJ</text>
<text x="1068.0" y="72" font-size="10" text-anchor="middle" fill="#7a6a50">AK</text>
<text x="1096.0" y="72" font-size="10" text-anchor="middle" fill="#7a6a50">AL</text>
<text x="1124.0" y="72" font-size="10" text-anchor="middle" fill="#7a6a50">AM</text>
<text x="1152.0" y="72" font-size="10" text-anchor="middle" fill="#7a6a50">AN</text>
<text x="1180.0" y="72" font-size="10" text-anchor="middle" fill="#7a6a50">AO</text>
<text x="1208.0" y="72" font-size="10" text-anchor="middle" fill="#7a6a50">AP</text>
<text x="1236.0" y="72" font-size="10" text-anchor="middle" fill="#7a6a50">AQ</text>
<text x="1264.0" y="72" font-size="10" text-anchor="middle" fill="#7a6a50">AR</text>
<text x="1292.0" y="72" font-size="10" text-anchor="middle" fill="#7a6a50">AS</text>
<text x="1320.0" y="72" font-size="10" text-anchor="middle" fill="#7a6a50">AT</text>
<text x="1348.0" y="72" font-size="10" text-anchor="middle" fill="#7a6a50">AU</text>
<text x="1376.0" y="72" font-size="10" text-anchor="middle" fill="#7a6a50">AV</text>
<text x="1404.0" y="72" font-size="10" text-anchor="middle" fill="#7a6a50">AW</text>
<text x="1432.0" y="72" font-size="10" text-anchor="middle" fill="#7a6a50">AX</text>
<text x="1460.0" y="72" font-size="10" text-anchor="middle" fill="#7a6a50">AY</text>
<text x="1488.0" y="72" font-size="10" text-anchor="middle" fill="#7a6a50">AZ</text>
<text x="1516.0" y="72" font-size="10" text-anchor="middle" fill="#7a6a50">BA</text>
<text x="37" y="97.0" font-size="10" text-anchor="end" fill="#7a6a50">01</text>
<text x="37" y="125.0" font-size="10" text-anchor="end" fill="#7a6a50">02</text>
<text x="37" y="153.0" font-size="10" text-anchor="end" fill="#7a6a50">03</text>
<text x="37" y="181.0" font-size="10" text-anchor="end" fill="#7a6a50">04</text>
<text x="37" y="209.0" font-size="10" text-anchor="end" fill="#7a6a50">05</text>
<text x="37" y="237.0" font-size="10" text-anchor="end" fill="#7a6a50">06</text>
<text x="37" y="265.0" font-size="10" text-anchor="end" fill="#b1a184">07</text>
<text x="37" y="293.0" font-size="10" text-anchor="end" fill="#7a6a50">08</text>
<text x="37" y="321.0" font-size="10" text-anchor="end" fill="#b1a184">09</text>
<text x="37" y="349.0" font-size="10" text-anchor="end" fill="#7a6a50">10</text>
<text x="37" y="377.0" font-size="10" text-anchor="end" fill="#b1a184">11</text>
<text x="37" y="405.0" font-size="10" text-anchor="end" fill="#7a6a50">12</text>
<text x="37" y="433.0" font-size="10" text-anchor="end" fill="#b1a184">13</text>
<text x="37" y="461.0" font-size="10" text-anchor="end" fill="#b1a184">14</text>
<text x="37" y="489.0" font-size="10" text-anchor="end" fill="#7a6a50">15</text>
<text x="37" y="517.0" font-size="10" text-anchor="end" fill="#b1a184">16</text>
<text x="37" y="545.0" font-size="10" text-anchor="end" fill="#b1a184">17</text>
<text x="37" y="573.0" font-size="10" text-anchor="end" fill="#7a6a50">18</text>
<text x="37" y="601.0" font-size="10" text-anchor="end" fill="#b1a184">19</text>
<text x="37" y="629.0" font-size="10" text-anchor="end" fill="#7a6a50">20</text>
<text x="37" y="657.0" font-size="10" text-anchor="end" fill="#7a6a50">21</text>
<text x="37" y="685.0" font-size="10" text-anchor="end" fill="#7a6a50">22</text>
<text x="37" y="713.0" font-size="10" text-anchor="end" fill="#b1a184">23</text>
<text x="37" y="741.0" font-size="10" text-anchor="end" fill="#7a6a50">24</text>
<text x="37" y="769.0" font-size="10" text-anchor="end" fill="#7a6a50">25</text>
<text x="37" y="797.0" font-size="10" text-anchor="end" fill="#7a6a50">26</text>
<text x="37" y="825.0" font-size="10" text-anchor="end" fill="#7a6a50">27</text>
<text x="37" y="853.0" font-size="10" text-anchor="end" fill="#b1a184">28</text>
<text x="37" y="881.0" font-size="10" text-anchor="end" fill="#7a6a50">29</text>
<text x="37" y="909.0" font-size="10" text-anchor="end" fill="#7a6a50">30</text>
<text x="37" y="937.0" font-size="10" text-anchor="end" fill="#b1a184">31</text>
<text x="37" y="965.0" font-size="10" text-anchor="end" fill="#b1a184">32</text>
<text x="37" y="993.0" font-size="10" text-anchor="end" fill="#7a6a50">33</text>
<text x="37" y="1021.0" font-size="10" text-anchor="end" fill="#b1a184">34</text>
<text x="37" y="1049.0" font-size="10" text-anchor="end" fill="#7a6a50">35</text>
<text x="37" y="1077.0" font-size="10" text-anchor="end" fill="#b1a184">36</text>
<text x="37" y="1105.0" font-size="10" text-anchor="end" fill="#b1a184">37</text>
<text x="37" y="1133.0" font-size="10" text-anchor="end" fill="#7a6a50">38</text>
<text x="37" y="1161.0" font-size="10" text-anchor="end" fill="#7a6a50">39</text>
<text x="37" y="1189.0" font-size="10" text-anchor="end" fill="#7a6a50">40</text>
<rect x="46" y="1219" width="28" height="7" fill="#3b2e1e" stroke="#3b2e1e" stroke-width="1"/>
<rect x="74" y="1219" width="28" height="7" fill="#efe4c9" stroke="#3b2e1e" stroke-width="1"/>
<rect x="102" y="1219" width="28" height="7" fill="#3b2e1e" stroke="#3b2e1e" stroke-width="1"/>
<rect x="130" y="1219" width="28" height="7" fill="#efe4c9" stroke="#3b2e1e" stroke-width="1"/>
<rect x="158" y="1219" width="28" height="7" fill="#3b2e1e" stroke="#3b2e1e" stroke-width="1"/>
<text x="196" y="1227" font-size="11" fill="#3b2e1e">7,5 m (5 quadretti)</text>
<text x="46" y="1256" font-size="12" font-weight="bold" fill="#3b2e1e" letter-spacing="2">LEGENDA</text>
<path d="M120 1252H1530" stroke="#7a6a50" stroke-width="0.7" opacity="0.7"/>
<circle cx="55" cy="1270" r="7.5" fill="url(#g_212529)" stroke="#241c10" stroke-width="1.2"/>
<text x="73" y="1274" font-size="11" fill="#3b2e1e">⚫ — Boss / comandante</text>
<rect x="46" y="1284" width="19" height="15" fill="url(#t_struct)" stroke="#7a6a50" stroke-width="0.7"/>
<text x="73" y="1296" font-size="11" fill="#3b2e1e">⬛ — Struttura (tenda, edificio, dais)</text>
<rect x="46" y="1306" width="19" height="15" fill="url(#t_forest)" stroke="#7a6a50" stroke-width="0.7"/>
<text x="73" y="1318" font-size="11" fill="#3b2e1e">🌲 — Foresta densa (Furtività +5, copertura)</text>
<text x="46" y="1340" font-size="14">🏺</text>
<text x="73" y="1340" font-size="11" fill="#3b2e1e">🏺 — Contenitore / bottino</text>
<text x="46" y="1362" font-size="14">🔥</text>
<text x="73" y="1362" font-size="11" fill="#3b2e1e">🔥 — Fuoco (1d6 fuoco/round)</text>
<circle cx="55" cy="1380" r="7.5" fill="url(#g_d62828)" stroke="#241c10" stroke-width="1.2"/>
<text x="73" y="1384" font-size="11" fill="#3b2e1e">🔴 — Nemico standard</text>
<circle cx="55" cy="1402" r="7.5" fill="url(#g_f4b400)" stroke="#241c10" stroke-width="1.2"/>
<text x="73" y="1406" font-size="11" fill="#3b2e1e">🟡 — Incantatore nemico</text>
<rect x="46" y="1416" width="19" height="15" fill="url(#t_grass)" stroke="#7a6a50" stroke-width="0.7"/>
<text x="73" y="1428" font-size="11" fill="#3b2e1e">🟩 — Pianura / area aperta</text>
<text x="46" y="1460" font-size="9" font-style="italic" fill="#7a6a50">fonte: SUPPLEMENTO-P1C-MAPPE-CAMPI-DROW-COMPLETO.md · SVG generato da scripts/render_map_svg.py (stile pergamena) — non modificare a mano</text>
</svg>