<svg xmlns="http://www.w3.org/2000/svg" width="1912" height="1906" viewBox="0 0 1912 1906" font-family="Georgia, 'Palatino Linotype', 'Times New Roman', serif">
<defs>
<filter id="grain" x="0" y="0" width="100%" height="100%"><feTurbulence type="fractalNoise" baseFrequency="0.8" numOctaves="2" seed="11" stitchTiles="stitch"/><feColorMatrix type="matrix" values="0 0 0 0 0.36 0 0 0 0 0.28 0 0 0 0 0.16 0 0 0 0.18 0"/><feComposite operator="over" in2="SourceGraphic"/></filter>
<filter id="rough" x="-5%" y="-5%" width="110%" height="110%"><feTurbulence type="fractalNoise" baseFrequency="0.045" numOctaves="2" seed="7" result="n"/><feDisplacementMap in="SourceGraphic" in2="n" scale="2.6"/></filter>
<filter id="softblur" x="-20%" y="-20%" width="140%" height="140%"><feGaussianBlur stdDeviation="1.6"/></filter>
<radialGradient id="vign" cx="0.5" cy="0.45" r="0.75"><stop offset="0.62" stop-color="#3b2e1e" stop-opacity="0"/><stop offset="1" stop-color="#3b2e1e" stop-opacity="0.16"/></radialGradient>
<pattern id="t_forest" width="42" height="42" patternUnits="userSpaceOnUse"><rect width="42" height="42" fill="#55754d"/><circle cx="10" cy="12" r="9" fill="#435f3c"/><circle cx="7.4799999999999995" cy="9.3" r="5.58" fill="#5d7f53"/><circle cx="6.4" cy="7.95" r="2.34" fill="#6f9163"/><circle cx="30" cy="28" r="10" fill="#435f3c"/><circle cx="27.2" cy="25.0" r="6.2" fill="#5d7f53"/><circle cx="26.0" cy="23.5" r="2.6" fill="#6f9163"/><circle cx="34" cy="6" r="7" fill="#435f3c"/><circle cx="32.04" cy="3.9" r="4.34" fill="#5d7f53"/><circle cx="31.2" cy="2.85" r="1.82" fill="#6f9163"/><circle cx="6" cy="34" r="7.5" fill="#435f3c"/><circle cx="3.9" cy="31.75" r="4.65" fill="#5d7f53"/><circle cx="3.0" cy="30.625" r="1.9500000000000002" fill="#6f9163"/></pattern>
<pattern id="t_grass" width="28" height="28" patternUnits="userSpaceOnUse"><rect width="28" height="28" fill="#b3c489"/><path d="M5 21q1.5-4 3-5M8 21q0-3 2-5M20 8q1.5-2.5 3-3.5" stroke="#94a76a" stroke-width="0.9" stroke-opacity="0.6" fill="none" stroke-linecap="round"/><circle cx="14" cy="16" r="0.9" fill="#c5d29b"/><circle cx="24" cy="24" r="0.8" fill="#c5d29b"/><circle cx="4" cy="7" r="0.8" fill="#a3b573"/><circle cx="25" cy="13" r="0.7" fill="#a3b573"/></pattern>
<pattern id="t_struct" width="28" height="28" patternUnits="userSpaceOnUse"><rect width="28" height="28" fill="#6b5b47"/><path d="M-2 6l8-8M-2 14l16-16M-2 22l24-24M6 30l24-24M14 30l16-16M22 30l8-8" stroke="#5a4b39" stroke-width="0.9"/><path d="M0 14.5h28" stroke="#7d6c56" stroke-width="0.8"/></pattern>
<radialGradient id="g_212529" cx="0.35" cy="0.3" r="0.8"><stop offset="0" stop-color="#858789"/><stop offset="0.55" stop-color="#212529"/><stop offset="1" stop-color="#15181b"/></radialGradient>
<radialGradient id="g_2b9348" cx="0.35" cy="0.3" r="0.8"><stop offset="0" stop-color="#8ac49a"/><stop offset="0.55" stop-color="#2b9348"/><stop offset="1" stop-color="#1c602f"/></radialGradient>
<radialGradient id="g_d62828" cx="0.35" cy="0.3" r="0.8"><stop offset="0" stop-color="#e88989"/><stop offset="0.55" stop-color="#d62828"/><stop offset="1" stop-color="#8b1a1a"/></radialGradient>
</defs>
<rect width="1912" height="1906" fill="#efe4c9" filter="url(#grain)"/>
<rect width="1912" height="1906" fill="url(#vign)"/>
<rect x="5" y="5" width="1902" height="1896" fill="none" stroke="#3b2e1e" stroke-width="0.8" opacity="0.8"/>
<rect x="9" y="9" width="1894" height="1888" fill="none" stroke="#3b2e1e" stroke-width="2" opacity="0.85"/>
<text x="46" y="34" font-size="19" font-weight="bold" fill="#3b2e1e" letter-spacing="0.5">CAMPO DROW 2 - FORWARD BASE (98m × 80m, Grid 65×53, Scala 1.5m/sq)</text>
<text x="46" y="51" font-size="11" font-style="italic" fill="#7a6a50">65×53 quadretti · scala 1,5 m/quadretto</text>
<rect x="41" y="75" width="1830" height="1494" fill="#e6d9b8" stroke="#3b2e1e" stroke-width="1.6"/>
<path d="M46 80h1820v28h-1820zM46 108h1820v28h-1820zM46 136h1820v28h-1820zM46 164h1820v28h-1820zM46 192h1820v28h-1820zM46 220h112v28h-112zM1810 220h56v28h-56zM46 248h112v28h-112zM1810 248h56v28h-56zM46 276h112v28h-112zM1810 276h56v28h-56zM46 304h112v28h-112zM1810 304h56v28h-56zM46 332h112v28h-112zM1810 332h56v28h-56zM46 360h112v28h-112zM1810 360h56v28h-56zM46 388h112v28h-112zM1810 388h56v28h-56zM46 416h112v28h-112zM1810 416h56v28h-56zM46 444h112v28h-112zM1810 444h56v28h-56zM46 472h112v28h-112zM1810 472h56v28h-56zM46 500h112v28h-112zM1810 500h56v28h-56zM46 528h112v28h-112zM1810 528h56v28h-56zM46 556h112v28h-112zM1810 556h56v28h-56zM46 584h112v28h-112zM1810 584h56v28h-56zM46 612h112v28h-112zM1810 612h56v28h-56zM46 640h112v28h-112zM1810 640h56v28h-56zM46 668h112v28h-112zM1810 668h56v28h-56zM46 696h112v28h-112zM1810 696h56v28h-56zM46 724h112v28h-112zM1810 724h56v28h-56zM46 752h112v28h-112zM1810 752h56v28h-56zM46 780h112v28h-112zM1810 780h56v28h-56zM46 808h112v28h-112zM1810 808h56v28h-56zM46 836h112v28h-112zM1810 836h56v28h-56zM46 864h112v28h-112zM1810 864h56v28h-56zM46 892h112v28h-112zM1810 892h56v28h-56zM46 920h112v28h-112zM1810 920h56v28h-56zM46 948h112v28h-112zM1810 948h56v28h-56zM46 976h112v28h-112zM1810 976h56v28h-56zM46 1004h112v28h-112zM1810 1004h56v28h-56zM46 1032h112v28h-112zM1810 1032h56v28h-56zM46 1060h112v28h-112zM1810 1060h56v28h-56zM46 1088h112v28h-112zM1810 1088h56v28h-56zM46 1116h112v28h-112zM1810 1116h56v28h-56zM46 1144h112v28h-112zM1810 1144h56v28h-56zM46 1172h112v28h-112zM1810 1172h56v28h-56zM46 1200h112v28h-112zM1810 1200h56v28h-56zM46 1228h112v28h-112zM1810 1228h56v28h-56zM46 1256h112v28h-112zM1810 1256h56v28h-56zM46 1284h112v28h-112zM1810 1284h56v28h-56zM46 1312h112v28h-112zM1810 1312h56v28h-56zM46 1340h112v28h-112zM1810 1340h56v28h-56zM46 1368h112v28h-112zM1810 1368h56v28h-56zM46 1396h112v28h-112zM1810 1396h56v28h-56zM46 1424h112v28h-112zM1810 1424h56v28h-56zM46 1452h1820v28h-1820zM46 1480h1820v28h-1820zM46 1508h1820v28h-1820zM46 1536h1820v28h-1820z" fill="url(#t_forest)"/>
<path d="M158 220h252v28h-252zM1670 220h140v28h-140zM158 248h252v28h-252zM1670 248h140v28h-140zM158 276h252v28h-252zM1670 276h140v28h-140zM158 304h252v28h-252zM1670 304h140v28h-140zM158 332h252v28h-252zM1670 332h140v28h-140zM158 360h252v28h-252zM1670 360h140v28h-140zM158 388h252v28h-252zM1670 388h140v28h-140zM158 416h252v28h-252zM1670 416h140v28h-140zM158 444h252v28h-252zM1670 444h140v28h-140zM158 472h252v28h-252zM1670 472h140v28h-140zM158 500h252v28h-252zM1670 500h140v28h-140zM158 528h252v28h-252zM1670 528h140v28h-140zM158 556h252v28h-252zM1670 556h140v28h-140zM158 584h252v28h-252zM1670 584h140v28h-140zM158 612h252v28h-252zM1670 612h140v28h-140zM158 640h252v28h-252zM1670 640h140v28h-140zM158 668h252v28h-252zM1670 668h140v28h-140zM158 696h252v28h-252zM1670 696h140v28h-140zM158 724h252v28h-252zM1670 724h140v28h-140zM158 752h252v28h-252zM1670 752h140v28h-140zM158 780h252v28h-252zM1670 780h140v28h-140zM158 808h252v28h-252zM1670 808h140v28h-140zM158 836h252v28h-252zM1670 836h140v28h-140zM158 864h252v28h-252zM1670 864h140v28h-140zM158 892h252v28h-252zM1670 892h140v28h-140zM158 920h252v28h-252zM1670 920h140v28h-140zM158 948h252v28h-252zM1670 948h140v28h-140zM158 976h252v28h-252zM1670 976h140v28h-140zM158 1004h252v28h-252zM1670 1004h140v28h-140zM158 1032h252v28h-252zM1670 1032h140v28h-140zM158 1060h252v28h-252zM1670 1060h140v28h-140zM158 1088h252v28h-252zM1670 1088h140v28h-140zM158 1116h252v28h-252zM1670 1116h140v28h-140zM158 1144h252v28h-252zM1670 1144h140v28h-140zM158 1172h252v28h-252zM1670 1172h140v28h-140zM158 1200h252v28h-252zM1670 1200h140v28h-140zM158 1228h252v28h-252zM1670 1228h140v28h-140zM158 1256h252v28h-252zM1670 1256h140v28h-140zM158 1284h252v28h-252zM1670 1284h140v28h-140zM158 1312h252v28h-252zM1670 1312h140v28h-140zM158 1340h252v28h-252zM1670 1340h140v28h-140zM158 1368h252v28h-252zM1670 1368h140v28h-140zM158 1396h252v28h-252zM1670 1396h140v28h-140zM158 1424h252v28h-252zM1670 1424h140v28h-140z" fill="url(#t_grass)"/>
<path d="M410 220h1260v28h-1260zM410 248h1260v28h-1260zM410 276h1260v28h-1260zM410 304h1260v28h-1260zM410 332h1260v28h-1260zM410 360h1260v28h-1260zM410 388h1260v28h-1260zM410 416h1260v28h-1260zM410 444h1260v28h-1260zM410 472h1260v28h-1260zM410 500h1260v28h-1260zM410 528h1260v28h-1260zM410 556h1260v28h-1260zM410 584h1260v28h-1260zM410 612h1260v28h-1260zM410 640h1260v28h-1260zM410 668h1260v28h-1260zM410 696h1260v28h-1260zM410 724h1260v28h-1260zM410 752h1260v28h-1260zM410 780h1260v28h-1260zM410 808h1260v28h-1260zM410 836h1260v28h-1260zM410 864h1260v28h-1260zM410 892h1260v28h-1260zM410 920h1260v28h-1260zM410 948h1260v28h-1260zM410 976h1260v28h-1260zM410 1004h1260v28h-1260zM410 1032h1260v28h-1260zM410 1060h1260v28h-1260zM410 1088h1260v28h-1260zM410 1116h1260v28h-1260zM410 1144h1260v28h-1260zM410 1172h1260v28h-1260zM410 1200h1260v28h-1260zM410 1228h1260v28h-1260zM410 1256h1260v28h-1260zM410 1284h1260v28h-1260zM410 1312h1260v28h-1260zM410 1340h1260v28h-1260zM410 1368h1260v28h-1260zM410 1396h1260v28h-1260zM410 1424h1260v28h-1260z" fill="#241c10" opacity="0.28" filter="url(#softblur)" transform="translate(2.6,3.4)"/>
<path d="M410 220h1260v28h-1260zM410 248h1260v28h-1260zM410 276h1260v28h-1260zM410 304h1260v28h-1260zM410 332h1260v28h-1260zM410 360h1260v28h-1260zM410 388h1260v28h-1260zM410 416h1260v28h-1260zM410 444h1260v28h-1260zM410 472h1260v28h-1260zM410 500h1260v28h-1260zM410 528h1260v28h-1260zM410 556h1260v28h-1260zM410 584h1260v28h-1260zM410 612h1260v28h-1260zM410 640h1260v28h-1260zM410 668h1260v28h-1260zM410 696h1260v28h-1260zM410 724h1260v28h-1260zM410 752h1260v28h-1260zM410 780h1260v28h-1260zM410 808h1260v28h-1260zM410 836h1260v28h-1260zM410 864h1260v28h-1260zM410 892h1260v28h-1260zM410 920h1260v28h-1260zM410 948h1260v28h-1260zM410 976h1260v28h-1260zM410 1004h1260v28h-1260zM410 1032h1260v28h-1260zM410 1060h1260v28h-1260zM410 1088h1260v28h-1260zM410 1116h1260v28h-1260zM410 1144h1260v28h-1260zM410 1172h1260v28h-1260zM410 1200h1260v28h-1260zM410 1228h1260v28h-1260zM410 1256h1260v28h-1260zM410 1284h1260v28h-1260zM410 1312h1260v28h-1260zM410 1340h1260v28h-1260zM410 1368h1260v28h-1260zM410 1396h1260v28h-1260zM410 1424h1260v28h-1260z" fill="url(#t_struct)"/>
<path d="M46 80v1484M158 220v1232M1810 220v1232M1866 80v1484M46 80h1820M158 220h252M1670 220h140M158 1452h252M1670 1452h140M46 1564h1820" fill="none" stroke="#7a6a50" stroke-width="0.9" opacity="0.5" stroke-linecap="round" filter="url(#rough)"/>
<path d="M410 220v1232M1670 220v1232M410 220h1260M410 1452h1260" fill="none" stroke="#241c10" stroke-width="1.8" opacity="0.9" stroke-linecap="round" filter="url(#rough)"/>
<path d="M74 80v1484M102 80v1484M130 80v1484M158 80v1484M214 80v1484M242 80v1484M270 80v1484M298 80v1484M354 80v1484M382 80v1484M410 80v1484M438 80v1484M494 80v1484M522 80v1484M550 80v1484M578 80v1484M634 80v1484M662 80v1484M690 80v1484M718 80v1484M774 80v1484M802 80v1484M830 80v1484M858 80v1484M914 80v1484M942 80v1484M970 80v1484M998 80v1484M1054 80v1484M1082 80v1484M1110 80v1484M1138 80v1484M1194 80v1484M1222 80v1484M1250 80v1484M1278 80v1484M1334 80v1484M1362 80v1484M1390 80v1484M1418 80v1484M1474 80v1484M1502 80v1484M1530 80v1484M1558 80v1484M1614 80v1484M1642 80v1484M1670 80v1484M1698 80v1484M1754 80v1484M1782 80v1484M1810 80v1484M1838 80v1484M46 108h1820M46 136h1820M46 164h1820M46 192h1820M46 248h1820M46 276h1820M46 304h1820M46 332h1820M46 388h1820M46 416h1820M46 444h1820M46 472h1820M46 528h1820M46 556h1820M46 584h1820M46 612h1820M46 668h1820M46 696h1820M46 724h1820M46 752h1820M46 808h1820M46 836h1820M46 864h1820M46 892h1820M46 948h1820M46 976h1820M46 1004h1820M46 1032h1820M46 1088h1820M46 1116h1820M46 1144h1820M46 1172h1820M46 1228h1820M46 1256h1820M46 1284h1820M46 1312h1820M46 1368h1820M46 1396h1820M46 1424h1820M46 1452h1820M46 1508h1820M46 1536h1820M46 1564h1820" stroke="#2e2313" stroke-width="0.5" opacity="0.16" fill="none"/>
<path d="M46 80v1484M186 80v1484M326 80v1484M466 80v1484M606 80v1484M746 80v1484M886 80v1484M1026 80v1484M1166 80v1484M1306 80v1484M1446 80v1484M1586 80v1484M1726 80v1484M1866 80v1484M46 80h1820M46 220h1820M46 360h1820M46 500h1820M46 640h1820M46 780h1820M46 920h1820M46 1060h1820M46 1200h1820M46 1340h1820M46 1480h1820" stroke="#2e2313" stroke-width="1.2" opacity="0.28" fill="none"/>
<ellipse cx="816.0" cy="268.0" rx="7.5" ry="2.8" fill="#241c10" opacity="0.14"/>
<text x="816.0" y="268.0" font-size="17" text-anchor="middle">🚪</text>
<ellipse cx="844.0" cy="268.0" rx="7.5" ry="2.8" fill="#241c10" opacity="0.14"/>
<text x="844.0" y="268.0" font-size="17" text-anchor="middle">🚪</text>
<ellipse cx="872.0" cy="268.0" rx="7.5" ry="2.8" fill="#241c10" opacity="0.14"/>
<text x="872.0" y="268.0" font-size="17" text-anchor="middle">🚪</text>
<ellipse cx="900.0" cy="268.0" rx="7.5" ry="2.8" fill="#241c10" opacity="0.14"/>
<text x="900.0" y="268.0" font-size="17" text-anchor="middle">🚪</text>
<ellipse cx="928.0" cy="268.0" rx="7.5" ry="2.8" fill="#241c10" opacity="0.14"/>
<text x="928.0" y="268.0" font-size="17" text-anchor="middle">🚪</text>
<ellipse cx="453.4" cy="292.2" rx="10.36" ry="8.495199999999999" fill="#241c10" opacity="0.3"/>
<circle cx="452.0" cy="290.0" r="10.36" fill="url(#g_d62828)" stroke="#241c10" stroke-width="1.6"/>
<circle cx="452.0" cy="290.0" r="7.959999999999999" fill="none" stroke="#ffffff" stroke-width="0.9" opacity="0.55"/>
<ellipse cx="985.4" cy="292.2" rx="10.36" ry="8.495199999999999" fill="#241c10" opacity="0.3"/>
<circle cx="984.0" cy="290.0" r="10.36" fill="url(#g_d62828)" stroke="#241c10" stroke-width="1.6"/>
<circle cx="984.0" cy="290.0" r="7.959999999999999" fill="none" stroke="#ffffff" stroke-width="0.9" opacity="0.55"/>
<ellipse cx="816.0" cy="408.0" rx="7.5" ry="2.8" fill="#241c10" opacity="0.14"/>
<text x="816.0" y="408.0" font-size="17" text-anchor="middle">🗼</text>
<ellipse cx="844.0" cy="408.0" rx="7.5" ry="2.8" fill="#241c10" opacity="0.14"/>
<text x="844.0" y="408.0" font-size="17" text-anchor="middle">🗼</text>
<ellipse cx="872.0" cy="408.0" rx="7.5" ry="2.8" fill="#241c10" opacity="0.14"/>
<text x="872.0" y="408.0" font-size="17" text-anchor="middle">🗼</text>
<ellipse cx="816.0" cy="436.0" rx="7.5" ry="2.8" fill="#241c10" opacity="0.14"/>
<text x="816.0" y="436.0" font-size="17" text-anchor="middle">🗼</text>
<ellipse cx="844.0" cy="436.0" rx="7.5" ry="2.8" fill="#241c10" opacity="0.14"/>
<text x="844.0" y="436.0" font-size="17" text-anchor="middle">🗼</text>
<ellipse cx="872.0" cy="436.0" rx="7.5" ry="2.8" fill="#241c10" opacity="0.14"/>
<text x="872.0" y="436.0" font-size="17" text-anchor="middle">🗼</text>
<ellipse cx="816.0" cy="464.0" rx="7.5" ry="2.8" fill="#241c10" opacity="0.14"/>
<text x="816.0" y="464.0" font-size="17" text-anchor="middle">🗼</text>
<ellipse cx="844.0" cy="464.0" rx="7.5" ry="2.8" fill="#241c10" opacity="0.14"/>
<text x="844.0" y="464.0" font-size="17" text-anchor="middle">🗼</text>
<ellipse cx="872.0" cy="464.0" rx="7.5" ry="2.8" fill="#241c10" opacity="0.14"/>
<text x="872.0" y="464.0" font-size="17" text-anchor="middle">🗼</text>
<ellipse cx="676.0" cy="772.0" rx="7.5" ry="2.8" fill="#241c10" opacity="0.14"/>
<text x="676.0" y="772.0" font-size="17" text-anchor="middle">🪨</text>
<ellipse cx="704.0" cy="772.0" rx="7.5" ry="2.8" fill="#241c10" opacity="0.14"/>
<text x="704.0" y="772.0" font-size="17" text-anchor="middle">🪨</text>
<ellipse cx="732.0" cy="772.0" rx="7.5" ry="2.8" fill="#241c10" opacity="0.14"/>
<text x="732.0" y="772.0" font-size="17" text-anchor="middle">🪨</text>
<ellipse cx="760.0" cy="772.0" rx="7.5" ry="2.8" fill="#241c10" opacity="0.14"/>
<text x="760.0" y="772.0" font-size="17" text-anchor="middle">🪨</text>
<ellipse cx="788.0" cy="772.0" rx="7.5" ry="2.8" fill="#241c10" opacity="0.14"/>
<text x="788.0" y="772.0" font-size="17" text-anchor="middle">🪨</text>
<ellipse cx="816.0" cy="772.0" rx="7.5" ry="2.8" fill="#241c10" opacity="0.14"/>
<text x="816.0" y="772.0" font-size="17" text-anchor="middle">🪨</text>
<ellipse cx="844.0" cy="772.0" rx="7.5" ry="2.8" fill="#241c10" opacity="0.14"/>
<text x="844.0" y="772.0" font-size="17" text-anchor="middle">🪨</text>
<ellipse cx="872.0" cy="772.0" rx="7.5" ry="2.8" fill="#241c10" opacity="0.14"/>
<text x="872.0" y="772.0" font-size="17" text-anchor="middle">🪨</text>
<ellipse cx="900.0" cy="772.0" rx="7.5" ry="2.8" fill="#241c10" opacity="0.14"/>
<text x="900.0" y="772.0" font-size="17" text-anchor="middle">🪨</text>
<ellipse cx="928.0" cy="772.0" rx="7.5" ry="2.8" fill="#241c10" opacity="0.14"/>
<text x="928.0" y="772.0" font-size="17" text-anchor="middle">🪨</text>
<ellipse cx="956.0" cy="772.0" rx="7.5" ry="2.8" fill="#241c10" opacity="0.14"/>
<text x="956.0" y="772.0" font-size="17" text-anchor="middle">🪨</text>
<ellipse cx="676.0" cy="800.0" rx="7.5" ry="2.8" fill="#241c10" opacity="0.14"/>
<text x="676.0" y="800.0" font-size="17" text-anchor="middle">🪨</text>
<ellipse cx="873.4" cy="796.2" rx="10.36" ry="8.495199999999999" fill="#241c10" opacity="0.3"/>
<circle cx="872.0" cy="794.0" r="10.36" fill="url(#g_2b9348)" stroke="#241c10" stroke-width="1.6"/>
<circle cx="872.0" cy="794.0" r="7.959999999999999" fill="none" stroke="#ffffff" stroke-width="0.9" opacity="0.55"/>
<ellipse cx="901.4" cy="796.2" rx="10.36" ry="8.495199999999999" fill="#241c10" opacity="0.3"/>
<circle cx="900.0" cy="794.0" r="10.36" fill="url(#g_2b9348)" stroke="#241c10" stroke-width="1.6"/>
<circle cx="900.0" cy="794.0" r="7.959999999999999" fill="none" stroke="#ffffff" stroke-width="0.9" opacity="0.55"/>
<ellipse cx="956.0" cy="800.0" rx="7.5" ry="2.8" fill="#241c10" opacity="0.14"/>
<text x="956.0" y="800.0" font-size="17" text-anchor="middle">🪨</text>
<ellipse cx="676.0" cy="828.0" rx="7.5" ry="2.8" fill="#241c10" opacity="0.14"/>
<text x="676.0" y="828.0" font-size="17" text-anchor="middle">🪨</text>
<ellipse cx="873.4" cy="824.2" rx="10.36" ry="8.495199999999999" fill="#241c10" opacity="0.3"/>
<circle cx="872.0" cy="822.0" r="10.36" fill="url(#g_2b9348)" stroke="#241c10" stroke-width="1.6"/>
<circle cx="872.0" cy="822.0" r="7.959999999999999" fill="none" stroke="#ffffff" stroke-width="0.9" opacity="0.55"/>
<ellipse cx="901.4" cy="824.2" rx="10.36" ry="8.495199999999999" fill="#241c10" opacity="0.3"/>
<circle cx="900.0" cy="822.0" r="10.36" fill="url(#g_2b9348)" stroke="#241c10" stroke-width="1.6"/>
<circle cx="900.0" cy="822.0" r="7.959999999999999" fill="none" stroke="#ffffff" stroke-width="0.9" opacity="0.55"/>
<ellipse cx="956.0" cy="828.0" rx="7.5" ry="2.8" fill="#241c10" opacity="0.14"/>
<text x="956.0" y="828.0" font-size="17" text-anchor="middle">🪨</text>
<ellipse cx="676.0" cy="856.0" rx="7.5" ry="2.8" fill="#241c10" opacity="0.14"/>
<text x="676.0" y="856.0" font-size="17" text-anchor="middle">🪨</text>
<ellipse cx="704.0" cy="856.0" rx="7.5" ry="2.8" fill="#241c10" opacity="0.14"/>
<text x="704.0" y="856.0" font-size="17" text-anchor="middle">🪨</text>
<ellipse cx="732.0" cy="856.0" rx="7.5" ry="2.8" fill="#241c10" opacity="0.14"/>
<text x="732.0" y="856.0" font-size="17" text-anchor="middle">🪨</text>
<ellipse cx="760.0" cy="856.0" rx="7.5" ry="2.8" fill="#241c10" opacity="0.14"/>
<text x="760.0" y="856.0" font-size="17" text-anchor="middle">🪨</text>
<ellipse cx="788.0" cy="856.0" rx="7.5" ry="2.8" fill="#241c10" opacity="0.14"/>
<text x="788.0" y="856.0" font-size="17" text-anchor="middle">🪨</text>
<ellipse cx="816.0" cy="856.0" rx="7.5" ry="2.8" fill="#241c10" opacity="0.14"/>
<text x="816.0" y="856.0" font-size="17" text-anchor="middle">🪨</text>
<ellipse cx="844.0" cy="856.0" rx="7.5" ry="2.8" fill="#241c10" opacity="0.14"/>
<text x="844.0" y="856.0" font-size="17" text-anchor="middle">🪨</text>
<ellipse cx="872.0" cy="856.0" rx="7.5" ry="2.8" fill="#241c10" opacity="0.14"/>
<text x="872.0" y="856.0" font-size="17" text-anchor="middle">🪨</text>
<ellipse cx="900.0" cy="856.0" rx="7.5" ry="2.8" fill="#241c10" opacity="0.14"/>
<text x="900.0" y="856.0" font-size="17" text-anchor="middle">🪨</text>
<ellipse cx="928.0" cy="856.0" rx="7.5" ry="2.8" fill="#241c10" opacity="0.14"/>
<text x="928.0" y="856.0" font-size="17" text-anchor="middle">🪨</text>
<ellipse cx="956.0" cy="856.0" rx="7.5" ry="2.8" fill="#241c10" opacity="0.14"/>
<text x="956.0" y="856.0" font-size="17" text-anchor="middle">🪨</text>
<ellipse cx="453.4" cy="964.2" rx="10.36" ry="8.495199999999999" fill="#241c10" opacity="0.3"/>
<circle cx="452.0" cy="962.0" r="10.36" fill="url(#g_212529)" stroke="#241c10" stroke-width="1.6"/>
<circle cx="452.0" cy="962.0" r="7.959999999999999" fill="none" stroke="#ffffff" stroke-width="0.9" opacity="0.55"/>
<ellipse cx="536.0" cy="968.0" rx="7.5" ry="2.8" fill="#241c10" opacity="0.14"/>
<text x="536.0" y="968.0" font-size="17" text-anchor="middle">💎</text>
<ellipse cx="564.0" cy="968.0" rx="7.5" ry="2.8" fill="#241c10" opacity="0.14"/>
<text x="564.0" y="968.0" font-size="17" text-anchor="middle">💎</text>
<ellipse cx="592.0" cy="968.0" rx="7.5" ry="2.8" fill="#241c10" opacity="0.14"/>
<text x="592.0" y="968.0" font-size="17" text-anchor="middle">💎</text>
<ellipse cx="1096.0" cy="968.0" rx="7.5" ry="2.8" fill="#241c10" opacity="0.14"/>
<text x="1096.0" y="968.0" font-size="17" text-anchor="middle">💀</text>
<ellipse cx="1124.0" cy="968.0" rx="7.5" ry="2.8" fill="#241c10" opacity="0.14"/>
<text x="1124.0" y="968.0" font-size="17" text-anchor="middle">💀</text>
<ellipse cx="1152.0" cy="968.0" rx="7.5" ry="2.8" fill="#241c10" opacity="0.14"/>
<text x="1152.0" y="968.0" font-size="17" text-anchor="middle">💀</text>
<text x="60.0" y="72" font-size="10" text-anchor="middle" fill="#7a6a50">A</text>
<text x="88.0" y="72" font-size="10" text-anchor="middle" fill="#7a6a50">B</text>
<text x="116.0" y="72" font-size="10" text-anchor="middle" fill="#7a6a50">C</text>
<text x="144.0" y="72" font-size="10" text-anchor="middle" fill="#7a6a50">D</text>
<text x="172.0" y="72" font-size="10" text-anchor="middle" fill="#7a6a50">E</text>
<text x="200.0" y="72" font-size="10" text-anchor="middle" fill="#7a6a50">F</text>
<text x="228.0" y="72" font-size="10" text-anchor="middle" fill="#7a6a50">G</text>
<text x="256.0" y="72" font-size="10" text-anchor="middle" fill="#7a6a50">H</text>
<text x="284.0" y="72" font-size="10" text-anchor="middle" fill="#7a6a50">I</text>
<text x="312.0" y="72" font-size="10" text-anchor="middle" fill="#7a6a50">J</text>
<text x="340.0" y="72" font-size="10" text-anchor="middle" fill="#7a6a50">K</text>
<text x="368.0" y="72" font-size="10" text-anchor="middle" fill="#7a6a50">L</text>
<text x="396.0" y="72" font-size="10" text-anchor="middle" fill="#7a6a50">M</text>
<text x="424.0" y="72" font-size="10" text-anchor="middle" fill="#7a6a50">N</text>
<text x="452.0" y="72" font-size="10" text-anchor="middle" fill="#7a6a50">O</text>
<text x="480.0" y="72" font-size="10" text-anchor="middle" fill="#7a6a50">P</text>
<text x="508.0" y="72" font-size="10" text-anchor="middle" fill="#7a6a50">Q</text>
<text x="536.0" y="72" font-size="10" text-anchor="middle" fill="#7a6a50">R</text>
<text x="564.0" y="72" font-size="10" text-anchor="middle" fill="#7a6a50">S</text>
<text x="592.0" y="72" font-size="10" text-anchor="middle" fill="#7a6a50">T</text>
<text x="620.0" y="72" font-size="10" text-anchor="middle" fill="#7a6a50">U</text>
<text x="648.0" y="72" font-size="10" text-anchor="middle" fill="#7a6a50">V</text>
<text x="676.0" y="72" font-size="10" text-anchor="middle" fill="#7a6a50">W</text>
<text x="704.0" y="72" font-size="10" text-anchor="middle" fill="#7a6a50">X</text>
<text x="732.0" y="72" font-size="10" text-anchor="middle" fill="#7a6a50">Y</text>
<text x="760.0" y="72" font-size="10" text-anchor="middle" fill="#7a6a50">Z</text>
<text x="788.0" y="72" font-size="10" text-anchor="middle" fill="#7a6a50">AA</text>
<text x="816.0" y="72" font-size="10" text-anchor="middle" fill="#7a6a50">AB</text>
<text x="844.0" y="72" font-size="10" text-anchor="middle" fill="#7a6a50">AC</text>
<text x="872.0" y="72" font-size="10" text-anchor="middle" fill="#7a6a50">AD</text>
<text x="900.0" y="72" font-size="10" text-anchor="middle" fill="#7a6a50">AE</text>
<text x="928.0" y="72" font-size="10" text-anchor="middle" fill="#7a6a50">AF</text>
<text x="956.0" y="72" font-size="10" text-anchor="middle" fill="#7a6a50">AG</text>
<text x="984.0" y="72" font-size="10" text-anchor="middle" fill="#7a6a50">AH</text>
<text x="1012.0" y="72" font-size="10" text-anchor="middle" fill="#7a6a50">AI</text>
<text x="1040.0" y="72" font-size="10" text-anchor="middle" fill="#7a6a50">AJ</text>
<text x="1068.0" y="72" font-size="10" text-anchor="middle" fill="#7a6a50">AK</text>
<text x="1096.0" y="72" font-size="10" text-anchor="middle" fill="#7a6a50">AL</text>
<text x="1124.0" y="72" font-size="10" text-anchor="middle" fill="#7a6a50">AM</text>
<text x="1152.0" y="72" font-size="10" text-anchor="middle" fill="#7a6a50">AN</text>
<text x="1180.0" y="72" font-size="10" text-anchor="middle" fill="#7a6a50">AO</text>
<text x="1208.0" y="72" font-size="10" text-anchor="middle" fill="#7a6a50">AP</text>
<text x="1236.0" y="72" font-size="10" text-anchor="middle" fill="#7a6a50">AQ</text>
<text x="1264.0" y="72" font-size="10" text-anchor="middle" fill="#7a6a50">AR</text>
<text x="1292.0" y="72" font-size="10" text-anchor="middle" fill="#7a6a50">AS</text>
<text x="1320.0" y="72" font-size="10" text-anchor="middle" fill="#7a6a50">AT</text>
<text x="1348.0" y="72" font-size="10" text-anchor="middle" fill="#7a6a50">AU</text>
<text x="1376.0" y="72" font-size="10" text-anchor="middle" fill="#7a6a50">AV</text>
<text x="1404.0" y="72" font-size="10" text-anchor="middle" fill="#7a6a50">AW</text>
<text x="1432.0" y="72" font-size="10" text-anchor="middle" fill="#7a6a50">AX</text>
<text x="1460.0" y="72" font-size="10" text-anchor="middle" fill="#7a6a50">AY</text>
<text x="1488.0" y="72" font-size="10" text-anchor="middle" fill="#7a6a50">AZ</text>
<text x="1516.0" y="72" font-size="10" text-anchor="middle" fill="#7a6a50">BA</text>
<text x="1544.0" y="72" font-size="10" text-anchor="middle" fill="#7a6a50">BB</text>
<text x="1572.0" y="72" font-size="10" text-anchor="middle" fill="#7a6a50">BC</text>
<text x="1600.0" y="72" font-size="10" text-anchor="middle" fill="#7a6a50">BD</text>
<text x="1628.0" y="72" font-size="10" text-anchor="middle" fill="#7a6a50">BE</text>
<text x="1656.0" y="72" font-size="10" text-anchor="middle" fill="#7a6a50">BF</text>
<text x="1684.0" y="72" font-size="10" text-anchor="middle" fill="#7a6a50">BG</text>
<text x="1712.0" y="72" font-size="10" text-anchor="middle" fill="#7a6a50">BH</text>
<text x="1740.0" y="72" font-size="10" text-anchor="middle" fill="#7a6a50">BI</text>
<text x="1768.0" y="72" font-size="10" text-anchor="middle" fill="#7a6a50">BJ</text>
<text x="1796.0" y="72" font-size="10" text-anchor="middle" fill="#7a6a50">BK</text>
<text x="1824.0" y="72" font-size="10" text-anchor="middle" fill="#7a6a50">BL</text>
<text x="1852.0" y="72" font-size="10" text-anchor="middle" fill="#7a6a50">BM</text>
<text x="37" y="97.0" font-size="10" text-anchor="end" fill="#7a6a50">01</text>
<text x="37" y="125.0" font-size="10" text-anchor="end" fill="#b1a184">02</text>
<text x="37" y="153.0" font-size="10" text-anchor="end" fill="#b1a184">03</text>
<text x="37" y="181.0" font-size="10" text-anchor="end" fill="#b1a184">04</text>
<text x="37" y="209.0" font-size="10" text-anchor="end" fill="#b1a184">05</text>
<text x="37" y="237.0" font-size="10" text-anchor="end" fill="#7a6a50">06</text>
<text x="37" y="265.0" font-size="10" text-anchor="end" fill="#7a6a50">07</text>
<text x="37" y="293.0" font-size="10" text-anchor="end" fill="#7a6a50">08</text>
<text x="37" y="321.0" font-size="10" text-anchor="end" fill="#7a6a50">09</text>
<text x="37" y="349.0" font-size="10" text-anchor="end" fill="#7a6a50">10</text>
<text x="37" y="377.0" font-size="10" text-anchor="end" fill="#7a6a50">11</text>
<text x="37" y="405.0" font-size="10" text-anchor="end" fill="#7a6a50">12</text>
<text x="37" y="433.0" font-size="10" text-anchor="end" fill="#7a6a50">13</text>
<text x="37" y="461.0" font-size="10" text-anchor="end" fill="#7a6a50">14</text>
<text x="37" y="489.0" font-size="10" text-anchor="end" fill="#7a6a50">15</text>
<text x="37" y="517.0" font-size="10" text-anchor="end" fill="#7a6a50">16</text>
<text x="37" y="545.0" font-size="10" text-anchor="end" fill="#7a6a50">17</text>
<text x="37" y="573.0" font-size="10" text-anchor="end" fill="#7a6a50">18</text>
<text x="37" y="601.0" font-size="10" text-anchor="end" fill="#7a6a50">19</text>
<text x="37" y="629.0" font-size="10" text-anchor="end" fill="#7a6a50">20</text>
<text x="37" y="657.0" font-size="10" text-anchor="end" fill="#7a6a50">21</text>
<text x="37" y="685.0" font-size="10" text-anchor="end" fill="#7a6a50">22</text>
<text x="37" y="713.0" font-size="10" text-anchor="end" fill="#7a6a50">23</text>
<text x="37" y="741.0" font-size="10" text-anchor="end" fill="#7a6a50">24</text>
<text x="37" y="769.0" font-size="10" text-anchor="end" fill="#7a6a50">25</text>
<text x="37" y="797.0" font-size="10" text-anchor="end" fill="#7a6a50">26</text>
<text x="37" y="825.0" font-size="10" text-anchor="end" fill="#7a6a50">27</text>
<text x="37" y="853.0" font-size="10" text-anchor="end" fill="#7a6a50">28</text>
<text x="37" y="881.0" font-size="10" text-anchor="end" fill="#7a6a50">29</text>
<text x="37" y="909.0" font-size="10" text-anchor="end" fill="#7a6a50">30</text>
<text x="37" y="937.0" font-size="10" text-anchor="end" fill="#7a6a50">31</text>
<text x="37" y="965.0" font-size="10" text-anchor="end" fill="#7a6a50">32</text>
<text x="37" y="993.0" font-size="10" text-anchor="end" fill="#7a6a50">33</text>
<text x="37" y="1021.0" font-size="10" text-anchor="end" fill="#7a6a50">34</text>
<text x="37" y="1049.0" font-size="10" text-anchor="end" fill="#7a6a50">35</text>
<text x="37" y="1077.0" font-size="10" text-anchor="end" fill="#7a6a50">36</text>
<text x="37" y="1105.0" font-size="10" text-anchor="end" fill="#7a6a50">37</text>
<text x="37" y="1133.0" font-size="10" text-anchor="end" fill="#7a6a50">38</text>
<text x="37" y="1161.0" font-size="10" text-anchor="end" fill="#7a6a50">39</text>
<text x="37" y="1189.0" font-size="10" text-anchor="end" fill="#7a6a50">40</text>
<text x="37" y="1217.0" font-size="10" text-anchor="end" fill="#7a6a50">41</text>
<text x="37" y="1245.0" font-size="10" text-anchor="end" fill="#7a6a50">42</text>
<text x="37" y="1273.0" font-size="10" text-anchor="end" fill="#7a6a50">43</text>
<text x="37" y="1301.0" font-size="10" text-anchor="end" fill="#7a6a50">44</text>
<text x="37" y="1329.0" font-size="10" text-anchor="end" fill="#7a6a50">45</text>
<text x="37" y="1357.0" font-size="10" text-anchor="end" fill="#7a6a50">46</text>
<text x="37" y="1385.0" font-size="10" text-anchor="end" fill="#7a6a50">47</text>
<text x="37" y="1413.0" font-size="10" text-anchor="end" fill="#7a6a50">48</text>
<text x="37" y="1441.0" font-size="10" text-anchor="end" fill="#7a6a50">49</text>
<text x="37" y="1469.0" font-size="10" text-anchor="end" fill="#7a6a50">50</text>
<text x="37" y="1497.0" font-size="10" text-anchor="end" fill="#b1a184">51</text>
<text x="37" y="1525.0" font-size="10" text-anchor="end" fill="#b1a184">52</text>
<text x="37" y="1553.0" font-size="10" text-anchor="end" fill="#b1a184">53</text>
<rect x="46" y="1583" width="28" height="7" fill="#3b2e1e" stroke="#3b2e1e" stroke-width="1"/>
<rect x="74" y="1583" width="28" height="7" fill="#efe4c9" stroke="#3b2e1e" stroke-width="1"/>
<rect x="102" y="1583" width="28" height="7" fill="#3b2e1e" stroke="#3b2e1e" stroke-width="1"/>
<rect x="130" y="1583" width="28" height="7" fill="#efe4c9" stroke="#3b2e1e" stroke-width="1"/>
<rect x="158" y="1583" width="28" height="7" fill="#3b2e1e" stroke="#3b2e1e" stroke-width="1"/>
<text x="196" y="1591" font-size="11" fill="#3b2e1e">7,5 m (5 quadretti)</text>
<text x="46" y="1620" font-size="12" font-weight="bold" fill="#3b2e1e" letter-spacing="2">LEGENDA</text>
<path d="M120 1616H1866" stroke="#7a6a50" stroke-width="0.7" opacity="0.7"/>
<circle cx="55" cy="1634" r="7.5" fill="url(#g_212529)" stroke="#241c10" stroke-width="1.2"/>
<text x="73" y="1638" font-size="11" fill="#3b2e1e">⚫ — Boss / comandante</text>
<rect x="46" y="1648" width="19" height="15" fill="url(#t_struct)" stroke="#7a6a50" stroke-width="0.7"/>
<text x="73" y="1660" font-size="11" fill="#3b2e1e">⬛ — Struttura (tenda, edificio, dais)</text>
<rect x="46" y="1670" width="19" height="15" fill="url(#t_forest)" stroke="#7a6a50" stroke-width="0.7"/>
<text x="73" y="1682" font-size="11" fill="#3b2e1e">🌲 — Foresta densa (Furtività +5, copertura)</text>
<text x="46" y="1704" font-size="14">💀</text>
<text x="73" y="1704" font-size="11" fill="#3b2e1e">💀 — Fossa / trappola</text>
<text x="46" y="1726" font-size="14">💎</text>
<text x="73" y="1726" font-size="11" fill="#3b2e1e">💎 — Tesoro / oggetto magico</text>
<circle cx="55" cy="1744" r="7.5" fill="url(#g_d62828)" stroke="#241c10" stroke-width="1.2"/>
<text x="73" y="1748" font-size="11" fill="#3b2e1e">🔴 — Nemico standard</text>
<text x="46" y="1770" font-size="14">🗼</text>
<text x="73" y="1770" font-size="11" fill="#3b2e1e">🗼 — Torre / struttura alta</text>
<text x="46" y="1792" font-size="14">🚪</text>
<text x="73" y="1792" font-size="11" fill="#3b2e1e">🚪 — Porta / ingresso</text>
<circle cx="55" cy="1810" r="7.5" fill="url(#g_2b9348)" stroke="#241c10" stroke-width="1.2"/>
<text x="73" y="1814" font-size="11" fill="#3b2e1e">🟢 — Creatura evocata / bestia</text>
<rect x="46" y="1824" width="19" height="15" fill="url(#t_grass)" stroke="#7a6a50" stroke-width="0.7"/>
<text x="73" y="1836" font-size="11" fill="#3b2e1e">🟩 — Pianura / area aperta</text>
<text x="46" y="1858" font-size="14">🪨</text>
<text x="73" y="1858" font-size="11" fill="#3b2e1e">🪨 — Rocce/macerie (copertura +4 CA, terreno difficile)</text>
<text x="46" y="1890" font-size="9" font-style="italic" fill="#7a6a50">fonte: SUPPLEMENTO-P1C-MAPPE-CAMPI-DROW-COMPLETO.md · SVG generato da scripts/render_map_svg.py (stile pergamena) — non modificare a mano</text>
</svg>