<svg xmlns="http://www.w3.org/2000/svg" viewBox="0 0 200 240" width="200" height="240" role="img" aria-label="Stemma Contrada del Bruco">
  <defs><clipPath id="s3"><path d="M20 20 H180 V150 Q180 210 100 232 Q20 210 20 150 Z"/></clipPath></defs>
  <path d="M20 20 H180 V150 Q180 210 100 232 Q20 210 20 150 Z" fill="#d8c53a" stroke="#1e5f2e" stroke-width="6"/>
  <g clip-path="url(#s3)">
    <path d="M20 20 L20 232 L60 232 L60 20 Z M100 20 L100 232 L140 232 L140 20 Z" fill="#1e5f2e" opacity="0.35"/>
    <!-- ramo in ombra -->
    <path d="M30 150 q60 -20 140 -10" stroke="#3a2f22" stroke-width="5" fill="none"/>
    <!-- bruco/baco originale: segmenti con leggera aura d'ombra (Mask) -->
    <g transform="translate(60,120)">
      <ellipse cx="0" cy="0" rx="16" ry="13" fill="#2b2b33"/>
      <ellipse cx="20" cy="-4" rx="15" ry="12" fill="#3a3a45"/>
      <ellipse cx="40" cy="-6" rx="14" ry="11" fill="#2b2b33"/>
      <ellipse cx="58" cy="-4" rx="13" ry="10" fill="#3a3a45"/>
      <ellipse cx="74" cy="0" rx="12" ry="9" fill="#2b2b33"/>
      <circle cx="-8" cy="-3" r="3" fill="#e9c24a"/>
      <path d="M-14 -10 l-6 -8 M-10 -12 l-2 -10" stroke="#2b2b33" stroke-width="2"/>
    </g>
  </g>
  <path d="M20 20 H180 V150 Q180 210 100 232 Q20 210 20 150 Z" fill="none" stroke="#1e5f2e" stroke-width="6"/>
  <rect x="30" y="182" width="140" height="26" rx="4" fill="#0d1b2a" opacity="0.85"/>
  <text x="100" y="200" font-family="Georgia,serif" font-size="12" fill="#e9c24a" text-anchor="middle" font-style="italic">Nell'ombra mi rivolto</text>
  <text x="100" y="14" font-family="Georgia,serif" font-size="12" fill="#1e5f2e" text-anchor="middle" font-weight="bold">IL BRUCO · Mask</text>
</svg>
