<svg xmlns="http://www.w3.org/2000/svg" viewBox="0 0 200 240" width="200" height="240" role="img" aria-label="Stemma Contrada del Drago">
  <defs><clipPath id="s5"><path d="M20 20 H180 V150 Q180 210 100 232 Q20 210 20 150 Z"/></clipPath></defs>
  <path d="M20 20 H180 V150 Q180 210 100 232 Q20 210 20 150 Z" fill="#c56a8f" stroke="#e0b400" stroke-width="6"/>
  <g clip-path="url(#s5)">
    <path d="M20 20 H180 V232 H20 Z" fill="#2f7d4f" opacity="0.28"/>
    <!-- stella di Mystra -->
    <g transform="translate(100,72)" fill="#f6e27a"><path d="M0 -18 L5 -5 L18 -5 L7 3 L11 16 L0 8 L-11 16 L-7 3 L-18 -5 L-5 -5 Z"/></g>
    <!-- drago originale avvolto attorno alla stella -->
    <g transform="translate(100,120)" fill="#1e5f2e" stroke="#0f3a1c" stroke-width="2">
      <path d="M-40 20 q-6 -34 30 -40 q30 -5 44 16 q8 12 -2 22 q-8 8 -18 2 q6 8 -4 14 q-12 6 -22 -4 q10 12 -6 18 q-18 6 -22 -14 q-2 -12 22 -14 q-18 -2 -22 -18z"/>
      <circle cx="30" cy="-18" r="3" fill="#f6e27a"/>
      <path d="M40 -8 l12 -6 l-6 10z"/>
    </g>
  </g>
  <path d="M20 20 H180 V150 Q180 210 100 232 Q20 210 20 150 Z" fill="none" stroke="#e0b400" stroke-width="6"/>
  <rect x="22" y="182" width="156" height="26" rx="4" fill="#0d1b2a" opacity="0.85"/>
  <text x="100" y="200" font-family="Georgia,serif" font-size="11" fill="#f6e27a" text-anchor="middle" font-style="italic">Il cuore che arde parla in fiamme</text>
  <text x="100" y="14" font-family="Georgia,serif" font-size="12" fill="#8a2f5f" text-anchor="middle" font-weight="bold">IL DRAGO · Mystra</text>
</svg>
