<svg xmlns="http://www.w3.org/2000/svg" viewBox="0 0 200 240" width="200" height="240" role="img" aria-label="Stemma Contrada della Civetta">
  <defs><clipPath id="s6"><path d="M20 20 H180 V150 Q180 210 100 232 Q20 210 20 150 Z"/></clipPath></defs>
  <path d="M20 20 H180 V150 Q180 210 100 232 Q20 210 20 150 Z" fill="#141414" stroke="#8a1f2b" stroke-width="6"/>
  <g clip-path="url(#s6)">
    <path d="M100 20 V232 H180 V20 Z" fill="#8a1f2b"/>
    <!-- disco nero di Shar -->
    <circle cx="100" cy="86" r="26" fill="#0a0a0a" stroke="#3a1f2b" stroke-width="2"/>
    <circle cx="100" cy="86" r="26" fill="none" stroke="#5a3a4a" stroke-width="1" opacity="0.6"/>
    <!-- civetta originale su ramo -->
    <g transform="translate(100,140)">
      <path d="M0 -18 q-20 0 -20 22 q0 24 20 26 q20 -2 20 -26 q0 -22 -20 -22z" fill="#e8e4da" stroke="#111" stroke-width="1.5"/>
      <circle cx="-8" cy="-6" r="7" fill="#fff" stroke="#111"/><circle cx="8" cy="-6" r="7" fill="#fff" stroke="#111"/>
      <circle cx="-8" cy="-6" r="3" fill="#c9a227"/><circle cx="8" cy="-6" r="3" fill="#c9a227"/>
      <path d="M0 -2 l-4 6 h8z" fill="#c9a227"/>
      <path d="M-14 24 h28" stroke="#3a2f22" stroke-width="4"/>
    </g>
  </g>
  <path d="M20 20 H180 V150 Q180 210 100 232 Q20 210 20 150 Z" fill="none" stroke="#8a1f2b" stroke-width="6"/>
  <rect x="26" y="182" width="148" height="26" rx="4" fill="#000" opacity="0.85"/>
  <text x="100" y="200" font-family="Georgia,serif" font-size="11.5" fill="#c9a227" text-anchor="middle" font-style="italic">Guardo dove la notte tace</text>
  <text x="100" y="14" font-family="Georgia,serif" font-size="12" fill="#c9a227" text-anchor="middle" font-weight="bold">LA CIVETTA · Shar</text>
</svg>
