<svg xmlns="http://www.w3.org/2000/svg" viewBox="0 0 200 240" width="200" height="240" role="img" aria-label="Stemma Contrada dell'Unicorno">
  <defs><clipPath id="s7"><path d="M20 20 H180 V150 Q180 210 100 232 Q20 210 20 150 Z"/></clipPath></defs>
  <path d="M20 20 H180 V150 Q180 210 100 232 Q20 210 20 150 Z" fill="#f4f1ea" stroke="#2a6fb0" stroke-width="6"/>
  <g clip-path="url(#s7)">
    <path d="M100 20 L180 20 L180 232 L100 232 Z" fill="#e8892b" opacity="0.9"/>
    <path d="M20 20 L100 20 L100 232 L20 232 Z" fill="#f4f1ea"/>
    <!-- unicorno rampante originale, corno ad arpa (Milil/Sune) -->
    <g transform="translate(100,124)" fill="#fff" stroke="#2a3a4a" stroke-width="2">
      <path d="M-6 44 q-24 -6 -24 -34 q0 -26 24 -34 q-4 -12 6 -18 q4 12 12 12 q18 2 20 24 q2 20 -14 26 q10 10 0 22 q-8 10 -20 4 q6 12 -4 16 q-8 2 -6 -10z"/>
      <!-- corno a spirale d'arpa -->
      <path d="M8 -60 q14 -6 12 10 q-2 10 -10 8" fill="none" stroke="#c9a227" stroke-width="3"/>
      <circle cx="4" cy="-30" r="2.5" fill="#2a3a4a"/>
    </g>
  </g>
  <path d="M20 20 H180 V150 Q180 210 100 232 Q20 210 20 150 Z" fill="none" stroke="#2a6fb0" stroke-width="6"/>
  <rect x="20" y="182" width="160" height="26" rx="4" fill="#0d1b2a" opacity="0.85"/>
  <text x="100" y="200" font-family="Georgia,serif" font-size="10.5" fill="#f2d98a" text-anchor="middle" font-style="italic">Ferisce e sana il corno che porto</text>
  <text x="100" y="14" font-family="Georgia,serif" font-size="12" fill="#2a6fb0" text-anchor="middle" font-weight="bold">L'UNICORNO · Sune/Milil</text>
</svg>
