<svg xmlns="http://www.w3.org/2000/svg" viewBox="0 0 200 240" width="200" height="240" role="img" aria-label="Stemma Contrada dell'Unicorno">
  <defs><clipPath id="u7"><path d="M20 20 H180 V150 Q180 210 100 232 Q20 210 20 150 Z"/></clipPath></defs>
  <path d="M20 20 H180 V150 Q180 210 100 232 Q20 210 20 150 Z" fill="#f4f1ea" stroke="#2a6fb0" stroke-width="6"/>
  <g clip-path="url(#u7)">
    <path d="M100 20 H180 V150 Q180 210 100 232 Z" fill="#e8892b"/>
    <!-- testa d'unicorno araldica in profilo, bianca -->
    <g stroke="#2a3a4a" stroke-width="2.5" stroke-linejoin="round" fill="#ffffff">
      <path d="M78 168 q-14 -18 -6 -44 q6 -20 26 -30 q-2 -10 4 -16 q6 6 10 6 q16 4 20 22 q4 20 -8 34 q-10 12 -24 16 q4 12 -6 16 q-10 2 -16 -4z"/>
      <path d="M92 96 q-10 -6 -20 -2 q8 6 18 6z"/>
    </g>
    <!-- criniera arancio -->
    <path d="M112 70 q16 6 12 30 q-2 16 -12 24 q10 -22 0 -54z" fill="#e8892b" stroke="#a85a12" stroke-width="1.5"/>
    <!-- corno a spirale d'arpa, oro -->
    <path d="M104 62 q10 -16 4 -34" fill="none" stroke="#c9a227" stroke-width="4" stroke-linecap="round"/>
    <path d="M108 40 q8 -2 6 8" fill="none" stroke="#c9a227" stroke-width="3"/>
    <circle cx="94" cy="86" r="2.5" fill="#2a3a4a"/>
  </g>
  <path d="M20 20 H180 V150 Q180 210 100 232 Q20 210 20 150 Z" fill="none" stroke="#2a6fb0" stroke-width="6"/>
  <rect x="20" y="182" width="160" height="26" rx="4" fill="#0d1b2a" opacity="0.85"/>
  <text x="100" y="200" font-family="Georgia,serif" font-size="10.5" fill="#f2d98a" text-anchor="middle" font-style="italic">Ferisce e sana il corno che porto</text>
  <text x="100" y="14" font-family="Georgia,serif" font-size="12" fill="#2a6fb0" text-anchor="middle" font-weight="bold">L'UNICORNO · Sune/Milil</text>
</svg>
